# This file uses centimeters as units for non-parametric coordinates.

v -5.781998 5.527522 0.000004
v 5.781998 5.527522 0.000008
v -5.781998 4.780927 2.509838
v 5.781998 4.780927 2.509834
v -5.781998 5.869811 0.000004
v 5.781998 5.869811 0.000008
v -5.781998 5.123217 2.509838
v 5.781998 5.123217 2.509834
v 0.000000 5.869811 0.000008
v 0.000000 5.123217 2.509834
v 0.000000 4.780927 2.509834
v -5.781998 4.780927 -2.509834
v 5.781998 4.780927 -2.509834
v -5.781998 5.123217 -2.509834
v 5.781998 5.123217 -2.509834
v 0.000000 5.123217 -2.509834
v 0.000000 4.780927 -2.509834
v 5.572823 5.493703 0.000000
v 5.572823 4.814745 2.419037
v 0.000000 4.814745 2.419044
v -5.572823 4.814745 2.419041
v -5.572823 5.493703 0.000004
v 0.000000 4.814745 -2.419037
v 5.572823 4.814745 -2.419037
v -5.572823 4.814745 -2.419037
v 5.572823 5.277899 0.000000
v 5.572823 4.598941 2.399567
v 0.000000 4.598941 2.399559
v 0.000000 5.270762 0.000008
v -5.572823 4.598941 2.399563
v -5.572823 5.277899 0.000004
v 0.000000 4.598941 -2.399559
v 5.572823 4.598941 -2.399567
v -5.572823 4.598941 -2.399567
v -5.111485 0.452242 0.144527
v -5.111485 0.452242 -0.144566
v -5.385174 0.452242 -0.144566
v -5.385174 0.452242 0.144527
v -5.385174 5.585064 -0.144566
v -5.385174 5.585064 0.144527
v -5.111485 5.585064 -0.144566
v -5.111485 5.585064 0.144527
v 5.410759 0.452242 0.144531
v 5.410759 0.452242 -0.144562
v 5.137070 0.452242 -0.144569
v 5.137070 0.452242 0.144524
v 5.137070 5.585064 -0.144569
v 5.137070 5.585064 0.144524
v 5.410759 5.585064 -0.144562
v 5.410759 5.585064 0.144531
v -0.002937 0.452242 0.144531
v -0.002937 0.452242 -0.144562
v -0.276627 0.452242 -0.144569
v -0.276627 0.452242 0.144524
v -0.276627 5.585064 -0.144569
v -0.276627 5.585064 0.144524
v -0.002937 5.585064 -0.144562
v -0.002937 5.585064 0.144531
v -4.903896 0.452242 -0.352154
v -5.592766 0.452242 -0.352154
v -5.592766 0.452242 0.352116
v -4.903896 0.452242 0.352116
v 5.618347 0.452242 -0.352150
v 4.929482 0.452242 -0.352158
v 4.929482 0.452242 0.352112
v 5.618347 0.452242 0.352119
v 0.204651 0.452242 -0.352150
v -0.484215 0.452242 -0.352158
v -0.484215 0.452242 0.352112
v 0.204651 0.452242 0.352119
v -4.903896 0.000000 -0.352154
v -5.592766 0.000000 -0.352154
v -5.592766 0.000000 0.352116
v -4.903896 0.000000 0.352116
v 5.618347 0.000000 -0.352150
v 4.929482 0.000000 -0.352158
v 4.929482 0.000000 0.352112
v 5.618347 0.000000 0.352119
v 0.204651 0.000000 -0.352150
v -0.484215 0.000000 -0.352158
v -0.484215 0.000000 0.352112
v 0.204651 0.000000 0.352119
vt 0.261235 0.062975
vt 0.261235 0.062975
vt 0.261235 0.062975
vt 0.261235 0.062975
vt 0.261235 0.062975
vt 0.261235 0.062975
vt 0.166598 0.062975
vt 0.166598 0.062975
vt 0.198854 0.403012
vt 0.201092 0.062975
vt 0.166598 0.062975
vt 0.166598 0.062975
vt 0.166598 0.062975
vt 0.201092 0.062975
vt 0.201092 0.062975
vt 0.166598 0.062975
vt 0.166598 0.062975
vt 0.166598 0.062975
vt 0.166598 0.062975
vt 0.166598 0.062975
vt 0.201092 0.062975
vt 0.166598 0.062975
vt 0.166598 0.062975
vt 0.166598 0.062975
vt 0.166598 0.062975
vt 0.166598 0.062975
vt 0.166598 0.062975
vt 0.166598 0.062975
vt 0.198854 0.403012
vt 0.166598 0.062975
vt 0.261235 0.062975
vt 0.261235 0.062975
vt 0.233816 0.062975
vt 0.233816 0.062975
vt 0.233816 0.062975
vt 0.233816 0.062975
vt 0.166598 0.062975
vt 0.166598 0.062975
vt 0.233347 0.403012
vt 0.233347 0.403012
vt 0.198854 0.403012
vt 0.233347 0.403012
vt 0.198854 0.403012
vt 0.198854 0.403012
vt 0.233347 0.403012
vt 0.233347 0.403012
vt 0.198854 0.403012
vt 0.198854 0.403012
vt 0.233347 0.403012
vt 0.233347 0.403012
vt 0.198854 0.403012
vt 0.233347 0.403012
vt 0.233816 0.062975
vt 0.233816 0.062975
vt 0.233816 0.062975
vt 0.233816 0.062975
vt 0.198854 0.403012
vt 0.233347 0.403012
vt 0.233347 0.403012
vt 0.233347 0.403012
vt 0.233347 0.403012
vt 0.198854 0.403012
vt 0.198854 0.403012
vt 0.198854 0.403012
vt 0.198854 0.403012
vt 0.198854 0.403012
vt 0.198854 0.403012
vt 0.198854 0.403012
vt 0.198854 0.403012
vt 0.233347 0.403012
vt 0.233347 0.403012
vt 0.233347 0.403012
vt 0.233347 0.403012
vt 0.233347 0.403012
vt 0.233347 0.403012
vt 0.233347 0.403012
vt 0.233347 0.403012
vt 0.198854 0.403012
vt 0.198854 0.403012
vt 0.198854 0.403012
vt 0.198854 0.403012
vt 0.198854 0.403012
vt 0.198854 0.403012
vt 0.198854 0.403012
vt 0.198854 0.403012
vt 0.233347 0.403012
vt 0.233347 0.403012
vt 0.233347 0.403012
vt 0.233347 0.403012
vt 0.233347 0.403012
vt 0.233347 0.403012
vt 0.233347 0.403012
vt 0.233347 0.403012
vt 0.198854 0.403012
vt 0.198854 0.403012
vt 0.198854 0.403012
vt 0.198854 0.403012
vt 0.198854 0.403012
vt 0.198854 0.403012
vt 0.198854 0.403012
vt 0.198854 0.403012
vt 0.233347 0.403012
vt 0.233347 0.403012
vt 0.233347 0.403012
vt 0.233347 0.403012
vt 0.297028 0.475538
vt 0.297028 0.475538
vt 0.297028 0.475538
vt 0.297028 0.475538
vt 0.297028 0.475538
vt 0.297028 0.475538
vt 0.297028 0.475538
vt 0.297028 0.475538
vt 0.297028 0.475538
vt 0.297028 0.475538
vt 0.297028 0.475538
vt 0.297028 0.475538
vt 0.297028 0.475538
vt 0.297028 0.475538
vt 0.297028 0.475538
vt 0.297028 0.475538
vt 0.297028 0.475538
vt 0.297028 0.475538
vt 0.297028 0.475538
vt 0.297028 0.475538
vt 0.297028 0.475538
vt 0.297028 0.475538
vt 0.297028 0.475538
vt 0.297028 0.475538
vt 0.233347 0.475538
vt 0.233347 0.475538
vt 0.233347 0.475538
vt 0.233347 0.475538
vt 0.198854 0.475538
vt 0.198854 0.475538
vt 0.198854 0.475538
vt 0.198854 0.475538
vt 0.198854 0.475538
vt 0.198854 0.475538
vt 0.198854 0.475538
vt 0.198854 0.475538
vt 0.233347 0.475538
vt 0.233347 0.475538
vt 0.233347 0.475538
vt 0.233347 0.475538
vt 0.233347 0.475538
vt 0.233347 0.475538
vt 0.233347 0.475538
vt 0.233347 0.475538
vt 0.198854 0.475538
vt 0.198854 0.475538
vt 0.198854 0.475538
vt 0.198854 0.475538
vt 0.198854 0.475538
vt 0.198854 0.475538
vt 0.198854 0.475538
vt 0.198854 0.475538
vt 0.233347 0.475538
vt 0.233347 0.475538
vt 0.233347 0.475538
vt 0.233347 0.475538
vt 0.233347 0.475538
vt 0.233347 0.475538
vt 0.233347 0.475538
vt 0.233347 0.475538
vt 0.198854 0.475538
vt 0.198854 0.475538
vt 0.198854 0.475538
vt 0.198854 0.475538
vt 0.198854 0.475538
vt 0.198854 0.475538
vt 0.198854 0.475538
vt 0.198854 0.475538
vt 0.233347 0.475538
vt 0.233347 0.475538
vt 0.233347 0.475538
vt 0.233347 0.475538
vt 0.198854 0.403012
vt 0.233347 0.403012
vt 0.198854 0.403012
vt 0.233347 0.403012
vt 0.233347 0.403012
vt 0.233347 0.403012
vt 0.198854 0.403012
vt 0.233347 0.403012
vt 0.198854 0.403012
vt 0.233347 0.403012
vt 0.198854 0.403012
vt 0.233347 0.403012
vt 0.198854 0.403012
vt 0.233347 0.403012
vt 0.201092 0.062975
vt 0.201092 0.062975
vt 0.201092 0.062975
vt 0.201092 0.062975
vt 0.201092 0.062975
vt 0.201092 0.062975
vt 0.201092 0.062975
vt 0.201092 0.062975
vt 0.201092 0.062975
vt 0.201092 0.062975
vt 0.166598 0.062975
vt 0.201092 0.062975
vt 0.201092 0.062975
vt 0.166598 0.062975
vt 0.297028 0.475538
vt 0.297028 0.475538
vt 0.297028 0.475538
vt 0.297028 0.475538
vt 0.297028 0.475538
vt 0.297028 0.475538
vt 0.297028 0.475538
vt 0.297028 0.475538
vt 0.297028 0.475538
vt 0.297028 0.475538
vt 0.297028 0.475538
vt 0.297028 0.475538
vt 0.297028 0.475538
vt 0.297028 0.475538
vt 0.297028 0.475538
vt 0.297028 0.475538
vt 0.297028 0.475538
vt 0.297028 0.475538
vt 0.297028 0.475538
vt 0.297028 0.475538
vt 0.297028 0.475538
vt 0.297028 0.475538
vt 0.297028 0.475538
vt 0.297028 0.475538
vt 0.166598 0.062975
vt 0.166598 0.062975
vt 0.166598 0.062975
vt 0.166598 0.062975
vt 0.166598 0.062975
vt 0.166598 0.062975
vt 0.166598 0.062975
vt 0.166598 0.062975
vt 0.166598 0.062975
vt 0.166598 0.062975
vt 0.166598 0.062975
vt 0.166598 0.062975
vt 0.166598 0.062975
vt 0.166598 0.062975
vt 0.166598 0.062975
vt 0.166598 0.062975
vt 0.166598 0.062975
vt 0.166598 0.062975
vt 0.166598 0.062975
vt 0.166598 0.062975
vt 0.166598 0.062975
vt 0.166598 0.062975
vt 0.166598 0.062975
vt 0.166598 0.062975
vt 0.166598 0.062975
vt 0.166598 0.062975
vn 0.000000 0.958492 0.285121
vn 0.000000 0.958492 0.285121
vn 0.000000 0.958492 0.285121
vn 0.000000 0.958492 0.285121
vn 0.000616 -0.962597 -0.270936
vn 0.000616 -0.962597 -0.270936
vn 0.000616 -0.962597 -0.270936
vn 0.000616 -0.962597 -0.270936
vn -1.000000 0.000000 0.000000
vn -1.000000 0.000000 0.000000
vn -1.000000 0.000000 0.000000
vn -1.000000 0.000000 0.000000
vn 0.000000 0.000000 1.000000
vn 0.000000 0.000000 1.000000
vn 0.000000 0.000000 1.000000
vn 0.000000 0.000000 1.000000
vn 1.000000 0.000000 0.000000
vn 1.000000 0.000000 0.000000
vn 1.000000 0.000000 0.000000
vn 1.000000 0.000000 0.000000
vn 0.000000 0.958492 0.285121
vn 0.000000 0.958492 0.285121
vn 0.000000 0.958492 0.285121
vn 0.000000 0.958492 0.285121
vn 0.000001 0.000000 1.000000
vn 0.000001 0.000000 1.000000
vn 0.000001 0.000000 1.000000
vn 0.000001 0.000000 1.000000
vn -0.000616 -0.962597 -0.270937
vn -0.000616 -0.962597 -0.270937
vn -0.000616 -0.962597 -0.270937
vn -0.000616 -0.962597 -0.270937
vn 0.000000 0.958492 -0.285120
vn 0.000000 0.958492 -0.285120
vn 0.000000 0.958492 -0.285120
vn 0.000000 0.958492 -0.285120
vn 0.000617 -0.962597 0.270936
vn 0.000617 -0.962597 0.270936
vn 0.000617 -0.962597 0.270936
vn 0.000617 -0.962597 0.270936
vn -1.000000 0.000000 0.000000
vn -1.000000 0.000000 0.000000
vn -1.000000 0.000000 0.000000
vn -1.000000 0.000000 0.000000
vn 0.000000 0.000000 -1.000000
vn 0.000000 0.000000 -1.000000
vn 0.000000 0.000000 -1.000000
vn 0.000000 0.000000 -1.000000
vn 1.000000 0.000000 0.000000
vn 1.000000 0.000000 0.000000
vn 1.000000 0.000000 0.000000
vn 1.000000 0.000000 0.000000
vn 0.000000 0.958492 -0.285120
vn 0.000000 0.958492 -0.285120
vn 0.000000 0.958492 -0.285120
vn 0.000000 0.958492 -0.285120
vn 0.000000 0.000000 -1.000000
vn 0.000000 0.000000 -1.000000
vn 0.000000 0.000000 -1.000000
vn 0.000000 0.000000 -1.000000
vn -0.000617 -0.962597 0.270936
vn -0.000617 -0.962597 0.270935
vn -0.000617 -0.962597 0.270935
vn -0.000617 -0.962597 0.270935
vn 0.060199 -0.958886 -0.277334
vn 0.060199 -0.958886 -0.277334
vn 0.060199 -0.958886 -0.277334
vn 0.060199 -0.958886 -0.277334
vn -0.000000 -0.937106 -0.349046
vn -0.000000 -0.937106 -0.349046
vn -0.000000 -0.937106 -0.349046
vn -0.000000 -0.937106 -0.349046
vn 0.000000 -0.937106 -0.349046
vn 0.000000 -0.937106 -0.349046
vn 0.000000 -0.937106 -0.349046
vn 0.000000 -0.937106 -0.349046
vn -0.060194 -0.958886 -0.277334
vn -0.060194 -0.958886 -0.277334
vn -0.060194 -0.958886 -0.277334
vn -0.060194 -0.958886 -0.277334
vn 0.000000 -0.937110 0.349033
vn 0.000000 -0.937110 0.349033
vn 0.000000 -0.937110 0.349033
vn 0.000000 -0.937110 0.349033
vn 0.060189 -0.958887 0.277334
vn 0.060189 -0.958887 0.277334
vn 0.060189 -0.958887 0.277334
vn 0.060189 -0.958887 0.277334
vn -0.060194 -0.958886 0.277334
vn -0.060194 -0.958886 0.277334
vn -0.060194 -0.958886 0.277334
vn -0.060194 -0.958886 0.277334
vn 0.000000 -0.937110 0.349034
vn 0.000000 -0.937110 0.349034
vn 0.000000 -0.937110 0.349034
vn 0.000000 -0.937110 0.349034
vn 1.000000 0.000000 0.000000
vn 1.000000 0.000000 0.000000
vn 1.000000 0.000000 0.000000
vn 1.000000 0.000000 0.000000
vn 0.000000 -0.089892 0.995952
vn 0.000000 -0.089892 0.995952
vn 0.000000 -0.089892 0.995952
vn 0.000000 -0.089892 0.995952
vn 0.000000 -0.089909 0.995950
vn 0.000000 -0.089909 0.995950
vn 0.000000 -0.089909 0.995950
vn 0.000000 -0.089909 0.995950
vn -1.000000 -0.000001 0.000000
vn -1.000000 -0.000001 0.000000
vn -1.000000 -0.000001 0.000000
vn -1.000000 -0.000001 0.000000
vn -0.000001 -0.089874 -0.995953
vn -0.000001 -0.089874 -0.995953
vn -0.000001 -0.089874 -0.995953
vn -0.000001 -0.089874 -0.995953
vn 1.000000 -0.000000 0.000000
vn 1.000000 -0.000000 0.000000
vn 1.000000 -0.000000 0.000000
vn 1.000000 -0.000000 0.000000
vn -1.000000 0.000000 0.000000
vn -1.000000 0.000000 0.000000
vn -1.000000 0.000000 0.000000
vn -1.000000 0.000000 0.000000
vn 0.000001 -0.089874 -0.995953
vn 0.000001 -0.089874 -0.995953
vn 0.000001 -0.089874 -0.995953
vn 0.000001 -0.089874 -0.995953
vn 0.000000 0.000000 -1.000000
vn 0.000000 0.000000 -1.000000
vn 0.000000 0.000000 -1.000000
vn 0.000000 0.000000 -1.000000
vn -1.000000 0.000000 0.000000
vn -1.000000 0.000000 0.000000
vn -1.000000 0.000000 0.000000
vn -1.000000 0.000000 0.000000
vn 1.000000 0.000000 0.000000
vn 1.000000 0.000000 0.000000
vn 1.000000 0.000000 0.000000
vn 1.000000 0.000000 0.000000
vn 0.000000 0.000000 1.000000
vn 0.000000 0.000000 1.000000
vn 0.000000 0.000000 1.000000
vn 0.000000 0.000000 1.000000
vn 0.000028 0.000000 -1.000000
vn 0.000028 0.000000 -1.000000
vn 0.000028 0.000000 -1.000000
vn 0.000028 0.000000 -1.000000
vn -1.000000 0.000000 0.000000
vn -1.000000 0.000000 0.000000
vn -1.000000 0.000000 0.000000
vn -1.000000 0.000000 0.000000
vn 1.000000 0.000000 0.000000
vn 1.000000 0.000000 0.000000
vn 1.000000 0.000000 0.000000
vn 1.000000 0.000000 0.000000
vn -0.000028 0.000000 1.000000
vn -0.000028 0.000000 1.000000
vn -0.000028 0.000000 1.000000
vn -0.000028 0.000000 1.000000
vn 0.000028 0.000000 -1.000000
vn 0.000028 0.000000 -1.000000
vn 0.000028 0.000000 -1.000000
vn 0.000028 0.000000 -1.000000
vn -1.000000 0.000000 0.000000
vn -1.000000 0.000000 0.000000
vn -1.000000 0.000000 0.000000
vn -1.000000 0.000000 0.000000
vn 1.000000 0.000000 0.000000
vn 1.000000 0.000000 0.000000
vn 1.000000 0.000000 0.000000
vn 1.000000 0.000000 0.000000
vn -0.000028 0.000000 1.000000
vn -0.000028 0.000000 1.000000
vn -0.000028 0.000000 1.000000
vn -0.000028 0.000000 1.000000
vn 0.000000 1.000000 0.000001
vn 0.000000 1.000000 0.000001
vn 0.000000 1.000000 0.000001
vn 0.000000 1.000000 0.000001
vn 0.000000 1.000000 0.000000
vn 0.000000 1.000000 0.000000
vn 0.000000 1.000000 0.000000
vn 0.000000 1.000000 0.000000
vn -0.000000 1.000000 0.000000
vn -0.000000 1.000000 0.000000
vn -0.000000 1.000000 0.000000
vn -0.000000 1.000000 0.000000
vn 0.000000 1.000000 0.000000
vn 0.000000 1.000000 0.000000
vn 0.000000 1.000000 0.000000
vn 0.000000 1.000000 0.000000
vn -0.000000 1.000000 0.000000
vn -0.000000 1.000000 0.000000
vn -0.000000 1.000000 0.000000
vn -0.000000 1.000000 0.000000
vn 0.000000 1.000000 0.000000
vn 0.000000 1.000000 0.000000
vn 0.000000 1.000000 0.000000
vn 0.000000 1.000000 0.000000
vn -0.000000 1.000000 0.000000
vn -0.000000 1.000000 0.000000
vn -0.000000 1.000000 0.000000
vn -0.000000 1.000000 0.000000
vn 0.000000 1.000000 -0.000000
vn 0.000000 1.000000 -0.000000
vn 0.000000 1.000000 -0.000000
vn 0.000000 1.000000 -0.000000
vn -0.000000 1.000000 0.000000
vn -0.000000 1.000000 0.000000
vn -0.000000 1.000000 0.000000
vn -0.000000 1.000000 0.000000
vn 0.000000 1.000000 0.000000
vn 0.000000 1.000000 0.000000
vn 0.000000 1.000000 0.000000
vn 0.000000 1.000000 0.000000
vn -0.000000 1.000000 0.000000
vn -0.000000 1.000000 0.000000
vn -0.000000 1.000000 0.000000
vn -0.000000 1.000000 0.000000
vn 0.000000 1.000000 -0.000000
vn 0.000000 1.000000 -0.000000
vn 0.000000 1.000000 -0.000000
vn 0.000000 1.000000 -0.000000
vn 0.000000 0.000000 -1.000000
vn 0.000000 0.000000 -1.000000
vn 0.000000 0.000000 -1.000000
vn 0.000000 0.000000 -1.000000
vn -1.000000 0.000000 0.000000
vn -1.000000 0.000000 0.000000
vn -1.000000 0.000000 0.000000
vn -1.000000 0.000000 0.000000
vn 1.000000 0.000000 0.000000
vn 1.000000 0.000000 0.000000
vn 1.000000 0.000000 0.000000
vn 1.000000 0.000000 0.000000
vn 0.000000 0.000000 1.000000
vn 0.000000 0.000000 1.000000
vn 0.000000 0.000000 1.000000
vn 0.000000 0.000000 1.000000
vn 0.000011 0.000000 -1.000000
vn 0.000011 0.000000 -1.000000
vn 0.000011 0.000000 -1.000000
vn 0.000011 0.000000 -1.000000
vn -1.000000 0.000000 0.000000
vn -1.000000 0.000000 0.000000
vn -1.000000 0.000000 0.000000
vn -1.000000 0.000000 0.000000
vn 1.000000 0.000000 0.000000
vn 1.000000 0.000000 0.000000
vn 1.000000 0.000000 0.000000
vn 1.000000 0.000000 0.000000
vn -0.000011 0.000000 1.000000
vn -0.000011 0.000000 1.000000
vn -0.000011 0.000000 1.000000
vn -0.000011 0.000000 1.000000
vn 0.000011 0.000000 -1.000000
vn 0.000011 0.000000 -1.000000
vn 0.000011 0.000000 -1.000000
vn 0.000011 0.000000 -1.000000
vn -1.000000 0.000000 0.000000
vn -1.000000 0.000000 0.000000
vn -1.000000 0.000000 0.000000
vn -1.000000 0.000000 0.000000
vn 1.000000 0.000000 0.000000
vn 1.000000 0.000000 0.000000
vn 1.000000 0.000000 0.000000
vn 1.000000 0.000000 0.000000
vn -0.000011 0.000000 1.000000
vn -0.000011 0.000000 1.000000
vn -0.000011 0.000000 1.000000
vn -0.000011 0.000000 1.000000
s off
f 6/1/1 9/2/2 10/31/3 8/3/4
f 26/9/5 27/29/6 28/188/7 29/57/8
f 1/242/9 3/245/10 7/202/11 5/11/12
f 11/201/13 4/204/14 8/14/15 10/15/16
f 4/252/17 2/249/18 6/255/19 8/205/20
f 9/32/21 5/5/22 7/6/23 10/4/24
f 3/199/25 11/200/26 10/203/27 7/10/28
f 29/57/29 28/188/30 30/186/31 31/51/32
f 6/33/33 15/36/34 16/35/35 9/34/36
f 26/9/37 29/57/38 32/180/39 33/184/40
f 1/241/41 5/254/42 14/18/43 12/233/44
f 17/192/45 16/195/46 15/198/47 13/197/48
f 13/238/49 15/22/50 6/17/51 2/250/52
f 9/53/53 16/56/54 14/55/55 5/54/56
f 12/194/57 14/196/58 16/21/59 17/193/60
f 29/57/61 31/51/62 34/48/63 32/180/64
f 2/16/65 4/253/66 19/247/67 18/25/68
f 4/13/69 11/248/70 20/244/71 19/24/72
f 11/12/73 3/246/74 21/240/75 20/26/76
f 3/8/77 1/243/78 22/232/79 21/27/80
f 17/20/81 13/239/82 24/236/83 23/37/84
f 13/23/85 2/251/86 18/235/87 24/30/88
f 1/7/89 12/234/90 25/231/91 22/28/92
f 12/19/93 17/237/94 23/230/95 25/38/96
f 18/47/97 19/190/98 27/29/99 26/9/100
f 19/46/101 20/187/102 28/40/103 27/191/104
f 20/45/105 21/185/106 30/52/107 28/189/108
f 21/44/109 22/43/110 31/51/111 30/186/112
f 23/42/113 24/183/114 33/49/115 32/181/116
f 24/41/117 18/47/118 26/9/119 33/184/120
f 22/43/121 25/178/122 34/48/123 31/51/124
f 25/39/125 23/182/126 32/50/127 34/179/128
f 36/58/129 37/59/130 39/60/131 41/61/132
f 38/62/133 40/63/134 39/64/135 37/65/136
f 41/66/137 42/67/138 35/68/139 36/69/140
f 42/70/141 40/71/142 38/72/143 35/73/144
f 44/74/145 45/75/146 47/76/147 49/77/148
f 46/78/149 48/79/150 47/80/151 45/81/152
f 49/82/153 50/83/154 43/84/155 44/85/156
f 50/86/157 48/87/158 46/88/159 43/89/160
f 52/90/161 53/91/162 55/92/163 57/93/164
f 54/94/165 56/95/166 55/96/167 53/97/168
f 57/98/169 58/99/170 51/100/171 52/101/172
f 58/102/173 56/103/174 54/104/175 51/105/176
f 37/106/177 36/229/178 59/224/179 60/109/180
f 38/110/181 37/228/182 60/227/183 61/111/184
f 36/107/185 35/225/186 62/223/187 59/108/188
f 35/112/189 38/226/190 61/222/191 62/113/192
f 45/114/193 44/221/194 63/216/195 64/117/196
f 46/118/197 45/220/198 64/219/199 65/119/200
f 44/115/201 43/217/202 66/215/203 63/116/204
f 43/120/205 46/218/206 65/214/207 66/121/208
f 53/122/209 52/213/210 67/208/211 68/125/212
f 54/126/213 53/212/214 68/211/215 69/127/216
f 52/123/217 51/209/218 70/207/219 67/124/220
f 51/128/221 54/210/222 69/206/223 70/129/224
f 60/130/225 59/131/226 71/132/227 72/133/228
f 61/134/229 60/135/230 72/136/231 73/137/232
f 59/138/233 62/139/234 74/140/235 71/141/236
f 62/142/237 61/143/238 73/144/239 74/145/240
f 64/146/241 63/147/242 75/148/243 76/149/244
f 65/150/245 64/151/246 76/152/247 77/153/248
f 63/154/249 66/155/250 78/156/251 75/157/252
f 66/158/253 65/159/254 77/160/255 78/161/256
f 68/162/257 67/163/258 79/164/259 80/165/260
f 69/166/261 68/167/262 80/168/263 81/169/264
f 67/170/265 70/171/266 82/172/267 79/173/268
f 70/174/269 69/175/270 81/176/271 82/177/272
