# This file uses centimeters as units for non-parametric coordinates.

v -6.156698 0.000000 9.606277
v -3.213905 0.000000 10.865219
v -0.578413 0.000000 10.414871
v 1.814812 0.000000 8.724854
v -9.282644 0.000000 6.782227
v -6.568724 1.798241 7.615250
v -3.377123 3.069862 7.768738
v -0.537432 3.250160 7.640533
v 2.020103 2.653059 7.493225
v 4.389889 0.000000 6.890274
v -9.498980 0.000000 3.944229
v -6.952990 1.956067 4.039520
v -2.715712 4.662284 3.993973
v 0.223631 7.929469 3.922516
v 1.626274 7.934575 4.095917
v 4.714211 3.665160 5.020706
v 7.008717 0.000000 4.460983
v -9.451872 0.000000 1.433685
v -6.839052 2.112922 1.012253
v -2.847469 5.216685 0.604782
v 0.160196 7.931309 1.733200
v 1.619251 7.943151 2.044449
v 4.015594 4.807644 1.639694
v 7.098038 0.000000 1.849274
v -9.426376 0.000000 -0.929855
v -6.594517 2.292607 -1.381241
v -3.590748 4.437120 -2.169800
v -0.291636 6.289404 -1.725693
v 1.898750 5.447611 -1.616882
v 4.702843 5.230304 -1.935013
v 7.013165 4.492293 -1.133896
v 9.479870 0.000000 -0.786377
v -9.414129 0.000000 -3.608841
v -6.436123 2.836858 -4.122620
v -3.415249 4.112262 -4.528549
v -0.502573 0.000000 -4.656021
v 2.170485 4.381167 -4.632706
v 4.466995 5.143588 -4.120178
v 6.863724 5.243259 -3.773346
v 9.498093 0.000000 -3.535416
v -6.310413 0.000000 -6.495468
v -3.400824 0.000000 -6.732971
v 1.949650 0.000000 -5.851501
v 4.288376 5.090434 -5.211044
v 6.834602 5.186372 -5.148224
v 9.498978 0.000000 -5.169907
v 1.779541 0.000000 -8.039444
v 4.262882 3.842410 -7.467239
v 6.835693 3.863092 -7.410919
v 9.482754 0.000000 -7.454636
v 3.822594 0.000000 -10.865219
v 6.417870 0.000000 -10.743713
v 3.006805 5.176925 4.402832
v 1.830791 5.090502 5.290710
v -0.233465 5.141722 5.336243
vt 0.328579 0.288173
vt 0.328579 0.288173
vt 0.328579 0.288173
vt 0.328579 0.288173
vt 0.328579 0.288173
vt 0.328579 0.288173
vt 0.328579 0.288173
vt 0.328579 0.288173
vt 0.328579 0.288173
vt 0.328579 0.288173
vt 0.328579 0.288173
vt 0.328579 0.288173
vt 0.328579 0.288173
vt 0.328579 0.288173
vt 0.328579 0.288173
vt 0.328579 0.288173
vt 0.328579 0.288173
vt 0.328579 0.288173
vt 0.328579 0.288173
vt 0.328579 0.288173
vt 0.328579 0.288173
vt 0.328579 0.288173
vt 0.328579 0.288173
vt 0.328579 0.288173
vt 0.328579 0.288173
vt 0.328579 0.288173
vt 0.328579 0.288173
vt 0.328579 0.288173
vt 0.328579 0.288173
vt 0.328579 0.288173
vt 0.328579 0.288173
vt 0.328579 0.288173
vt 0.328579 0.288173
vt 0.328579 0.288173
vt 0.328579 0.288173
vt 0.328579 0.288173
vt 0.328579 0.288173
vt 0.328579 0.288173
vt 0.328579 0.288173
vt 0.328579 0.288173
vt 0.328579 0.288173
vt 0.328579 0.288173
vt 0.328579 0.288173
vt 0.328579 0.288173
vt 0.328579 0.288173
vt 0.328579 0.288173
vt 0.328579 0.288173
vt 0.328579 0.288173
vt 0.328579 0.288173
vt 0.328579 0.288173
vt 0.328579 0.288173
vt 0.328579 0.288173
vt 0.328579 0.288173
vt 0.328579 0.288173
vt 0.328579 0.288173
vt 0.328579 0.288173
vt 0.328579 0.288173
vt 0.328579 0.288173
vt 0.328579 0.288173
vt 0.328579 0.288173
vt 0.328579 0.288173
vt 0.328579 0.288173
vt 0.328579 0.288173
vt 0.328579 0.288173
vt 0.328579 0.288173
vt 0.328579 0.288173
vt 0.328579 0.288173
vt 0.328579 0.288173
vt 0.328579 0.288173
vt 0.328579 0.288173
vt 0.328579 0.288173
vt 0.328579 0.288173
vt 0.328579 0.288173
vt 0.328579 0.288173
vt 0.328579 0.288173
vt 0.328579 0.288173
vt 0.328579 0.288173
vt 0.328579 0.288173
vt 0.328579 0.288173
vt 0.328579 0.288173
vt 0.328579 0.288173
vt 0.328579 0.288173
vt 0.328579 0.288173
vt 0.328579 0.288173
vt 0.328579 0.288173
vt 0.328579 0.288173
vt 0.328579 0.288173
vt 0.328579 0.288173
vt 0.328579 0.288173
vt 0.328579 0.288173
vt 0.328579 0.288173
vt 0.328579 0.288173
vt 0.328579 0.288173
vt 0.328579 0.288173
vt 0.328579 0.288173
vt 0.328579 0.288173
vt 0.328579 0.288173
vt 0.328579 0.288173
vt 0.328579 0.288173
vt 0.328579 0.288173
vt 0.328579 0.288173
vt 0.328579 0.288173
vt 0.328579 0.288173
vt 0.328579 0.288173
vt 0.328579 0.288173
vt 0.328579 0.288173
vt 0.328579 0.288173
vt 0.328579 0.288173
vt 0.328579 0.288173
vt 0.328579 0.288173
vt 0.328579 0.288173
vt 0.328579 0.288173
vt 0.328579 0.288173
vt 0.328579 0.288173
vt 0.328579 0.288173
vt 0.328579 0.288173
vt 0.328579 0.288173
vt 0.328579 0.288173
vt 0.328579 0.288173
vt 0.328579 0.288173
vt 0.328579 0.288173
vt 0.328579 0.288173
vt 0.328579 0.288173
vt 0.328579 0.288173
vt 0.328579 0.288173
vt 0.328579 0.288173
vt 0.328579 0.288173
vt 0.328579 0.288173
vt 0.328579 0.288173
vt 0.328579 0.288173
vt 0.328579 0.288173
vt 0.328579 0.288173
vt 0.328579 0.288173
vt 0.328579 0.288173
vt 0.328579 0.288173
vt 0.328579 0.288173
vt 0.328579 0.288173
vt 0.328579 0.288173
vt 0.328579 0.288173
vt 0.328579 0.288173
vt 0.328579 0.288173
vt 0.328579 0.288173
vt 0.328579 0.288173
vt 0.328579 0.288173
vt 0.328579 0.288173
vt 0.328579 0.288173
vt 0.328579 0.288173
vt 0.328579 0.288173
vt 0.328579 0.288173
vt 0.328579 0.288173
vt 0.328579 0.288173
vt 0.328579 0.288173
vt 0.328579 0.288173
vt 0.328579 0.288173
vt 0.328579 0.288173
vt 0.328579 0.288173
vn -0.295610 0.673308 0.677695
vn -0.295610 0.673308 0.677695
vn -0.295610 0.673308 0.677695
vn -0.295610 0.673308 0.677695
vn 0.054850 0.680135 0.731033
vn 0.054850 0.680135 0.731032
vn 0.054850 0.680135 0.731033
vn 0.054850 0.680135 0.731033
vn 0.352100 0.515461 0.781233
vn 0.352100 0.515461 0.781233
vn 0.352100 0.515461 0.781233
vn 0.352100 0.515461 0.781233
vn -0.588045 0.805354 0.074884
vn -0.588045 0.805354 0.074884
vn -0.588045 0.805354 0.074884
vn -0.588045 0.805354 0.074884
vn -0.465723 0.864659 0.188327
vn -0.465723 0.864659 0.188327
vn -0.465723 0.864659 0.188327
vn -0.465723 0.864659 0.188327
vn -0.041358 0.923155 0.382196
vn -0.041358 0.923155 0.382196
vn -0.041358 0.923155 0.382196
vn 0.128826 0.713541 0.688668
vn 0.128826 0.713541 0.688668
vn 0.128826 0.713541 0.688668
vn 0.128826 0.713541 0.688668
vn 0.383390 0.651593 0.654552
vn 0.383390 0.651593 0.654552
vn 0.383390 0.651593 0.654552
vn 0.383390 0.651593 0.654553
vn -0.619121 0.785284 0.004238
vn -0.619121 0.785284 0.004238
vn -0.619121 0.785284 0.004238
vn -0.619121 0.785284 0.004238
vn -0.570942 0.815818 0.092018
vn -0.570942 0.815818 0.092018
vn -0.570942 0.815818 0.092018
vn -0.570942 0.815818 0.092018
vn -0.714285 0.693495 0.094142
vn -0.714285 0.693495 0.094142
vn -0.714285 0.693495 0.094142
vn -0.714285 0.693495 0.094142
vn -0.006356 0.999977 0.002561
vn -0.006356 0.999977 0.002561
vn -0.006356 0.999977 0.002561
vn -0.006356 0.999977 0.002561
vn 0.631050 0.765086 0.128138
vn 0.631050 0.765086 0.128138
vn 0.631050 0.765086 0.128138
vn 0.844522 0.535276 0.016183
vn 0.844522 0.535276 0.016183
vn 0.844522 0.535276 0.016183
vn 0.844522 0.535276 0.016183
vn -0.629626 0.776872 -0.006396
vn -0.629626 0.776872 -0.006396
vn -0.629626 0.776872 -0.006396
vn -0.629626 0.776872 -0.006396
vn -0.603515 0.796617 -0.034225
vn -0.603515 0.796617 -0.034225
vn -0.603515 0.796617 -0.034225
vn -0.603515 0.796617 -0.034225
vn -0.473990 0.872563 -0.118184
vn -0.473990 0.872563 -0.118184
vn -0.473990 0.872563 -0.118184
vn 0.246528 0.835334 -0.491366
vn 0.246528 0.835334 -0.491366
vn 0.246528 0.835334 -0.491366
vn 0.246528 0.835334 -0.491366
vn 0.091701 0.986690 0.134292
vn 0.091701 0.986690 0.134292
vn 0.091701 0.986690 0.134292
vn 0.249288 0.954980 0.160840
vn 0.249288 0.954980 0.160840
vn 0.249288 0.954980 0.160840
vn -0.655700 0.753018 0.054967
vn -0.655700 0.753018 0.054967
vn -0.655700 0.753018 0.054967
vn -0.655700 0.753018 0.054967
vn -0.492882 0.870081 0.005160
vn -0.492882 0.870081 0.005160
vn -0.492882 0.870081 0.005160
vn -0.492882 0.870081 0.005160
vn -0.467764 0.870218 -0.154654
vn -0.467764 0.870218 -0.154654
vn -0.467764 0.870218 -0.154654
vn 0.356297 0.890546 -0.282808
vn 0.356297 0.890546 -0.282808
vn 0.356297 0.890546 -0.282808
vn -0.226195 0.911770 -0.342798
vn -0.226195 0.911770 -0.342798
vn -0.226195 0.911771 -0.342798
vn -0.079901 0.957553 0.276963
vn -0.079901 0.957553 0.276963
vn -0.079901 0.957553 0.276963
vn 0.883867 0.465723 0.043382
vn 0.883867 0.465723 0.043382
vn 0.883867 0.465723 0.043382
vn 0.883867 0.465723 0.043382
vn -0.204095 0.535624 -0.819422
vn -0.204095 0.535624 -0.819422
vn -0.204095 0.535624 -0.819422
vn -0.204095 0.535624 -0.819422
vn -0.316191 0.948679 0.005548
vn -0.316191 0.948679 0.005548
vn -0.316191 0.948679 0.005548
vn -0.036072 0.998486 -0.041521
vn -0.036072 0.998486 -0.041521
vn -0.036072 0.998486 -0.041521
vn -0.036072 0.998486 -0.041521
vn 0.891553 0.452600 -0.016921
vn 0.891553 0.452600 -0.016921
vn 0.891553 0.452600 -0.016921
vn 0.891553 0.452600 -0.016921
vn -0.870214 0.482965 -0.097327
vn -0.870214 0.482965 -0.097327
vn -0.870214 0.482965 -0.097327
vn -0.870214 0.482965 -0.097327
vn -0.008291 0.869136 -0.494504
vn -0.008291 0.869136 -0.494504
vn -0.008291 0.869136 -0.494504
vn -0.008291 0.869136 -0.494504
vn 0.852363 0.501355 -0.148729
vn 0.852363 0.501355 -0.148729
vn 0.852363 0.501355 -0.148729
vn 0.852363 0.501355 -0.148729
vn 0.023325 0.656212 -0.754216
vn 0.023325 0.656212 -0.754216
vn 0.023325 0.656212 -0.754216
vn 0.023325 0.656212 -0.754216
vn 0.651994 0.453633 -0.607552
vn 0.651994 0.453633 -0.607552
vn 0.651994 0.453633 -0.607552
vn 0.674225 0.417349 0.609295
vn 0.674225 0.417349 0.609295
vn 0.674225 0.417349 0.609295
vn 0.648883 0.299396 0.699510
vn 0.648883 0.299396 0.699510
vn 0.648883 0.299396 0.699510
vn 0.550488 0.316106 0.772683
vn 0.550488 0.316106 0.772684
vn 0.550488 0.316106 0.772683
vn -0.557440 0.555458 0.617031
vn -0.557440 0.555458 0.617031
vn -0.557440 0.555458 0.617031
vn -0.422830 0.262595 -0.867328
vn -0.422830 0.262595 -0.867328
vn -0.422830 0.262595 -0.867328
vn -0.691515 0.521380 -0.499970
vn -0.691515 0.521380 -0.499970
vn -0.691515 0.521380 -0.499970
vn -0.588527 0.503206 -0.632787
vn -0.588527 0.503206 -0.632787
vn -0.588527 0.503206 -0.632787
vn 0.533604 0.401028 -0.744610
vn 0.533604 0.401028 -0.744610
vn 0.533604 0.401028 -0.744610
vn 0.721338 0.596681 -0.351628
vn 0.721338 0.596681 -0.351628
vn 0.721338 0.596681 -0.351628
vn 0.471997 0.359267 -0.805075
vn 0.471997 0.359267 -0.805075
vn 0.471997 0.359267 -0.805075
vn 0.071844 0.996294 -0.047291
vn 0.071844 0.996294 -0.047291
vn 0.071844 0.996294 -0.047291
vn 0.326249 0.942491 -0.072614
vn 0.326249 0.942491 -0.072614
vn 0.326249 0.942491 -0.072614
vn 0.635663 0.435349 0.637498
vn 0.635663 0.435349 0.637498
vn 0.635663 0.435349 0.637498
vn -0.430841 0.724560 0.537948
vn -0.430841 0.724560 0.537948
vn -0.430841 0.724560 0.537948
vn 0.835360 0.533153 0.133869
vn 0.835360 0.533153 0.133869
vn 0.835360 0.533153 0.133869
vn 0.835360 0.533153 0.133869
vn 0.545826 0.357587 0.757764
vn 0.545826 0.357587 0.757764
vn 0.545826 0.357587 0.757764
vn -0.027835 0.421147 0.906565
vn -0.027835 0.421147 0.906565
vn -0.027835 0.421147 0.906565
vn -0.027835 0.421147 0.906565
vn -0.489778 0.456872 0.742554
vn -0.489778 0.456872 0.742554
vn -0.489778 0.456872 0.742554
vn -0.580687 0.762247 -0.285977
vn -0.580687 0.762247 -0.285977
vn -0.580687 0.762247 -0.285977
vn -0.336310 0.268097 -0.902784
vn -0.336310 0.268097 -0.902784
vn -0.336310 0.268097 -0.902784
vn -0.582468 0.359259 -0.729153
vn -0.582468 0.359259 -0.729153
vn -0.582468 0.359259 -0.729153
vn 0.566005 0.334308 0.753576
vn 0.566005 0.334308 0.753576
vn 0.566005 0.334308 0.753576
s off
f 1/1/1 2/2/2 7/3/3 6/4/4
f 2/2/5 3/5/6 8/6/7 7/3/8
f 3/5/9 4/7/10 9/8/11 8/6/12
f 5/9/13 6/10/14 12/11/15 11/12/16
f 6/13/17 7/14/18 13/15/19 12/16/20
f 7/17/21 8/18/22 13/19/23
f 8/20/24 9/21/25 54/22/26 55/23/27
f 9/24/28 16/26/29 53/27/30 54/28/31
f 11/29/32 12/30/33 19/31/34 18/32/35
f 12/33/36 13/34/37 20/35/38 19/36/39
f 13/37/40 14/38/41 21/39/42 20/40/43
f 14/41/44 15/42/45 22/43/46 21/44/47
f 23/45/48 53/46/49 16/47/50
f 16/48/51 17/49/52 24/50/53 23/51/54
f 18/52/55 19/53/56 26/54/57 25/55/58
f 19/56/59 20/57/60 27/58/61 26/59/62
f 20/60/63 28/61/64 27/62/65
f 21/63/66 22/64/67 29/65/68 28/66/69
f 29/67/70 23/68/71 30/69/72
f 23/70/73 31/71/74 30/72/75
f 25/73/76 26/74/77 34/75/78 33/76/79
f 26/77/80 27/78/81 35/79/82 34/80/83
f 27/81/84 28/82/85 35/83/86
f 28/84/87 29/85/88 37/86/89
f 29/88/90 38/89/91 37/90/92
f 38/91/93 31/92/94 39/93/95
f 31/94/96 32/95/97 40/96/98 39/97/99
f 34/98/100 35/99/101 42/100/102 41/101/103
f 37/102/104 38/103/105 44/104/106
f 38/106/107 39/107/108 45/108/109 44/109/110
f 39/110/111 40/111/112 46/112/113 45/113/114
f 43/114/115 44/115/116 48/116/117 47/117/118
f 44/118/119 45/119/120 49/120/121 48/121/122
f 45/122/123 46/123/124 50/124/125 49/125/126
f 48/126/127 49/127/128 52/128/129 51/129/130
f 49/127/131 50/130/132 52/128/133
f 24/131/134 32/132/135 31/133/136
f 10/134/137 17/135/138 16/136/139
f 4/7/140 10/134/141 9/8/142
f 5/137/143 1/1/144 6/4/145
f 36/138/146 37/139/147 43/140/148
f 47/141/149 48/126/150 51/129/151
f 33/142/152 34/98/153 41/101/154
f 35/99/155 36/143/156 42/100/157
f 22/144/158 23/68/159 29/67/160
f 35/83/161 28/82/162 36/145/163
f 29/88/164 30/146/165 38/89/166
f 30/147/167 31/92/168 38/91/169
f 23/70/170 24/148/171 31/71/172
f 13/19/173 8/18/174 55/149/175
f 15/150/176 53/46/177 23/45/178 22/151/179
f 54/28/180 53/27/181 15/152/182
f 55/23/183 54/22/184 15/153/185 14/154/186
f 13/19/187 55/149/188 14/155/189
f 20/60/190 21/156/191 28/61/192
f 37/102/193 44/104/194 43/105/195
f 28/84/196 37/86/197 36/87/198
f 9/24/199 10/25/200 16/26/201
