# This file uses centimeters as units for non-parametric coordinates.

v -4.999990 0.000000 7.130872
v -4.999990 0.000000 0.000000
v 0.000000 0.000000 0.000000
v -4.999990 0.194796 7.130872
v -4.999990 0.194796 10.000000
v 0.000000 0.194796 10.000000
v -4.999990 0.000000 6.834678
v -2.499995 0.194796 10.000000
v -2.499995 0.194796 7.130872
v -2.499995 0.000000 7.130872
v 0.000000 0.000000 6.834678
v 0.000000 0.194796 7.130872
v 0.000000 0.000000 7.130872
v -4.999990 -0.000000 10.000000
v -2.499995 -0.000000 10.000000
v 0.000000 -0.000000 10.000000
vt 0.768910 0.393365
vt 0.925411 0.393365
vt 0.925411 0.393365
vt 0.756221 0.393365
vt 0.747658 0.393365
vt 0.634287 0.393365
vt 0.634287 0.393365
vt 0.634287 0.209146
vt 0.747658 0.209146
vt 0.756221 0.214060
vt 0.768910 0.393365
vt 0.747658 0.393365
vt 0.756221 0.393365
vt 0.756221 0.214060
vt 0.634287 0.209146
vt 0.747658 0.209146
vt 0.750426 0.245898
vt 0.752537 0.245898
vt 0.752537 0.248010
vt 0.750426 0.248010
vt 0.750426 0.245898
vt 0.752537 0.245898
vt 0.752537 0.248010
vt 0.750426 0.248010
vn 0.000000 1.000000 0.000000
vn 0.000000 1.000000 0.000000
vn 0.000000 1.000000 0.000000
vn 0.000000 1.000000 0.000000
vn 0.000000 1.000000 0.000000
vn 0.000000 1.000000 0.000000
vn 0.000000 0.000000 -1.000000
vn 0.000000 0.000000 -1.000000
vn 0.000000 0.000000 -1.000000
vn 0.000000 0.000000 -1.000000
vn 0.000000 0.000000 -1.000000
vn 0.000000 0.000000 -1.000000
vn 0.000000 1.000000 0.000000
vn 0.000000 1.000000 0.000000
vn 0.000000 1.000000 0.000000
vn 0.000000 1.000000 0.000000
vn 0.000000 1.000000 0.000000
vn 0.000000 1.000000 0.000000
vn 0.000000 1.000000 0.000000
vn 0.000000 1.000000 0.000000
vn 0.000000 1.000000 0.000000
vn 0.000000 1.000000 0.000000
vn 0.000000 1.000000 0.000000
vn 0.000000 1.000000 0.000000
vn 0.000000 1.000000 0.000000
vn 0.000000 1.000000 0.000000
vn 0.000000 1.000000 0.000000
vn 0.000000 0.000000 -1.000000
vn 0.000000 0.000000 -1.000000
vn 0.000000 0.000000 -1.000000
vn 0.000000 0.000000 -1.000000
vn 0.000000 0.000000 -1.000000
vn 0.000000 0.000000 -1.000000
vn 0.000000 0.000000 1.000000
vn 0.000000 0.000000 1.000000
vn 0.000000 0.000000 1.000000
vn 0.000000 0.000000 1.000000
vn 0.000000 0.000000 1.000000
vn 0.000000 0.000000 1.000000
vn 0.000000 0.000000 1.000000
vn 0.000000 0.000000 1.000000
vn 0.000000 0.000000 1.000000
vn 0.000000 0.000000 1.000000
vn 0.000000 0.000000 1.000000
vn 0.000000 0.000000 1.000000
vn 0.000000 1.000000 0.000000
vn 0.000000 1.000000 0.000000
vn 0.000000 1.000000 0.000000
vn 0.000000 1.000000 0.000000
vn 0.000000 1.000000 0.000000
vn 0.000000 1.000000 0.000000
s off
f 3/2/1 2/3/2 11/11/3
f 11/11/4 2/3/5 7/1/6
f 10/14/7 1/4/8 9/16/9
f 9/16/10 1/4/11 4/5/12
f 8/8/13 9/16/14 5/7/15
f 5/7/16 9/16/17 4/5/18
f 7/1/19 1/4/20 10/10/21
f 6/6/22 12/12/23 8/15/24
f 8/15/25 12/12/26 9/9/27
f 13/13/28 10/10/29 12/12/30
f 12/12/31 10/10/32 9/9/33
f 8/17/34 5/18/35 15/20/36
f 15/20/37 5/18/38 14/19/39
f 6/21/40 8/22/41 16/24/42
f 16/24/43 8/22/44 15/23/45
f 11/11/46 10/10/47 13/13/48
f 7/1/49 10/10/50 11/11/51
