# This file uses centimeters as units for non-parametric coordinates.

v -4.999990 0.000000 7.130872
v -4.999990 0.000000 0.000000
v 0.000000 0.000000 0.000000
v -4.999990 0.194796 7.130872
v -4.999990 0.194796 10.000000
v 0.000000 0.194796 10.000000
v -4.999990 0.000000 6.834678
v -2.499995 0.194796 10.000000
v -2.499995 0.194796 7.130872
v -2.499995 0.000000 7.130872
v -2.499995 0.000000 6.834678
v 0.000000 0.000000 6.834678
v 0.000000 0.194796 7.130872
v 0.000000 0.000000 7.130872
v -4.999990 0.000000 10.000000
v -2.499995 0.000000 10.000000
v 0.000000 0.000000 10.000000
v -3.518459 0.000000 0.000000
v -1.481531 0.000000 0.000000
v -3.518459 0.000000 0.444885
v -1.481531 0.000000 0.444885
vt 0.867438 0.326072
vt 0.874301 0.326072
vt 0.874301 0.326072
vt 0.756221 0.390399
vt 0.747658 0.390399
vt 0.633953 0.390399
vt 0.633953 0.390399
vt 0.633953 0.209146
vt 0.747658 0.209146
vt 0.756221 0.214060
vt 0.867437 0.280261
vt 0.768910 0.390399
vt 0.747658 0.390399
vt 0.756221 0.390399
vt 0.756221 0.214060
vt 0.768910 0.214060
vt 0.633953 0.209146
vt 0.747658 0.209146
vt 0.749985 0.259183
vt 0.751319 0.259183
vt 0.751319 0.268261
vt 0.749985 0.268261
vt 0.749985 0.259183
vt 0.751319 0.259183
vt 0.751319 0.268261
vt 0.749985 0.268261
vt 0.874301 0.298609
vt 0.874301 0.298609
vt 0.873220 0.298609
vt 0.873220 0.298609
vt 0.892747 0.122094
vt 0.892747 0.211475
vt 0.873160 0.211475
vt 0.873160 0.122094
vt 0.867438 0.326072
vt 0.768910 0.214060
vt 0.867437 0.280261
vt 0.768910 0.390399
vn 0.000000 1.000000 0.000000
vn 0.000000 1.000000 0.000000
vn 0.000000 1.000000 0.000000
vn 0.000000 1.000000 0.000000
vn 0.000000 1.000000 0.000000
vn 0.000000 1.000000 0.000000
vn 0.000000 1.000000 0.000000
vn 0.000000 1.000000 0.000000
vn 0.000000 1.000000 0.000000
vn 0.000000 0.000000 -1.000000
vn 0.000000 0.000000 -1.000000
vn 0.000000 0.000000 -1.000000
vn 0.000000 0.000000 -1.000000
vn 0.000000 0.000000 -1.000000
vn 0.000000 0.000000 -1.000000
vn 0.000000 1.000000 0.000000
vn 0.000000 1.000000 0.000000
vn 0.000000 1.000000 0.000000
vn 0.000000 1.000000 0.000000
vn 0.000000 1.000000 0.000000
vn 0.000000 1.000000 0.000000
vn 0.000000 1.000000 0.000000
vn 0.000000 1.000000 0.000000
vn 0.000000 1.000000 0.000000
vn 0.000000 1.000000 0.000000
vn 0.000000 1.000000 0.000000
vn 0.000000 1.000000 0.000000
vn 0.000000 1.000000 0.000000
vn 0.000000 1.000000 0.000000
vn 0.000000 1.000000 0.000000
vn 0.000000 1.000000 0.000000
vn 0.000000 1.000000 0.000000
vn 0.000000 1.000000 0.000000
vn 0.000000 0.000000 -1.000000
vn 0.000000 0.000000 -1.000000
vn 0.000000 0.000000 -1.000000
vn 0.000000 0.000000 -1.000000
vn 0.000000 0.000000 -1.000000
vn 0.000000 0.000000 -1.000000
vn 0.000000 1.000000 0.000000
vn 0.000000 1.000000 0.000000
vn 0.000000 1.000000 0.000000
vn 0.000000 1.000000 0.000000
vn 0.000000 1.000000 0.000000
vn 0.000000 1.000000 0.000000
vn 0.000000 1.000000 0.000000
vn 0.000000 1.000000 0.000000
vn 0.000000 1.000000 0.000000
vn 0.000000 0.000000 1.000000
vn 0.000000 0.000000 1.000000
vn 0.000000 0.000000 1.000000
vn 0.000000 0.000000 1.000000
vn 0.000000 0.000000 1.000000
vn 0.000000 0.000000 1.000000
vn 0.000000 0.000000 1.000000
vn 0.000000 0.000000 1.000000
vn 0.000000 0.000000 1.000000
vn 0.000000 0.000000 1.000000
vn 0.000000 0.000000 1.000000
vn 0.000000 0.000000 1.000000
vn 0.000000 1.000000 -0.000000
vn 0.000000 1.000000 0.000000
vn 0.000000 1.000000 -0.000000
vn 0.000000 1.000000 0.000000
vn 0.000000 1.000000 0.000000
vn 0.000000 1.000000 0.000000
vn 0.000000 1.000000 0.000000
vn 0.000000 1.000000 0.000000
vn 0.000000 1.000000 0.000000
vn 0.000000 1.000000 0.000000
vn 0.000000 1.000000 0.000000
vn 0.000000 1.000000 0.000000
vn 0.000000 1.000000 0.000000
vn 0.000000 1.000000 0.000000
vn 0.000000 1.000000 0.000000
s off
f 2/3/1 7/1/2 20/29/3
f 19/31/4 18/32/5 21/34/6
f 21/34/7 18/32/8 20/33/9
f 10/15/10 1/4/11 9/18/12
f 9/18/13 1/4/14 4/5/15
f 8/8/16 9/18/17 5/7/18
f 5/7/19 9/18/20 4/5/21
f 1/4/22 10/15/23 7/38/24
f 7/38/25 10/15/26 11/16/27
f 6/6/28 13/13/29 8/17/30
f 8/17/31 13/13/32 9/9/33
f 14/14/34 10/10/35 13/13/36
f 13/13/37 10/10/38 9/9/39
f 11/36/40 10/10/41 12/12/42
f 12/12/43 10/10/44 14/14/45
f 12/35/46 21/30/47 11/11/48
f 8/19/49 5/20/50 16/22/51
f 16/22/52 5/20/53 15/21/54
f 6/23/55 8/24/56 17/26/57
f 17/26/58 8/24/59 16/25/60
f 20/29/61 11/11/62 21/30/63
f 20/29/64 7/1/65 11/37/66
f 2/3/67 20/29/68 18/27/69
f 3/2/70 19/28/71 21/30/72
f 3/2/73 21/30/74 12/35/75
