# This file uses centimeters as units for non-parametric coordinates.

v -0.312677 0.000000 0.312676
v 0.312677 0.000000 0.312676
v -0.312677 3.041091 0.312676
v 0.312677 3.041091 0.312676
v -0.312677 3.041091 -0.312678
v 0.312677 3.041091 -0.312678
v -0.312677 0.000000 -0.312678
v 0.312677 0.000000 -0.312678
v -1.457155 3.041091 1.457155
v 1.457155 3.041091 1.457155
v 1.457155 3.041091 -1.457155
v -1.457155 3.041091 -1.457155
v -0.780645 4.913256 0.780641
v 0.780645 4.913256 0.780641
v 0.780645 4.913256 -0.780645
v -0.780645 4.913256 -0.780645
v -1.152706 4.913256 1.152705
v 1.152706 4.913256 1.152705
v 1.152706 4.913256 -1.152708
v -1.152706 4.913256 -1.152708
v -0.107416 8.208422 0.107416
v 0.107416 8.208422 0.107416
v 0.107416 8.208422 -0.107417
v -0.107416 8.208422 -0.107417
vt 0.328205 0.397201
vt 0.328205 0.397201
vt 0.328205 0.397201
vt 0.328205 0.397201
vt 0.328205 0.397201
vt 0.328205 0.397201
vt 0.328205 0.397201
vt 0.328205 0.397201
vt 0.328205 0.397200
vt 0.328205 0.397200
vt 0.293104 0.397201
vt 0.293104 0.397201
vt 0.293104 0.397201
vt 0.293104 0.397201
vt 0.293104 0.397201
vt 0.293104 0.397201
vt 0.293104 0.397201
vt 0.293104 0.397201
vt 0.172587 0.290282
vt 0.172587 0.290282
vt 0.172587 0.290282
vt 0.172587 0.290282
vt 0.172587 0.290282
vt 0.172587 0.290282
vt 0.172587 0.290282
vt 0.172587 0.290282
vt 0.172587 0.290282
vt 0.172587 0.290282
vt 0.172587 0.290282
vt 0.172587 0.290282
vt 0.172587 0.290282
vt 0.172587 0.290282
vt 0.172587 0.290282
vt 0.172587 0.290282
vt 0.269297 0.290282
vt 0.269297 0.290282
vt 0.269297 0.290283
vt 0.269297 0.290283
vt 0.244201 0.291474
vt 0.244201 0.291474
vt 0.244201 0.291474
vt 0.244201 0.291474
vt 0.269297 0.290282
vt 0.269297 0.290282
vt 0.269297 0.290283
vt 0.269297 0.290283
vt 0.244201 0.291474
vt 0.244201 0.291474
vt 0.244201 0.291474
vt 0.244201 0.291474
vt 0.172587 0.290283
vt 0.172587 0.290283
vt 0.172587 0.290283
vt 0.172587 0.290283
vt 0.172587 0.290283
vt 0.172587 0.290283
vt 0.172587 0.290283
vt 0.172587 0.290283
vt 0.172587 0.290283
vt 0.172587 0.290283
vt 0.172587 0.290283
vt 0.172587 0.290283
vt 0.172587 0.290283
vt 0.172587 0.290283
vt 0.172587 0.290283
vt 0.172587 0.290283
vt 0.269297 0.290283
vt 0.269297 0.290283
vt 0.269297 0.290282
vt 0.269297 0.290282
vt 0.244201 0.291474
vt 0.244201 0.291474
vt 0.244201 0.291473
vt 0.244201 0.291473
vt 0.269297 0.290283
vt 0.269297 0.290283
vt 0.269297 0.290282
vt 0.269297 0.290282
vt 0.244201 0.291474
vt 0.244201 0.291474
vt 0.244201 0.291473
vt 0.244201 0.291473
vn 0.000000 0.000000 1.000000
vn 0.000000 0.000000 1.000000
vn 0.000000 0.000000 1.000000
vn 0.000000 0.000000 1.000000
vn 0.000000 0.000000 -1.000000
vn 0.000000 0.000000 -1.000000
vn 0.000000 0.000000 -1.000000
vn 0.000000 0.000000 -1.000000
vn 0.000000 -1.000000 0.000000
vn 0.000000 -1.000000 0.000000
vn 0.000000 -1.000000 0.000000
vn 0.000000 -1.000000 0.000000
vn 1.000000 0.000000 0.000000
vn 1.000000 0.000000 0.000000
vn 1.000000 0.000000 0.000000
vn 1.000000 0.000000 0.000000
vn -1.000000 0.000000 0.000000
vn -1.000000 0.000000 0.000000
vn -1.000000 0.000000 0.000000
vn -1.000000 0.000000 0.000000
vn 0.000000 -1.000000 -0.000000
vn 0.000000 -1.000000 -0.000000
vn 0.000000 -1.000000 -0.000000
vn 0.000000 -1.000000 -0.000000
vn 0.000000 -1.000000 0.000000
vn 0.000000 -1.000000 0.000000
vn 0.000000 -1.000000 0.000000
vn 0.000000 -1.000000 0.000000
vn 0.000000 -1.000000 0.000000
vn 0.000000 -1.000000 0.000000
vn 0.000000 -1.000000 0.000000
vn 0.000000 -1.000000 0.000000
vn 0.000000 -1.000000 0.000000
vn 0.000000 -1.000000 0.000000
vn 0.000000 -1.000000 0.000000
vn 0.000000 -1.000000 0.000000
vn 0.000000 0.339846 0.940481
vn 0.000000 0.339846 0.940481
vn 0.000000 0.339846 0.940481
vn 0.000000 0.339846 0.940481
vn 0.940482 0.339845 0.000000
vn 0.940482 0.339845 0.000000
vn 0.940482 0.339845 0.000000
vn 0.940482 0.339845 0.000000
vn 0.000000 0.339844 -0.940482
vn 0.000000 0.339844 -0.940482
vn 0.000000 0.339844 -0.940482
vn 0.000000 0.339844 -0.940482
vn -0.940482 0.339845 0.000000
vn -0.940482 0.339845 0.000000
vn -0.940482 0.339845 0.000000
vn -0.940482 0.339845 0.000000
vn 0.000000 -1.000000 -0.000000
vn 0.000000 -1.000000 -0.000000
vn 0.000000 -1.000000 -0.000000
vn 0.000000 -1.000000 -0.000000
vn 0.000000 -1.000000 0.000000
vn 0.000000 -1.000000 0.000000
vn 0.000000 -1.000000 0.000000
vn 0.000000 -1.000000 0.000000
vn 0.000000 -1.000000 0.000000
vn 0.000000 -1.000000 0.000000
vn 0.000000 -1.000000 0.000000
vn 0.000000 -1.000000 0.000000
vn 0.000000 -1.000000 0.000000
vn 0.000000 -1.000000 0.000000
vn 0.000000 -1.000000 0.000000
vn 0.000000 -1.000000 0.000000
vn 0.000000 0.302370 0.953191
vn 0.000000 0.302370 0.953191
vn 0.000000 0.302370 0.953191
vn 0.000000 0.302370 0.953191
vn 0.953191 0.302370 0.000000
vn 0.953191 0.302370 0.000000
vn 0.953191 0.302370 0.000000
vn 0.953191 0.302370 0.000000
vn 0.000000 0.302370 -0.953191
vn 0.000000 0.302370 -0.953191
vn 0.000000 0.302370 -0.953191
vn 0.000000 0.302370 -0.953191
vn -0.953191 0.302370 0.000000
vn -0.953191 0.302370 0.000000
vn -0.953191 0.302370 0.000000
vn -0.953191 0.302370 0.000000
vn 0.000000 1.000000 0.000000
vn 0.000000 1.000000 0.000000
vn 0.000000 1.000000 0.000000
vn 0.000000 1.000000 0.000000
s off
f 1/1/1 2/2/2 4/3/3 3/4/4
f 5/5/5 6/6/6 8/7/7 7/8/8
f 7/8/9 8/7/10 2/9/11 1/10/12
f 2/11/13 8/12/14 6/13/15 4/14/16
f 7/15/17 1/16/18 3/17/19 5/18/20
f 3/19/21 4/20/22 10/21/23 9/22/24
f 4/23/25 6/24/26 11/25/27 10/26/28
f 6/27/29 5/28/30 12/29/31 11/30/32
f 5/31/33 3/32/34 9/33/35 12/34/36
f 9/35/37 10/36/38 14/37/39 13/38/40
f 10/39/41 11/40/42 15/41/43 14/42/44
f 11/43/45 12/44/46 16/45/47 15/46/48
f 12/47/49 9/48/50 13/49/51 16/50/52
f 13/51/53 14/52/54 18/53/55 17/54/56
f 14/55/57 15/56/58 19/57/59 18/58/60
f 15/59/61 16/60/62 20/61/63 19/62/64
f 16/63/65 13/64/66 17/65/67 20/66/68
f 17/67/69 18/68/70 22/69/71 21/70/72
f 18/71/73 19/72/74 23/73/75 22/74/76
f 19/75/77 20/76/78 24/77/79 23/78/80
f 20/79/81 17/80/82 21/81/83 24/82/84
f 24/77/85 21/70/86 22/69/87 23/78/88
