# This file uses centimeters as units for non-parametric coordinates.

v -3.037212 0.000000 1.184623
v 3.037212 0.000000 1.184623
v -3.037212 2.282699 1.184623
v 3.037212 2.282699 1.184623
v -3.037212 2.282699 -0.101761
v 3.037212 2.282699 -0.101761
v -3.037212 0.000000 -1.886403
v 3.037212 0.000000 -1.886403
v -1.446003 1.251832 1.184623
v 1.446003 1.251832 1.184623
v 1.446003 1.812245 1.184623
v -1.446003 1.812245 1.184623
v -1.012202 1.251832 1.184623
v -1.012202 1.812245 1.184623
v 1.012202 1.251832 1.184623
v 1.012202 1.812245 1.184623
v -1.446003 1.251832 1.530369
v -1.012202 1.251832 1.530369
v -1.012202 1.812245 1.530369
v -1.446003 1.812245 1.530369
v 1.012202 1.251832 1.530369
v 1.012202 1.812245 1.530369
v 1.446003 1.251832 1.530369
v 1.446003 1.812245 1.530369
v -1.537488 1.133646 1.530369
v -0.920717 1.133646 1.530369
v -0.920717 1.930431 1.530369
v -1.537488 1.930431 1.530369
v 0.920717 1.133646 1.530369
v 0.920717 1.930431 1.530369
v 1.537488 1.133646 1.530369
v 1.537488 1.930431 1.530369
v -1.537488 1.133646 1.886403
v -0.920717 1.133646 1.886403
v -0.920717 1.930431 1.886403
v -1.537488 1.930431 1.886403
v 0.920717 1.133646 1.886403
v 0.920717 1.930431 1.886403
v 1.537488 1.133646 1.886403
v 1.537488 1.930431 1.886403
v 0.000000 0.000000 1.184623
vt 0.330487 0.061277
vt 0.294527 0.061277
vt 0.385330 0.061277
vt 0.330486 0.061277
vt 0.363577 0.061277
vt 0.385330 0.061277
vt 0.257731 0.061277
vt 0.363577 0.061277
vt 0.257731 0.061277
vt 0.257731 0.061277
vt 0.330486 0.061277
vt 0.330486 0.061277
vt 0.330486 0.061277
vt 0.330486 0.061277
vt 0.385330 0.061277
vt 0.363577 0.061277
vt 0.294527 0.061277
vt 0.385330 0.061277
vt 0.257731 0.061277
vt 0.363577 0.061277
vt 0.330486 0.061277
vt 0.294527 0.061277
vt 0.294527 0.061277
vt 0.330487 0.061277
vt 0.139538 0.087362
vt 0.176183 0.087362
vt 0.235077 0.087362
vt 0.176183 0.087362
vt 0.176183 0.087362
vt 0.235077 0.087362
vt 0.139538 0.087362
vt 0.176183 0.087362
vt 0.202358 0.087362
vt 0.202358 0.087362
vt 0.202358 0.087362
vt 0.202358 0.087362
vt 0.202358 0.087362
vt 0.202358 0.087362
vt 0.202358 0.087362
vt 0.202358 0.087362
vt 0.139538 0.087362
vt 0.176183 0.087362
vt 0.235077 0.087362
vt 0.176183 0.087362
vt 0.176183 0.087362
vt 0.139538 0.087362
vt 0.176183 0.087362
vt 0.235077 0.087362
vt 0.202358 0.087362
vt 0.176183 0.087362
vt 0.235077 0.087362
vt 0.176183 0.087362
vt 0.202358 0.087362
vt 0.139538 0.087362
vt 0.176183 0.087362
vt 0.235077 0.087362
vt 0.235077 0.087362
vt 0.176183 0.087362
vt 0.202358 0.087362
vt 0.235077 0.087362
vt 0.235077 0.087362
vt 0.176183 0.087362
vt 0.235077 0.087362
vt 0.202358 0.087362
vt 0.235077 0.087362
vt 0.235077 0.087362
vt 0.294527 0.061277
vt 0.235077 0.087362
vt 0.235077 0.087362
vt 0.235077 0.087362
vt 0.235077 0.087362
vt 0.294527 0.061277
vt 0.139538 0.087362
vt 0.202358 0.087362
vt 0.176183 0.087362
vt 0.202358 0.087362
vt 0.176183 0.087362
vt 0.176183 0.087362
vt 0.202358 0.087362
vt 0.176183 0.087362
vt 0.176183 0.087362
vt 0.202358 0.087362
vt 0.202358 0.087362
vt 0.139538 0.087362
vt 0.202358 0.087362
vt 0.176183 0.087362
vt 0.202358 0.087362
vt 0.176183 0.087362
vt 0.176183 0.087362
vt 0.176183 0.087362
vt 0.176183 0.087362
vt 0.294527 0.061277
vt 0.176183 0.087362
vt 0.176183 0.087362
vt 0.294527 0.061277
vt 0.176183 0.087362
vt 0.176183 0.087362
vt 0.176183 0.087362
vt 0.294527 0.061277
vt 0.176183 0.087362
vt 0.176183 0.087362
vt 0.176183 0.087362
vt 0.294527 0.061277
vt 0.176183 0.087362
vt 0.202358 0.087362
vt 0.202358 0.087362
vt 0.139538 0.087362
vt 0.202358 0.087362
vt 0.139538 0.087362
vt 0.202358 0.087362
vt 0.139538 0.087362
vt 0.202358 0.087362
vt 0.139538 0.087362
vt 0.139538 0.087362
vt 0.139538 0.087362
vt 0.294527 0.061277
vt 0.139538 0.087362
vt 0.139538 0.087362
vt 0.139538 0.087362
vt 0.294527 0.061277
vt 0.202358 0.087362
vt 0.202358 0.087362
vt 0.202358 0.087362
vt 0.202358 0.087362
vt 0.202358 0.087362
vt 0.202358 0.087362
vt 0.202358 0.087362
vt 0.202358 0.087362
vt 0.202358 0.087362
vt 0.202358 0.087362
vt 0.202358 0.087362
vt 0.202358 0.087362
vt 0.202358 0.087362
vt 0.202358 0.087362
vt 0.202358 0.087362
vt 0.202358 0.087362
vt 0.294527 0.061277
vt 0.257731 0.061277
vn 0.000000 0.000000 1.000000
vn 0.000000 0.000000 1.000000
vn 0.000000 0.000000 1.000000
vn 0.000000 0.000000 1.000000
vn 0.000000 1.000000 0.000000
vn 0.000000 1.000000 0.000000
vn 0.000000 1.000000 0.000000
vn 0.000000 1.000000 0.000000
vn 0.000000 0.615919 -0.787809
vn 0.000000 0.615919 -0.787809
vn 0.000000 0.615919 -0.787809
vn 0.000000 0.615919 -0.787809
vn 0.000000 -1.000000 0.000000
vn 0.000000 -1.000000 0.000000
vn 0.000000 -1.000000 0.000000
vn 0.000000 -1.000000 0.000000
vn 0.000000 -1.000000 0.000000
vn 1.000000 0.000000 0.000000
vn 1.000000 0.000000 0.000000
vn 1.000000 0.000000 0.000000
vn 1.000000 0.000000 0.000000
vn -1.000000 0.000000 0.000000
vn -1.000000 0.000000 0.000000
vn -1.000000 0.000000 0.000000
vn -1.000000 0.000000 0.000000
vn 0.000000 0.000000 1.000000
vn 0.000000 0.000000 1.000000
vn 0.000000 0.000000 1.000000
vn 0.000000 0.000000 1.000000
vn 0.000000 0.000000 1.000000
vn 0.000000 0.000000 1.000000
vn 0.000000 0.000000 1.000000
vn 0.000000 0.000000 1.000000
vn 0.000000 0.000000 1.000000
vn 0.000000 0.000000 1.000000
vn 0.000000 0.000000 1.000000
vn 0.000000 0.000000 1.000000
vn 0.000000 0.000000 1.000000
vn 0.000000 0.000000 1.000000
vn 0.000000 0.000000 1.000000
vn 0.000000 0.000000 1.000000
vn 0.000000 0.000000 1.000000
vn 0.000000 0.000000 1.000000
vn 0.000000 0.000000 1.000000
vn 0.000000 0.000000 1.000000
vn 0.000000 0.000000 1.000000
vn 0.000000 0.000000 1.000000
vn 0.000000 0.000000 1.000000
vn 0.000000 0.000000 1.000000
vn 0.000000 0.000000 1.000000
vn 0.000000 0.000000 1.000000
vn 0.000000 0.000000 1.000000
vn 0.000000 0.000000 1.000000
vn 0.000000 0.000000 1.000000
vn 0.000000 -1.000000 0.000000
vn 0.000000 -1.000000 0.000000
vn 0.000000 -1.000000 0.000000
vn 0.000000 -1.000000 0.000000
vn 1.000000 0.000000 0.000000
vn 1.000000 0.000000 0.000000
vn 1.000000 0.000000 0.000000
vn 1.000000 0.000000 0.000000
vn 0.000000 1.000000 0.000000
vn 0.000000 1.000000 0.000000
vn 0.000000 1.000000 0.000000
vn 0.000000 1.000000 0.000000
vn -1.000000 0.000000 0.000000
vn -1.000000 0.000000 0.000000
vn -1.000000 0.000000 0.000000
vn -1.000000 0.000000 0.000000
vn -1.000000 0.000000 0.000000
vn -1.000000 0.000000 0.000000
vn -1.000000 0.000000 0.000000
vn -1.000000 0.000000 0.000000
vn 0.000000 -1.000000 0.000000
vn 0.000000 -1.000000 0.000000
vn 0.000000 -1.000000 0.000000
vn 0.000000 -1.000000 0.000000
vn 1.000000 0.000000 0.000000
vn 1.000000 0.000000 0.000000
vn 1.000000 0.000000 0.000000
vn 1.000000 0.000000 0.000000
vn 0.000000 1.000000 0.000000
vn 0.000000 1.000000 0.000000
vn 0.000000 1.000000 0.000000
vn 0.000000 1.000000 0.000000
vn 0.000000 0.000000 -1.000000
vn 0.000000 0.000000 -1.000000
vn 0.000000 0.000000 -1.000000
vn 0.000000 0.000000 -1.000000
vn 0.000001 0.000000 -1.000000
vn 0.000001 0.000000 -1.000000
vn 0.000001 0.000000 -1.000000
vn 0.000001 0.000000 -1.000000
vn 0.000000 0.000000 -1.000000
vn 0.000000 0.000000 -1.000000
vn 0.000000 0.000000 -1.000000
vn 0.000000 0.000000 -1.000000
vn 0.000000 0.000000 -1.000000
vn 0.000000 0.000000 -1.000000
vn 0.000000 0.000000 -1.000000
vn 0.000000 0.000000 -1.000000
vn 0.000000 0.000000 -1.000000
vn 0.000000 0.000000 -1.000000
vn 0.000000 0.000000 -1.000000
vn 0.000000 0.000000 -1.000000
vn 0.000000 0.000000 -1.000000
vn 0.000000 0.000000 -1.000000
vn 0.000000 0.000000 -1.000000
vn 0.000000 0.000000 -1.000000
vn 0.000001 0.000000 -1.000000
vn 0.000001 0.000000 -1.000000
vn 0.000001 0.000000 -1.000000
vn 0.000001 0.000000 -1.000000
vn 0.000000 0.000000 -1.000000
vn 0.000000 0.000000 -1.000000
vn 0.000000 0.000000 -1.000000
vn 0.000000 0.000000 -1.000000
vn 0.000000 -1.000000 0.000000
vn 0.000000 -1.000000 0.000000
vn 0.000000 -1.000000 0.000000
vn 0.000000 -1.000000 0.000000
vn 1.000000 0.000000 0.000000
vn 1.000000 0.000000 0.000000
vn 1.000000 0.000000 0.000000
vn 1.000000 0.000000 0.000000
vn 0.000000 1.000000 0.000000
vn 0.000000 1.000000 0.000000
vn 0.000000 1.000000 0.000000
vn 0.000000 1.000000 0.000000
vn -1.000000 0.000000 0.000000
vn -1.000000 0.000000 0.000000
vn -1.000000 0.000000 0.000000
vn -1.000000 0.000000 0.000000
vn -1.000000 0.000000 0.000000
vn -1.000000 0.000000 0.000000
vn -1.000000 0.000000 0.000000
vn -1.000000 0.000000 0.000000
vn 0.000000 -1.000000 0.000000
vn 0.000000 -1.000000 0.000000
vn 0.000000 -1.000000 0.000000
vn 0.000000 -1.000000 0.000000
vn 1.000000 0.000000 0.000000
vn 1.000000 0.000000 0.000000
vn 1.000000 0.000000 0.000000
vn 1.000000 0.000000 0.000000
vn 0.000000 1.000000 0.000000
vn 0.000000 1.000000 0.000000
vn 0.000000 1.000000 0.000000
vn 0.000000 1.000000 0.000000
s off
f 15/116/1 16/95/2 14/72/3 13/103/4
f 3/3/5 4/15/6 6/6/7 5/18/8
f 5/5/9 6/16/10 8/8/11 7/20/12
f 7/7/13 8/19/14 2/10/15 41/138/16 1/9/17
f 2/21/18 8/11/19 6/12/20 4/4/21
f 7/13/22 1/1/23 3/24/24 5/14/25
f 1/23/26 41/137/27 2/2/28 10/92/29 15/116/30 13/103/31 9/120/32
f 2/2/33 4/22/34 11/67/35 10/92/36
f 4/22/37 3/17/38 12/99/39 14/72/40 16/95/41 11/67/42
f 3/17/43 1/23/44 9/120/45 12/99/46
f 33/49/47 34/110/48 35/85/49 36/82/50
f 38/53/51 37/105/52 39/106/53 40/74/54
f 9/25/55 13/119/56 18/118/57 17/117/58
f 13/29/59 14/102/60 19/101/61 18/100/62
f 14/30/63 12/71/64 20/69/65 19/70/66
f 12/28/67 9/104/68 17/97/69 20/98/70
f 16/32/71 15/96/72 21/93/73 22/94/74
f 15/31/75 10/115/76 23/114/77 21/113/78
f 10/26/79 11/91/80 24/90/81 23/89/82
f 11/27/83 16/68/84 22/65/85 24/66/86
f 17/33/87 18/135/88 26/127/89 25/112/90
f 18/34/91 19/134/92 27/126/93 26/87/94
f 19/35/95 20/133/96 28/125/97 27/64/98
f 20/36/99 17/136/100 25/128/101 28/83/102
f 22/37/103 21/132/104 29/124/105 30/79/106
f 21/38/107 23/130/108 31/122/109 29/108/110
f 23/39/111 24/129/112 32/121/113 31/76/114
f 24/40/115 22/131/116 30/123/117 32/59/118
f 25/41/119 26/111/120 34/84/121 33/109/122
f 26/42/123 27/86/124 35/62/125 34/50/126
f 27/43/127 28/63/128 36/61/129 35/51/130
f 28/44/131 25/88/132 33/81/133 36/52/134
f 30/45/135 29/80/136 37/77/137 38/78/138
f 29/46/139 31/107/140 39/73/141 37/54/142
f 31/47/143 32/75/144 40/58/145 39/55/146
f 32/48/147 30/60/148 38/57/149 40/56/150
