# This file uses centimeters as units for non-parametric coordinates.

v 2.078339 0.000000 6.137573
v 2.078339 0.000000 -6.137573
v 2.078339 4.692770 6.137573
v 2.078339 4.692770 -6.137573
v -2.078323 4.692770 6.137573
v -2.078331 4.692770 -6.137573
v -2.078323 0.000000 6.137573
v -2.078331 0.000000 -6.137573
v -1.757095 4.692770 6.137573
v 1.763351 4.692770 6.137573
v -1.757095 0.000000 6.137573
v 1.763351 0.000000 6.137573
v -1.757103 0.000000 -6.137573
v 1.763359 0.000000 -6.137573
v -1.757103 4.692770 -6.137573
v 1.763359 4.692770 -6.137573
v -2.078331 4.692770 -5.764458
v -2.078323 4.692770 5.764458
v 2.078339 0.000000 -5.764458
v 2.078339 0.000000 5.764458
v -2.078323 0.000000 5.764458
v -2.078331 0.000000 -5.764458
v 2.078339 4.692770 5.764458
v 2.078339 4.692770 -5.764458
v 1.763359 4.692770 -5.764458
v 1.763351 4.692770 5.764458
v -1.757095 4.692770 5.764458
v -1.757103 4.692770 -5.764458
v -1.757103 0.000000 -5.764458
v -1.757095 0.000000 5.764458
v 1.763351 0.000000 5.764458
v 1.763359 0.000000 -5.764458
v 1.763351 4.282132 6.137573
v 1.763351 0.410638 6.137573
v -1.757095 0.410638 6.137573
v -1.757095 4.282132 6.137573
v -1.757103 4.282132 -6.137573
v -1.757103 0.410638 -6.137573
v 1.763359 0.410638 -6.137573
v 1.763359 4.282132 -6.137573
v 2.078339 0.410638 -6.137573
v 2.078339 4.282132 -6.137573
v 2.078339 4.282132 6.137573
v 2.078339 0.410638 6.137573
v -2.078323 0.410638 6.137573
v -2.078323 4.282132 6.137573
v -2.078331 4.282132 -6.137573
v -2.078331 0.410638 -6.137573
v -2.078323 4.282132 5.764458
v -2.078323 0.410638 5.764458
v -2.078331 0.410638 -5.764458
v -2.078331 4.282132 -5.764458
v 2.078339 4.282132 -5.764458
v 2.078339 0.410638 -5.764458
v 2.078339 0.410638 5.764458
v 2.078339 4.282132 5.764458
vt 0.174294 0.171444
vt 0.174294 0.171444
vt 0.174294 0.171444
vt 0.174294 0.171444
vt 0.019293 0.171444
vt 0.019293 0.171444
vt 0.019293 0.171444
vt 0.019293 0.171444
vt 0.019293 0.171444
vt 0.019293 0.171444
vt 0.019293 0.171444
vt 0.019293 0.171444
vt 0.174294 0.171444
vt 0.174294 0.171444
vt 0.174294 0.171444
vt 0.174294 0.171444
vt 0.310585 0.979615
vt 0.792834 0.979614
vt 0.792834 0.980630
vt 0.310585 0.980630
vt 0.312292 0.986769
vt 0.792852 0.986769
vt 0.792852 0.987886
vt 0.312292 0.987886
vt 0.174294 0.171444
vt 0.174294 0.171444
vt 0.019293 0.171444
vt 0.019293 0.171444
vt 0.019293 0.171444
vt 0.019293 0.171444
vt 0.174294 0.171444
vt 0.174294 0.171444
vt 0.174294 0.171444
vt 0.019293 0.171444
vt 0.019293 0.171444
vt 0.174294 0.171444
vt 0.174294 0.171444
vt 0.174294 0.171444
vt 0.019293 0.171444
vt 0.019293 0.171444
vt 0.111535 0.171444
vt 0.111535 0.171444
vt 0.111535 0.171444
vt 0.111535 0.171444
vt 0.001838 0.972361
vt 0.001838 0.863405
vt 0.113862 0.863405
vt 0.113862 0.972361
vt 0.111535 0.171444
vt 0.111535 0.171444
vt 0.111535 0.171444
vt 0.111535 0.171444
vt 0.111535 0.171444
vt 0.111535 0.171444
vt 0.111535 0.171444
vt 0.111535 0.171444
vt 0.114044 0.863119
vt 0.114044 0.972740
vt 0.001337 0.972740
vt 0.001337 0.863119
vt 0.111535 0.171444
vt 0.111535 0.171444
vt 0.111535 0.171444
vt 0.111535 0.171444
vt 0.142689 0.171444
vt 0.142689 0.171444
vt 0.142689 0.171444
vt 0.142689 0.171444
vt 0.142689 0.171444
vt 0.142689 0.171444
vt 0.142689 0.171444
vt 0.142689 0.171444
vt 0.142689 0.171444
vt 0.142689 0.171444
vt 0.142689 0.171444
vt 0.142689 0.171444
vt 0.142689 0.171444
vt 0.142689 0.171444
vt 0.142689 0.171444
vt 0.142689 0.171444
vt 0.792683 0.994033
vt 0.792683 0.996642
vt 0.310304 0.996642
vt 0.310304 0.994033
vt 0.792782 0.993591
vt 0.792782 0.995745
vt 0.310376 0.995745
vt 0.310376 0.993591
vt 0.111535 0.171444
vt 0.111535 0.171444
vt 0.111535 0.171444
vt 0.111535 0.171444
vt 0.111535 0.171444
vt 0.111535 0.171444
vt 0.111535 0.171444
vt 0.111535 0.171444
vt 0.111535 0.171444
vt 0.111535 0.171444
vt 0.111535 0.171444
vt 0.111535 0.171444
vt 0.111535 0.171444
vt 0.111535 0.171444
vt 0.111535 0.171444
vt 0.111535 0.171444
vt 0.142689 0.171444
vt 0.142689 0.171444
vt 0.142689 0.171444
vt 0.142689 0.171444
vt 0.142689 0.171444
vt 0.142689 0.171444
vt 0.142689 0.171444
vt 0.142689 0.171444
vt 0.142689 0.171444
vt 0.142689 0.171444
vt 0.142689 0.171444
vt 0.142689 0.171444
vt 0.142689 0.171444
vt 0.142689 0.171444
vt 0.142689 0.171444
vt 0.142689 0.171444
vn 0.000000 1.000000 0.000000
vn 0.000000 1.000000 0.000000
vn 0.000000 1.000000 0.000000
vn 0.000000 1.000000 0.000000
vn 0.000000 -1.000000 0.000000
vn 0.000000 -1.000000 0.000000
vn 0.000000 -1.000000 0.000000
vn 0.000000 -1.000000 0.000000
vn 0.000000 -1.000000 0.000000
vn 0.000000 -1.000000 0.000000
vn 0.000000 -1.000000 0.000000
vn 0.000000 -1.000000 0.000000
vn 0.000000 1.000000 0.000000
vn 0.000000 1.000000 0.000000
vn 0.000000 1.000000 0.000000
vn 0.000000 1.000000 0.000000
vn 0.000000 1.000000 0.000000
vn 0.000000 1.000000 0.000000
vn 0.000000 1.000000 0.000000
vn 0.000000 1.000000 0.000000
vn 0.000000 -1.000000 0.000000
vn 0.000000 -1.000000 0.000000
vn 0.000000 -1.000000 0.000000
vn 0.000000 -1.000000 0.000000
vn 0.000000 1.000000 0.000000
vn 0.000000 1.000000 0.000000
vn 0.000000 1.000000 0.000000
vn 0.000000 1.000000 0.000000
vn 0.000000 -1.000000 0.000000
vn 0.000000 -1.000000 0.000000
vn 0.000000 -1.000000 0.000000
vn 0.000000 -1.000000 0.000000
vn 0.000000 -1.000000 0.000000
vn 0.000000 -1.000000 0.000000
vn 0.000000 -1.000000 0.000000
vn 0.000000 -1.000000 0.000000
vn 0.000000 1.000000 0.000000
vn 0.000000 1.000000 0.000000
vn 0.000000 1.000000 0.000000
vn 0.000000 1.000000 0.000000
vn 0.000000 1.000000 0.000000
vn 0.000000 1.000000 0.000000
vn 0.000000 1.000000 0.000000
vn 0.000000 1.000000 0.000000
vn 0.000000 -1.000000 0.000000
vn 0.000000 -1.000000 0.000000
vn 0.000000 -1.000000 0.000000
vn 0.000000 -1.000000 0.000000
vn 0.000000 -1.000000 0.000000
vn 0.000000 -1.000000 0.000000
vn 0.000000 -1.000000 0.000000
vn 0.000000 -1.000000 0.000000
vn 0.000000 1.000000 0.000000
vn 0.000000 1.000000 0.000000
vn 0.000000 1.000000 0.000000
vn 0.000000 1.000000 0.000000
vn 0.000000 1.000000 0.000000
vn 0.000000 1.000000 0.000000
vn 0.000000 1.000000 0.000000
vn 0.000000 1.000000 0.000000
vn 0.000000 1.000000 0.000000
vn 0.000000 1.000000 0.000000
vn 0.000000 1.000000 0.000000
vn 0.000000 1.000000 0.000000
vn 0.000000 -1.000000 0.000000
vn 0.000000 -1.000000 0.000000
vn 0.000000 -1.000000 0.000000
vn 0.000000 -1.000000 0.000000
vn 0.000000 -1.000000 0.000000
vn 0.000000 -1.000000 0.000000
vn 0.000000 -1.000000 0.000000
vn 0.000000 -1.000000 0.000000
vn 0.000000 0.000000 1.000000
vn 0.000000 0.000000 1.000000
vn 0.000000 0.000000 1.000000
vn 0.000000 0.000000 1.000000
vn 0.000000 0.000000 1.000000
vn 0.000000 0.000000 1.000000
vn 0.000000 0.000000 1.000000
vn 0.000000 0.000000 1.000000
vn 0.000000 0.000000 1.000000
vn 0.000000 0.000000 1.000000
vn 0.000000 0.000000 1.000000
vn 0.000000 0.000000 1.000000
vn 0.000000 0.000000 -1.000000
vn 0.000000 0.000000 -1.000000
vn 0.000000 0.000000 -1.000000
vn 0.000000 0.000000 -1.000000
vn 0.000000 0.000000 -1.000000
vn 0.000000 0.000000 -1.000000
vn 0.000000 0.000000 -1.000000
vn 0.000000 0.000000 -1.000000
vn 0.000000 0.000000 -1.000000
vn 0.000000 0.000000 -1.000000
vn 0.000000 0.000000 -1.000000
vn 0.000000 0.000000 -1.000000
vn 1.000000 0.000000 0.000000
vn 1.000000 0.000000 0.000000
vn 1.000000 0.000000 0.000000
vn 1.000000 0.000000 0.000000
vn 1.000000 0.000000 0.000000
vn 1.000000 0.000000 0.000000
vn 1.000000 0.000000 0.000000
vn 1.000000 0.000000 0.000000
vn -1.000000 0.000000 0.000000
vn -1.000000 0.000000 0.000000
vn -1.000000 0.000000 0.000000
vn -1.000000 0.000000 0.000000
vn -1.000000 0.000000 0.000000
vn -1.000000 0.000000 0.000000
vn -1.000000 0.000000 0.000000
vn -1.000000 0.000000 0.000000
vn -1.000000 0.000000 0.000001
vn -1.000000 0.000000 0.000001
vn -1.000000 0.000000 0.000001
vn -1.000000 0.000000 0.000001
vn 1.000000 0.000000 0.000000
vn 1.000000 0.000000 0.000000
vn 1.000000 0.000000 0.000000
vn 1.000000 0.000000 0.000000
vn 0.000000 0.000000 1.000000
vn 0.000000 0.000000 1.000000
vn 0.000000 0.000000 1.000000
vn 0.000000 0.000000 1.000000
vn 0.000000 0.000000 1.000000
vn 0.000000 0.000000 1.000000
vn 0.000000 0.000000 1.000000
vn 0.000000 0.000000 1.000000
vn 0.000000 0.000000 -1.000000
vn 0.000000 0.000000 -1.000000
vn 0.000000 0.000000 -1.000000
vn 0.000000 0.000000 -1.000000
vn 0.000000 0.000000 -1.000000
vn 0.000000 0.000000 -1.000000
vn 0.000000 0.000000 -1.000000
vn 0.000000 0.000000 -1.000000
vn 0.000000 0.000000 -1.000000
vn 0.000000 0.000000 -1.000000
vn 0.000000 0.000000 -1.000000
vn 0.000000 0.000000 -1.000000
vn 0.000000 0.000000 1.000000
vn 0.000000 0.000000 1.000000
vn 0.000000 0.000000 1.000000
vn 0.000000 0.000000 1.000000
vn 0.000000 0.000000 1.000000
vn 0.000000 0.000000 1.000000
vn 0.000000 0.000000 1.000000
vn 0.000000 0.000000 1.000000
vn 0.000000 0.000000 -1.000000
vn 0.000000 0.000000 -1.000000
vn 0.000000 0.000000 -1.000000
vn 0.000000 0.000000 -1.000000
vn 0.000000 0.000000 1.000000
vn 0.000000 0.000000 1.000000
vn 0.000000 0.000000 1.000000
vn 0.000000 0.000000 1.000000
vn 0.000000 0.000000 1.000000
vn 0.000000 0.000000 1.000000
vn 0.000000 0.000000 1.000000
vn 0.000000 0.000000 1.000000
vn 0.000000 0.000000 -1.000000
vn 0.000000 0.000000 -1.000000
vn 0.000000 0.000000 -1.000000
vn 0.000000 0.000000 -1.000000
vn 0.000000 0.000000 -1.000000
vn 0.000000 0.000000 -1.000000
vn 0.000000 0.000000 -1.000000
vn 0.000000 0.000000 -1.000000
vn -1.000000 0.000000 0.000001
vn -1.000000 0.000000 0.000001
vn -1.000000 0.000000 0.000001
vn -1.000000 0.000000 0.000001
vn -1.000000 0.000000 0.000001
vn -1.000000 0.000000 0.000001
vn -1.000000 0.000000 0.000001
vn -1.000000 0.000000 0.000001
vn 1.000000 0.000000 0.000000
vn 1.000000 0.000000 0.000000
vn 1.000000 0.000000 0.000000
vn 1.000000 0.000000 0.000000
vn 1.000000 0.000000 0.000000
vn 1.000000 0.000000 0.000000
vn 1.000000 0.000000 0.000000
vn 1.000000 0.000000 0.000000
vn 1.000000 0.000000 0.000000
vn 1.000000 0.000000 0.000000
vn 1.000000 0.000000 0.000000
vn 1.000000 0.000000 0.000000
vn -1.000000 0.000000 0.000000
vn -1.000000 0.000000 0.000000
vn -1.000000 0.000000 0.000000
vn -1.000000 0.000000 0.000000
vn -1.000000 0.000000 0.000000
vn -1.000000 0.000000 0.000000
vn -1.000000 0.000000 0.000000
vn -1.000000 0.000000 0.000000
vn 1.000000 0.000000 0.000000
vn 1.000000 0.000000 0.000000
vn 1.000000 0.000000 0.000000
vn 1.000000 0.000000 0.000000
vn -1.000000 0.000000 0.000000
vn -1.000000 0.000000 0.000000
vn -1.000000 0.000000 0.000000
vn -1.000000 0.000000 0.000000
vn -1.000000 0.000000 0.000000
vn -1.000000 0.000000 0.000000
vn -1.000000 0.000000 0.000000
vn -1.000000 0.000000 0.000000
vn 1.000000 0.000000 0.000000
vn 1.000000 0.000000 0.000000
vn 1.000000 0.000000 0.000000
vn 1.000000 0.000000 0.000000
vn 1.000000 0.000000 0.000000
vn 1.000000 0.000000 0.000000
vn 1.000000 0.000000 0.000000
vn 1.000000 0.000000 0.000000
s off
f 17/1/1 18/2/2 27/3/3 28/4/4
f 19/5/5 20/6/6 31/7/7 32/8/8
f 21/9/9 22/10/10 29/11/11 30/12/12
f 23/13/13 24/14/14 25/15/15 26/16/16
f 28/17/17 27/18/18 26/19/19 25/20/20
f 30/21/21 29/22/22 32/23/23 31/24/24
f 27/3/25 9/25/26 10/26/27 26/16/28
f 11/27/29 30/12/30 31/7/31 12/28/32
f 29/11/33 13/29/34 14/30/35 32/8/36
f 16/31/37 15/32/38 28/4/39 25/15/40
f 3/33/41 23/13/42 26/16/43 10/26/44
f 12/28/45 31/7/46 20/6/47 1/34/48
f 7/35/49 21/9/50 30/12/51 11/27/52
f 9/25/53 27/3/54 18/2/55 5/36/56
f 24/14/57 4/37/58 16/31/59 25/15/60
f 17/1/61 28/4/62 15/32/63 6/38/64
f 29/11/65 22/10/66 8/39/67 13/29/68
f 19/5/69 32/8/70 14/30/71 2/40/72
f 33/41/73 34/42/74 44/43/75 43/44/76
f 36/45/77 35/46/78 34/47/79 33/48/80
f 35/49/81 36/50/82 46/51/83 45/52/84
f 37/53/85 38/54/86 48/55/87 47/56/88
f 38/57/89 37/58/90 40/59/91 39/60/92
f 39/61/93 40/62/94 42/63/95 41/64/96
f 41/65/97 42/66/98 53/67/99 54/68/100
f 43/69/101 44/70/102 55/71/103 56/72/104
f 45/73/105 46/74/106 49/75/107 50/76/108
f 47/77/109 48/78/110 51/79/111 52/80/112
f 50/81/113 49/82/114 52/83/115 51/84/116
f 54/85/117 53/86/118 56/87/119 55/88/120
f 9/89/121 36/50/122 33/41/123 10/90/124
f 35/49/125 11/91/126 12/92/127 34/42/128
f 13/93/129 38/54/130 39/61/131 14/94/132
f 37/53/133 15/95/134 16/96/135 40/62/136
f 2/97/137 14/94/138 39/61/139 41/64/140
f 12/92/141 1/98/142 44/43/143 34/42/144
f 7/99/145 11/91/146 35/49/147 45/52/148
f 38/54/149 13/93/150 8/100/151 48/55/152
f 33/41/153 43/44/154 3/101/155 10/90/156
f 46/51/157 36/50/158 9/89/159 5/102/160
f 15/95/161 37/53/162 47/56/163 6/103/164
f 42/63/165 40/62/166 16/96/167 4/104/168
f 18/105/169 17/106/170 52/80/171 49/75/172
f 50/76/173 51/79/174 22/107/175 21/108/176
f 20/109/177 19/110/178 54/68/179 55/71/180
f 56/72/181 53/67/182 24/111/183 23/112/184
f 1/113/185 20/109/186 55/71/187 44/70/188
f 45/73/189 50/76/190 21/108/191 7/114/192
f 22/107/193 51/79/194 48/78/195 8/115/196
f 54/68/197 19/110/198 2/116/199 41/65/200
f 5/117/201 18/105/202 49/75/203 46/74/204
f 47/77/205 52/80/206 17/106/207 6/118/208
f 24/111/209 53/67/210 42/66/211 4/119/212
f 43/69/213 56/72/214 23/112/215 3/120/216
