# This file uses centimeters as units for non-parametric coordinates.

v -2.650886 0.000000 0.386326
v -2.650886 0.000000 -0.386326
v -2.876223 3.065341 0.160988
v -2.876223 3.065341 -0.160988
v -3.198200 3.065341 0.160988
v -3.198200 3.065341 -0.160988
v -3.423537 0.000000 0.386326
v -3.423537 0.000000 -0.386326
v -3.423537 0.488353 0.386326
v -2.650886 0.488353 0.386326
v -2.650886 0.488353 -0.386326
v -3.423537 0.488353 -0.386326
v -2.876223 0.635784 -0.160988
v -2.876223 0.635784 0.160988
v -3.198200 0.635784 0.160988
v -3.198200 0.635784 -0.160988
v 3.976381 1.928571 0.107071
v 3.976381 1.928571 -0.109924
v 3.976381 2.928571 0.107071
v 3.976381 2.928571 -0.109924
v -3.976381 2.928571 0.107071
v -3.976381 2.928571 -0.109924
v -3.976381 1.928571 0.107071
v -3.976381 1.928571 -0.109924
v 3.423537 0.000000 0.386326
v 3.423537 0.000000 -0.386326
v 3.198200 3.065341 0.160988
v 3.198200 3.065341 -0.160988
v 2.876223 3.065341 0.160988
v 2.876223 3.065341 -0.160988
v 2.650886 0.000000 0.386326
v 2.650886 0.000000 -0.386326
v 2.650886 0.488353 0.386326
v 3.423537 0.488353 0.386326
v 3.423537 0.488353 -0.386326
v 2.650886 0.488353 -0.386326
v 3.198200 0.635784 -0.160988
v 3.198200 0.635784 0.160988
v 2.876223 0.635784 0.160988
v 2.876223 0.635784 -0.160988
vt 0.227542 0.478454
vt 0.191583 0.478454
vt 0.258484 0.478454
vt 0.227542 0.478454
vt 0.191583 0.478454
vt 0.258484 0.478454
vt 0.154787 0.478454
vt 0.191583 0.478454
vt 0.154787 0.478454
vt 0.154787 0.478454
vt 0.227542 0.478454
vt 0.227542 0.478454
vt 0.227542 0.478454
vt 0.227542 0.478454
vt 0.258484 0.478454
vt 0.191583 0.478454
vt 0.191583 0.478454
vt 0.258484 0.478454
vt 0.154787 0.478454
vt 0.191583 0.478454
vt 0.227542 0.478454
vt 0.191583 0.478454
vt 0.191583 0.478454
vt 0.227542 0.478454
vt 0.256793 0.478454
vt 0.191583 0.478454
vt 0.227542 0.478454
vt 0.191583 0.478454
vt 0.191583 0.478454
vt 0.227542 0.478454
vt 0.220833 0.478454
vt 0.227542 0.478454
vt 0.220833 0.478454
vt 0.256793 0.478454
vt 0.227542 0.478454
vt 0.191583 0.478454
vt 0.227542 0.478454
vt 0.191583 0.478454
vt 0.191583 0.478454
vt 0.227542 0.478454
vt 0.220833 0.478454
vt 0.256793 0.478454
vt 0.191583 0.478454
vt 0.227542 0.478454
vt 0.256793 0.478454
vt 0.220833 0.478454
vt 0.220833 0.478454
vt 0.256793 0.478454
vt 0.191583 0.478454
vt 0.256793 0.478454
vt 0.227542 0.478454
vt 0.220833 0.478454
vt 0.220833 0.478454
vt 0.256793 0.478454
vt 0.256793 0.478454
vt 0.220833 0.478454
vt 0.139765 0.477805
vt 0.173826 0.477805
vt 0.173825 0.477805
vt 0.139764 0.477805
vt 0.139765 0.477805
vt 0.105703 0.477805
vt 0.117866 0.894849
vt 0.139764 0.477805
vt 0.227542 0.478454
vt 0.227542 0.478454
vt 0.227542 0.478454
vt 0.227542 0.478454
vt 0.191583 0.478454
vt 0.191583 0.478454
vt 0.191583 0.478454
vt 0.191583 0.478454
vt 0.227542 0.478454
vt 0.227542 0.478454
vt 0.227542 0.478454
vt 0.227542 0.478454
vt 0.191583 0.478454
vt 0.191583 0.478454
vt 0.220833 0.478454
vt 0.220833 0.478454
vt 0.220833 0.478454
vt 0.220833 0.478454
vt 0.258484 0.478454
vt 0.258484 0.478454
vt 0.258484 0.478454
vt 0.258484 0.478454
vt 0.220833 0.478454
vt 0.220833 0.478454
vt 0.220833 0.478454
vt 0.220833 0.478454
vt 0.154787 0.478454
vt 0.154787 0.478454
vt 0.154787 0.478454
vt 0.154787 0.478454
vt 0.256793 0.478454
vt 0.256793 0.478454
vt 0.256793 0.478454
vt 0.256793 0.478454
vt 0.256793 0.478454
vt 0.256793 0.478454
vt 0.256793 0.478454
vt 0.256793 0.478454
vt 0.227542 0.478454
vt 0.227542 0.478454
vt 0.227542 0.478454
vt 0.227542 0.478454
vt 0.191583 0.478454
vt 0.191583 0.478454
vt 0.191583 0.478454
vt 0.191583 0.478454
vt 0.227542 0.478454
vt 0.227542 0.478454
vt 0.227542 0.478454
vt 0.227542 0.478454
vt 0.191583 0.478454
vt 0.191583 0.478454
vt 0.191583 0.478454
vt 0.191583 0.478454
vt 0.191583 0.478454
vt 0.191583 0.478454
vt 0.117866 0.931801
vt 0.139764 0.477805
vt 0.139764 0.477805
vt 0.173825 0.477805
vt 0.139765 0.477805
vt 0.173826 0.477805
vt 0.105703 0.477805
vt 0.139765 0.477805
vt 0.105703 0.477805
vt 0.335444 0.931801
vt 0.335444 0.894849
vt 0.105703 0.477805
vt 0.117866 0.931801
vt 0.335444 0.931801
vt 0.335444 0.894849
vt 0.117866 0.894849
vn 0.547497 0.836808 0.000000
vn 0.547497 0.836808 0.000000
vn 0.547497 0.836808 0.000000
vn 0.547497 0.836808 0.000000
vn 0.000000 1.000000 0.000000
vn 0.000000 1.000000 0.000000
vn 0.000000 1.000000 0.000000
vn 0.000000 1.000000 0.000000
vn -0.547497 0.836807 0.000000
vn -0.547497 0.836807 0.000000
vn -0.547497 0.836807 0.000000
vn -0.547497 0.836807 0.000000
vn 0.000000 -1.000000 0.000000
vn 0.000000 -1.000000 0.000000
vn 0.000000 -1.000000 0.000000
vn 0.000000 -1.000000 0.000000
vn 0.000000 0.836809 -0.547496
vn 0.000000 0.836809 -0.547496
vn 0.000000 0.836809 -0.547496
vn 0.000000 0.836809 -0.547496
vn 0.000000 0.836809 0.547496
vn 0.000000 0.836809 0.547496
vn 0.000000 0.836809 0.547496
vn 0.000000 0.836809 0.547496
vn 0.000000 0.000000 1.000000
vn 0.000000 0.000000 1.000000
vn 0.000000 0.000000 1.000000
vn 0.000000 0.000000 1.000000
vn 1.000000 0.000000 0.000000
vn 1.000000 0.000000 0.000000
vn 1.000000 0.000000 0.000000
vn 1.000000 0.000000 0.000000
vn 0.000000 0.000000 -1.000000
vn 0.000000 0.000000 -1.000000
vn 0.000000 0.000000 -1.000000
vn 0.000000 0.000000 -1.000000
vn -1.000000 0.000000 0.000000
vn -1.000000 0.000000 0.000000
vn -1.000000 0.000000 0.000000
vn -1.000000 0.000000 0.000000
vn 1.000000 0.000000 0.000000
vn 1.000000 0.000000 0.000000
vn 1.000000 0.000000 0.000000
vn 1.000000 0.000000 0.000000
vn 0.000000 0.000000 1.000000
vn 0.000000 0.000000 1.000000
vn 0.000000 0.000000 1.000000
vn 0.000000 0.000000 1.000000
vn -1.000000 0.000000 0.000000
vn -1.000000 0.000000 0.000000
vn -1.000000 0.000000 0.000000
vn -1.000000 0.000000 0.000000
vn 0.000000 0.000000 -1.000000
vn 0.000000 0.000000 -1.000000
vn 0.000000 0.000000 -1.000000
vn 0.000000 0.000000 -1.000000
vn 1.000000 0.000000 0.000000
vn 1.000000 0.000000 0.000000
vn 1.000000 0.000000 0.000000
vn 1.000000 0.000000 0.000000
vn 0.000000 0.000000 1.000000
vn 0.000000 0.000000 1.000000
vn 0.000000 0.000000 1.000000
vn 0.000000 0.000000 1.000000
vn 0.000000 -1.000000 0.000000
vn 0.000000 -1.000000 0.000000
vn 0.000000 -1.000000 0.000000
vn 0.000000 -1.000000 0.000000
vn -1.000000 0.000000 0.000000
vn -1.000000 0.000000 0.000000
vn -1.000000 0.000000 0.000000
vn -1.000000 0.000000 0.000000
vn 0.000000 0.000000 -1.000000
vn 0.000000 0.000000 -1.000000
vn 0.000000 0.000000 -1.000000
vn 0.000000 0.000000 -1.000000
vn 0.547497 0.836808 0.000000
vn 0.547497 0.836808 0.000000
vn 0.547497 0.836807 0.000000
vn 0.547497 0.836807 0.000000
vn 0.000000 1.000000 0.000000
vn 0.000000 1.000000 0.000000
vn 0.000000 1.000000 0.000000
vn 0.000000 1.000000 0.000000
vn -0.547497 0.836808 0.000000
vn -0.547497 0.836808 0.000000
vn -0.547497 0.836808 0.000000
vn -0.547497 0.836808 0.000000
vn 0.000000 -1.000000 0.000000
vn 0.000000 -1.000000 0.000000
vn 0.000000 -1.000000 0.000000
vn 0.000000 -1.000000 0.000000
vn 0.000000 0.836809 -0.547496
vn 0.000000 0.836809 -0.547496
vn 0.000000 0.836809 -0.547496
vn 0.000000 0.836809 -0.547496
vn 0.000000 0.836809 0.547496
vn 0.000000 0.836809 0.547496
vn 0.000000 0.836809 0.547496
vn 0.000000 0.836809 0.547496
vn 0.000000 0.000000 1.000000
vn 0.000000 0.000000 1.000000
vn 0.000000 0.000000 1.000000
vn 0.000000 0.000000 1.000000
vn 1.000000 0.000000 0.000000
vn 1.000000 0.000000 0.000000
vn 1.000000 0.000000 0.000000
vn 1.000000 0.000000 0.000000
vn 0.000000 0.000000 -1.000000
vn 0.000000 0.000000 -1.000000
vn 0.000000 0.000000 -1.000000
vn 0.000000 0.000000 -1.000000
vn -1.000000 0.000000 0.000000
vn -1.000000 0.000000 0.000000
vn -1.000000 0.000000 0.000000
vn -1.000000 0.000000 0.000000
vn 1.000000 0.000000 0.000000
vn 1.000000 0.000000 0.000000
vn 1.000000 0.000000 0.000000
vn 1.000000 0.000000 0.000000
vn 0.000000 0.000000 1.000000
vn 0.000000 0.000000 1.000000
vn 0.000000 0.000000 1.000000
vn 0.000000 0.000000 1.000000
vn -1.000000 0.000000 0.000000
vn -1.000000 0.000000 0.000000
vn -1.000000 0.000000 0.000000
vn -1.000000 0.000000 0.000000
vn 0.000000 0.000000 -1.000000
vn 0.000000 0.000000 -1.000000
vn 0.000000 0.000000 -1.000000
vn 0.000000 0.000000 -1.000000
vn 0.000000 1.000000 0.000000
vn 0.000000 1.000000 0.000000
vn 0.000000 1.000000 0.000000
vn 0.000000 1.000000 0.000000
s off
f 10/56/1 11/53/2 13/33/3 14/47/4
f 3/3/5 4/15/6 6/6/7 5/18/8
f 15/46/9 16/41/10 12/31/11 9/52/12
f 7/7/13 8/19/14 2/10/15 1/9/16
f 11/54/17 12/50/18 16/42/19 13/34/20
f 9/25/21 10/55/22 14/48/23 15/45/24
f 7/13/25 1/1/26 10/27/27 9/51/28
f 1/23/29 2/2/30 11/29/31 10/28/32
f 2/21/33 8/11/34 12/32/35 11/30/36
f 9/26/37 12/49/38 8/8/39 7/20/40
f 14/36/41 13/43/42 4/22/43 3/17/44
f 15/37/45 14/35/46 3/24/47 5/14/48
f 5/5/49 6/16/50 16/39/51 15/38/52
f 13/44/53 16/40/54 6/12/55 4/4/56
f 18/125/57 20/57/58 19/128/59 17/61/60
f 17/63/61 19/121/62 21/130/63 23/131/64
f 23/129/65 24/62/66 18/132/67 17/127/68
f 21/123/69 22/64/70 24/122/71 23/60/72
f 22/133/73 20/134/74 18/135/75 24/136/76
f 34/79/77 35/80/78 37/81/79 38/82/80
f 27/83/81 28/84/82 30/85/83 29/86/84
f 39/87/85 40/88/86 36/89/87 33/90/88
f 31/91/89 32/92/90 26/93/91 25/94/92
f 35/95/93 36/96/94 40/97/95 37/98/96
f 33/99/97 34/100/98 38/101/99 39/102/100
f 31/103/101 25/104/102 34/105/103 33/106/104
f 25/107/105 26/108/106 35/109/107 34/110/108
f 26/111/109 32/112/110 36/113/111 35/114/112
f 33/115/113 36/116/114 32/117/115 31/118/116
f 38/119/117 37/120/118 28/78/119 27/77/120
f 39/76/121 38/75/122 27/74/123 29/73/124
f 29/72/125 30/71/126 40/70/127 39/69/128
f 37/68/129 40/67/130 30/66/131 28/65/132
f 20/126/133 22/124/134 21/59/135 19/58/136
