# This file uses centimeters as units for non-parametric coordinates.

v 1.862691 3.669313 0.000304
v 1.862691 0.000000 0.000304
v -1.853724 3.669313 0.000304
v -1.853724 0.000000 0.000304
v 1.862691 3.669313 0.000304
v 1.862691 0.000000 0.000304
v -1.853724 3.669313 0.000304
v -1.853724 0.000000 0.000304
vt -2.177364 0.500000
vt 0.500000 -2.177364
vt 3.177364 0.500000
vt 0.500000 3.177364
vt -2.177364 0.500000
vt 0.500000 3.177364
vt 3.177364 0.500000
vt 0.500000 -2.177364
vn 0.000000 0.000000 -1.000000
vn 0.000000 0.000000 -1.000000
vn 0.000000 0.000000 -1.000000
vn 0.000000 0.000000 -1.000000
vn -0.000000 0.000000 1.000000
vn -0.000000 0.000000 1.000000
vn -0.000000 0.000000 1.000000
vn -0.000000 0.000000 1.000000
s off
f 1/1/1 2/2/2 4/3/3 3/4/4
f 5/5/5 7/6/6 8/7/7 6/8/8
