# This file uses centimeters as units for non-parametric coordinates.

v -1.430873 10.082162 39.874626
v -1.279580 10.082162 39.874626
v -1.430873 10.233455 39.874626
v -1.279580 10.233455 39.874626
v -1.430873 10.233455 0.125458
v -1.279580 10.233455 0.125458
v -1.430873 10.082162 0.125458
v -1.279580 10.082162 0.125458
v 0.282252 10.082162 39.874626
v 0.433544 10.082162 39.874626
v 0.282252 10.233455 39.874626
v 0.433544 10.233455 39.874626
v 0.282252 10.233455 0.125458
v 0.433544 10.233455 0.125458
v 0.282252 10.082162 0.125458
v 0.433544 10.082162 0.125458
vt 0.272628 0.478454
vt 0.303570 0.478454
vt 0.272628 0.478454
vt 0.303570 0.478454
vt 0.199873 0.478454
vt 0.199873 0.478454
vt 0.199873 0.478454
vt 0.272628 0.478454
vt 0.272628 0.478454
vt 0.272628 0.478454
vt 0.272628 0.478454
vt 0.303570 0.478454
vt 0.303570 0.478454
vt 0.199873 0.478454
vt 0.272628 0.478454
vt 0.272628 0.478454
vt 0.303570 0.478454
vt 0.303570 0.478454
vt 0.303570 0.478454
vt 0.303570 0.478454
vt 0.199873 0.478454
vt 0.199873 0.478454
vt 0.199873 0.478454
vt 0.199873 0.478454
vt 0.272628 0.478454
vt 0.272628 0.478454
vt 0.272628 0.478454
vt 0.272628 0.478454
vt 0.272628 0.478454
vt 0.272628 0.478454
vt 0.272628 0.478454
vt 0.272628 0.478454
vn 0.000000 1.000000 0.000000
vn 0.000000 1.000000 0.000000
vn 0.000000 1.000000 0.000000
vn 0.000000 1.000000 0.000000
vn 0.000000 -1.000000 0.000000
vn 0.000000 -1.000000 0.000000
vn 0.000000 -1.000000 0.000000
vn 0.000000 -1.000000 0.000000
vn 1.000000 0.000000 0.000000
vn 1.000000 0.000000 0.000000
vn 1.000000 0.000000 0.000000
vn 1.000000 0.000000 0.000000
vn -1.000000 0.000000 0.000000
vn -1.000000 0.000000 0.000000
vn -1.000000 0.000000 0.000000
vn -1.000000 0.000000 0.000000
vn 0.000000 1.000000 0.000000
vn 0.000000 1.000000 0.000000
vn 0.000000 1.000000 0.000000
vn 0.000000 1.000000 0.000000
vn 0.000000 -1.000000 0.000000
vn 0.000000 -1.000000 0.000000
vn 0.000000 -1.000000 0.000000
vn 0.000000 -1.000000 0.000000
vn 1.000000 0.000000 0.000000
vn 1.000000 0.000000 0.000000
vn 1.000000 0.000000 0.000000
vn 1.000000 0.000000 0.000000
vn -1.000000 0.000000 0.000000
vn -1.000000 0.000000 0.000000
vn -1.000000 0.000000 0.000000
vn -1.000000 0.000000 0.000000
s off
f 3/2/1 4/12/2 6/4/3 5/13/4
f 7/5/5 8/14/6 2/7/7 1/6/8
f 2/15/9 8/8/10 6/9/11 4/3/12
f 7/10/13 1/1/14 3/16/15 5/11/16
f 11/17/17 12/18/18 14/19/19 13/20/20
f 15/21/21 16/22/22 10/23/23 9/24/24
f 10/25/25 16/26/26 14/27/27 12/28/28
f 15/29/29 9/30/30 11/31/31 13/32/32
