# This file uses centimeters as units for non-parametric coordinates.

v -2.699705 11.332298 0.272598
v 4.081101 0.000000 0.496017
v -2.699705 11.764312 0.272598
v 3.893115 11.764312 0.272598
v -2.699705 11.764312 -0.272591
v 3.893115 11.764312 -0.272591
v -2.699705 11.332296 -0.272591
v 4.081101 0.000000 -0.496010
v 3.246405 0.000000 0.496017
v 3.434391 11.332298 0.272598
v 3.434391 11.332298 -0.272591
v 3.246405 0.000000 -0.496010
v -0.660463 11.332298 0.141258
v -0.347496 11.332298 0.141258
v -0.660463 11.332296 -0.141235
v -0.347496 11.332298 -0.141235
v -0.660461 10.522125 0.141258
v -0.347493 10.522125 0.141258
v -0.660461 10.522123 -0.141235
v -0.347493 10.522125 -0.141235
v -1.766830 10.522121 0.201591
v 0.758876 10.522129 0.201591
v -1.766830 10.522120 -0.201569
v 0.758876 10.522129 -0.201569
v -1.766829 10.304117 0.201591
v 0.758877 10.304125 0.201591
v -1.766829 10.304115 -0.201569
v 0.758877 10.304125 -0.201569
v -0.503976 10.304121 0.201591
v -0.503976 10.304120 -0.201569
v 0.212177 10.304123 0.125443
v 0.493159 10.304123 0.125443
v 0.212177 10.304123 -0.125389
v 0.493159 10.304123 -0.125389
v -1.220129 10.304119 0.125443
v -1.220129 10.304119 -0.125389
v -1.501111 10.304118 0.125443
v -1.501111 10.304117 -0.125389
v 0.212177 9.869455 0.125443
v 0.493159 9.869455 0.125443
v 0.212177 9.869455 -0.125389
v 0.493159 9.869455 -0.125389
v -1.220127 9.869452 0.125443
v -1.220127 9.869452 -0.125389
v -1.501109 9.869452 0.125443
v -1.501109 9.869450 -0.125389
v 3.434391 11.115825 0.272598
v 3.434391 11.115825 -0.272591
v 3.893115 11.115824 -0.272591
v 3.893115 11.115824 0.272598
v 3.434391 10.852679 0.272598
v 3.434391 10.852679 -0.272591
v 3.893115 10.852679 -0.272591
v 3.893115 10.852679 0.272598
v 3.152517 11.115825 0.607605
v 3.152517 11.115825 -0.607597
v 3.152517 10.852679 -0.607597
v 3.152517 10.852679 0.607605
v 4.174989 11.115824 -0.607597
v 4.174989 10.852679 -0.607597
v 4.174989 10.852679 0.607605
v 4.174989 11.115824 0.607605
v 3.246405 2.292091 -0.496010
v 4.081100 2.292091 -0.496010
v 4.081101 2.292089 0.496017
v 3.246405 2.292089 0.496017
v 3.893115 2.645015 -0.272591
v 3.893115 2.645010 0.272598
v 3.434391 2.645010 0.272598
v 3.434391 2.645015 -0.272591
vt 0.272850 0.477110
vt 0.174827 0.477110
vt 0.303792 0.477110
vt 0.272850 0.477110
vt 0.236891 0.477110
vt 0.303792 0.477110
vt 0.174827 0.477110
vt 0.210786 0.477110
vt 0.272850 0.477110
vt 0.272850 0.477110
vt 0.272850 0.477110
vt 0.303792 0.477110
vt 0.236890 0.477110
vt 0.236891 0.477110
vt 0.303792 0.477110
vt 0.208003 0.477110
vt 0.210786 0.477110
vt 0.236890 0.477110
vt 0.208003 0.477110
vt 0.272850 0.477110
vt 0.201683 0.477110
vt 0.208002 0.477110
vt 0.208002 0.477110
vt 0.174827 0.477110
vt 0.174216 0.478454
vt 0.207352 0.478454
vt 0.174216 0.478454
vt 0.207352 0.478454
vt 0.302313 0.477110
vt 0.302313 0.477110
vt 0.302313 0.477110
vt 0.302313 0.477110
vt 0.236890 0.477110
vt 0.270027 0.477110
vt 0.236891 0.477110
vt 0.270027 0.477110
vt 0.212251 0.477110
vt 0.212251 0.477110
vt 0.212251 0.477110
vt 0.212251 0.477110
vt 0.212251 0.477110
vt 0.212251 0.477110
vt 0.174216 0.478454
vt 0.207352 0.478454
vt 0.174216 0.478454
vt 0.207352 0.478454
vt 0.174216 0.478454
vt 0.174216 0.478454
vt 0.207352 0.478454
vt 0.174216 0.478454
vt 0.139380 0.478454
vt 0.207352 0.478454
vt 0.174216 0.478454
vt 0.207352 0.478454
vt 0.139380 0.478454
vt 0.174216 0.478454
vt 0.207352 0.478454
vt 0.174216 0.478454
vt 0.302313 0.477110
vt 0.302313 0.477110
vt 0.302313 0.477110
vt 0.302313 0.477110
vt 0.302313 0.477110
vt 0.302313 0.477110
vt 0.207352 0.478454
vt 0.302313 0.477110
vt 0.302313 0.477110
vt 0.302313 0.477110
vt 0.174216 0.478454
vt 0.302313 0.477110
vt 0.174216 0.478454
vt 0.302313 0.477110
vt 0.207352 0.478454
vt 0.302313 0.477110
vt 0.207352 0.478454
vt 0.174216 0.478454
vt 0.207352 0.478454
vt 0.212251 0.477110
vt 0.174216 0.478454
vt 0.207352 0.478454
vt 0.212251 0.477110
vt 0.174216 0.478454
vt 0.207352 0.478454
vt 0.207352 0.478454
vt 0.207352 0.478454
vt 0.212251 0.477110
vt 0.270027 0.477110
vt 0.270027 0.477110
vt 0.236890 0.477110
vt 0.270027 0.477110
vt 0.270027 0.477110
vt 0.270027 0.477110
vt 0.270027 0.477110
vt 0.236891 0.477110
vt 0.174216 0.478454
vt 0.207352 0.478454
vt 0.208002 0.477110
vt 0.207352 0.478454
vt 0.174216 0.478454
vt 0.207352 0.478454
vt 0.207352 0.478454
vt 0.208003 0.477110
vt 0.212251 0.477110
vt 0.212251 0.477110
vt 0.212251 0.477110
vt 0.212251 0.477110
vt 0.212251 0.477110
vt 0.174216 0.478454
vt 0.236891 0.477110
vt 0.212251 0.477110
vt 0.212251 0.477110
vt 0.212251 0.477110
vt 0.236891 0.477110
vt 0.212251 0.477110
vt 0.212251 0.477110
vt 0.212251 0.477110
vt 0.236891 0.477110
vt 0.212251 0.477110
vt 0.236891 0.477110
vt 0.212251 0.477110
vt 0.212251 0.477110
vt 0.212251 0.477110
vt 0.212251 0.477110
vt 0.174216 0.478454
vt 0.212251 0.477110
vt 0.212251 0.477110
vt 0.212251 0.477110
vt 0.212251 0.477110
vt 0.236890 0.477110
vt 0.212251 0.477110
vt 0.212251 0.477110
vt 0.174216 0.478454
vt 0.236890 0.477110
vt 0.212251 0.477110
vt 0.139380 0.478454
vt 0.174216 0.478454
vt 0.139380 0.478454
vt 0.139380 0.478454
vt 0.139380 0.478454
vt 0.174216 0.478454
vt 0.139380 0.478454
vt 0.139380 0.478454
vt 0.208002 0.477110
vt 0.174216 0.478454
vt 0.208002 0.477110
vt 0.208002 0.477110
vt 0.208003 0.477110
vt 0.208003 0.477110
vt 0.263746 0.477110
vt 0.208002 0.477110
vt 0.208003 0.477110
vt 0.174216 0.478454
vt 0.236891 0.477110
vt 0.208003 0.477110
vt 0.263746 0.477110
vt 0.208002 0.477110
vt 0.236891 0.477110
vt 0.208003 0.477110
vt 0.174216 0.478454
vt 0.174216 0.478454
vt 0.174216 0.478454
vt 0.174216 0.478454
vt 0.263746 0.477110
vt 0.236890 0.477110
vt 0.236890 0.477110
vt 0.272850 0.477110
vt 0.236890 0.477110
vt 0.272850 0.477110
vt 0.236890 0.477110
vt 0.263746 0.477110
vt 0.236890 0.477110
vt 0.272850 0.477110
vt 0.236890 0.477110
vt 0.272850 0.477110
vt 0.172758 0.477110
vt 0.199614 0.477110
vt 0.172758 0.477110
vt 0.199614 0.477110
vt 0.172758 0.477110
vt 0.172758 0.477110
vt 0.208718 0.477110
vt 0.208718 0.477110
vt 0.208718 0.477110
vt 0.208718 0.477110
vt 0.172758 0.477110
vt 0.172758 0.477110
vt 0.235574 0.477131
vt 0.235574 0.477131
vt 0.235573 0.477131
vt 0.235573 0.477131
vt 0.235574 0.477131
vt 0.235574 0.477131
vt 0.235574 0.477131
vt 0.235574 0.477131
vt 0.138045 0.477156
vt 0.138045 0.477156
vt 0.138045 0.477156
vt 0.138045 0.477156
vt 0.138045 0.477156
vt 0.138045 0.477156
vt 0.138045 0.477156
vt 0.138045 0.477156
vt 0.172758 0.477110
vt 0.199614 0.477110
vt 0.199614 0.477110
vt 0.172758 0.477110
vt 0.263746 0.477110
vt 0.236890 0.477110
vt 0.201683 0.477110
vt 0.236890 0.477110
vt 0.263746 0.477110
vt 0.236890 0.477110
vt 0.236890 0.477110
vt 0.174827 0.477110
vt 0.235574 0.477131
vt 0.235573 0.477131
vt 0.138045 0.477156
vt 0.138045 0.477156
vt 0.235574 0.477131
vt 0.235574 0.477131
vt 0.138045 0.477156
vt 0.138045 0.477156
vt 0.138045 0.477156
vt 0.138045 0.477156
vt 0.235573 0.477131
vt 0.235574 0.477131
vt 0.138045 0.477156
vt 0.138045 0.477156
vt 0.235574 0.477131
vt 0.235574 0.477131
vt 0.236890 0.477110
vt 0.236890 0.477110
vt 0.236890 0.477110
vt 0.236890 0.477110
vt 0.229956 0.477110
vt 0.174827 0.477110
vt 0.203100 0.477110
vt 0.210786 0.477110
vt 0.203100 0.477110
vt 0.239060 0.477110
vt 0.229956 0.477110
vt 0.203100 0.477110
vt 0.203100 0.477110
vt 0.239060 0.477110
vt 0.236891 0.477110
vt 0.272850 0.477110
vt 0.263746 0.477110
vt 0.236891 0.477110
vt 0.263746 0.477110
vt 0.236890 0.477110
vt 0.229956 0.477110
vt 0.203100 0.477110
vt 0.272850 0.477110
vt 0.236890 0.477110
vt 0.203100 0.477110
vt 0.229956 0.477110
vt 0.239060 0.477110
vt 0.203100 0.477110
vt 0.201683 0.477110
vt 0.203100 0.477110
vt 0.174827 0.477110
vt 0.239060 0.477110
vt 0.174827 0.477110
vt 0.201683 0.477110
vt 0.210786 0.477110
vt 0.174827 0.477110
vn 0.000000 1.000000 0.000000
vn 0.000000 1.000000 0.000000
vn 0.000000 1.000000 0.000000
vn 0.000000 1.000000 0.000000
vn 1.000000 0.000000 -0.000000
vn 1.000000 0.000000 -0.000000
vn 1.000000 0.000000 -0.000000
vn 1.000000 0.000000 -0.000000
vn -1.000000 0.000001 -0.000000
vn -1.000000 0.000001 -0.000000
vn -1.000000 0.000001 -0.000000
vn -1.000000 0.000001 -0.000000
vn 0.000000 0.000000 1.000000
vn 0.000000 0.000000 1.000000
vn 0.000000 0.000000 1.000000
vn 0.000000 0.000000 1.000000
vn 0.000000 0.000000 1.000000
vn 0.000000 0.000000 1.000000
vn 0.000000 0.000000 1.000000
vn 0.000000 0.000000 1.000000
vn -0.000000 0.000000 -1.000000
vn -0.000000 0.000000 -1.000000
vn -0.000000 0.000000 -1.000000
vn -0.000000 0.000000 -1.000000
vn 0.000000 0.000000 -1.000000
vn 0.000000 0.000000 -1.000000
vn 0.000000 0.000000 -1.000000
vn 0.000000 0.000000 -1.000000
vn 0.000000 -1.000000 0.000000
vn 0.000000 -1.000000 0.000000
vn 0.000000 -1.000000 0.000000
vn 0.000000 -1.000000 0.000000
vn -1.000000 0.000000 0.000000
vn -1.000000 0.000000 0.000000
vn -1.000000 0.000000 0.000000
vn -1.000000 0.000000 0.000000
vn 0.000000 -1.000000 -0.000009
vn 0.000000 -1.000000 -0.000009
vn 0.000000 -1.000000 -0.000009
vn 0.000000 -1.000000 -0.000009
vn -0.000000 -1.000000 0.000007
vn -0.000000 -1.000000 0.000007
vn -0.000000 -1.000000 0.000007
vn -0.000000 -1.000000 0.000007
vn 0.000001 -1.000000 -0.000005
vn 0.000001 -1.000000 -0.000005
vn 0.000001 -1.000000 -0.000005
vn 0.000001 -1.000000 -0.000005
vn 0.000000 -1.000000 0.000000
vn 0.000000 -1.000000 0.000000
vn 0.000000 -1.000000 0.000000
vn 0.000000 -1.000000 0.000000
vn 0.000000 0.000000 1.000000
vn 0.000000 0.000000 1.000000
vn 0.000000 0.000000 1.000000
vn 0.000000 0.000000 1.000000
vn -1.000000 -0.000003 0.000000
vn -1.000000 -0.000003 0.000000
vn -1.000000 -0.000003 0.000000
vn -1.000000 -0.000003 0.000000
vn 0.000000 0.000000 -1.000000
vn 0.000000 0.000000 -1.000000
vn 0.000000 0.000000 -1.000000
vn 0.000000 0.000000 -1.000000
vn 1.000000 0.000003 0.000000
vn 1.000000 0.000003 0.000000
vn 1.000000 0.000003 0.000000
vn 1.000000 0.000003 0.000000
vn -0.000003 1.000000 0.000011
vn -0.000003 1.000000 0.000011
vn -0.000003 1.000000 0.000011
vn -0.000003 1.000000 0.000011
vn -0.000003 1.000000 -0.000005
vn -0.000003 1.000000 -0.000005
vn -0.000003 1.000000 -0.000005
vn -0.000003 1.000000 -0.000005
vn -0.000004 1.000000 -0.000011
vn -0.000004 1.000000 -0.000011
vn -0.000004 1.000000 -0.000011
vn -0.000004 1.000000 -0.000011
vn -0.000003 1.000000 0.000000
vn -0.000003 1.000000 0.000000
vn -0.000003 1.000000 0.000000
vn -0.000003 1.000000 0.000000
vn 0.000000 0.000000 1.000000
vn 0.000000 0.000000 1.000000
vn 0.000000 0.000000 1.000000
vn 0.000000 0.000000 1.000000
vn 0.000000 0.000000 1.000000
vn -1.000000 -0.000005 0.000000
vn -1.000000 -0.000005 0.000000
vn -1.000000 -0.000005 0.000000
vn -1.000000 -0.000005 0.000000
vn 0.000000 0.000000 -1.000000
vn 0.000000 0.000000 -1.000000
vn 0.000000 0.000000 -1.000000
vn 0.000000 0.000000 -1.000000
vn 0.000000 0.000000 -1.000000
vn 1.000000 0.000001 0.000000
vn 1.000000 0.000001 0.000000
vn 1.000000 0.000001 0.000000
vn 1.000000 0.000001 0.000000
vn 0.000003 -1.000000 0.000003
vn 0.000003 -1.000000 0.000003
vn 0.000003 -1.000000 0.000003
vn 0.000003 -1.000000 0.000003
vn 0.000002 -1.000000 0.000004
vn 0.000002 -1.000000 0.000004
vn 0.000002 -1.000000 0.000004
vn 0.000002 -1.000000 0.000004
vn 0.000003 -1.000000 0.000004
vn 0.000003 -1.000000 0.000004
vn 0.000003 -1.000000 0.000004
vn 0.000003 -1.000000 0.000004
vn 0.000003 -1.000000 -0.000032
vn 0.000003 -1.000000 -0.000032
vn 0.000003 -1.000000 -0.000032
vn 0.000003 -1.000000 -0.000032
vn 0.000007 -1.000000 0.000000
vn 0.000007 -1.000000 0.000000
vn 0.000007 -1.000000 0.000000
vn 0.000007 -1.000000 0.000000
vn 0.000002 -1.000000 0.000004
vn 0.000002 -1.000000 0.000004
vn 0.000002 -1.000000 0.000004
vn 0.000002 -1.000000 0.000004
vn 0.000003 -1.000000 -0.000008
vn 0.000003 -1.000000 -0.000008
vn 0.000003 -1.000000 -0.000008
vn 0.000003 -1.000000 -0.000008
vn 0.000005 -1.000000 0.000003
vn 0.000005 -1.000000 0.000003
vn 0.000005 -1.000000 0.000003
vn 0.000005 -1.000000 0.000003
vn 0.000004 -1.000000 0.000028
vn 0.000004 -1.000000 0.000028
vn 0.000004 -1.000000 0.000028
vn 0.000004 -1.000000 0.000028
vn 0.000000 0.000000 1.000000
vn 0.000000 0.000000 1.000000
vn 0.000000 0.000000 1.000000
vn 0.000000 0.000000 1.000000
vn -1.000000 0.000000 0.000000
vn -1.000000 0.000000 0.000000
vn -1.000000 0.000000 0.000000
vn -1.000000 0.000000 0.000000
vn 0.000000 0.000000 -1.000000
vn 0.000000 0.000000 -1.000000
vn 0.000000 0.000000 -1.000000
vn 0.000000 0.000000 -1.000000
vn 1.000000 0.000000 0.000000
vn 1.000000 0.000000 0.000000
vn 1.000000 0.000000 0.000000
vn 1.000000 0.000000 0.000000
vn 1.000000 0.000005 0.000000
vn 1.000000 0.000005 0.000000
vn 1.000000 0.000005 0.000000
vn 1.000000 0.000005 0.000000
vn -0.000000 0.000000 1.000000
vn -0.000000 0.000000 1.000000
vn -0.000000 0.000000 1.000000
vn -0.000000 0.000000 1.000000
vn -1.000000 -0.000005 0.000000
vn -1.000000 -0.000005 0.000000
vn -1.000000 -0.000005 0.000000
vn -1.000000 -0.000005 0.000000
vn 0.000000 0.000000 -1.000000
vn 0.000000 0.000000 -1.000000
vn 0.000000 0.000000 -1.000000
vn 0.000000 0.000000 -1.000000
vn -1.000000 0.000000 0.000000
vn -1.000000 0.000000 0.000000
vn -1.000000 0.000000 0.000000
vn -1.000000 0.000000 0.000000
vn -0.000000 0.000000 -1.000000
vn -0.000000 0.000000 -1.000000
vn -0.000000 0.000000 -1.000000
vn -0.000000 0.000000 -1.000000
vn 1.000000 0.000000 0.000000
vn 1.000000 0.000000 0.000000
vn 1.000000 0.000000 0.000000
vn 1.000000 0.000000 0.000000
vn -0.000000 0.000000 1.000000
vn -0.000000 0.000000 1.000000
vn -0.000000 0.000000 1.000000
vn -0.000000 0.000000 1.000000
vn -1.000000 0.000000 0.000000
vn -1.000000 0.000000 0.000000
vn -1.000000 0.000000 0.000000
vn -1.000000 0.000000 0.000000
vn 0.000000 0.000000 -1.000000
vn 0.000000 0.000000 -1.000000
vn 0.000000 0.000000 -1.000000
vn 0.000000 0.000000 -1.000000
vn 1.000000 0.000000 0.000000
vn 1.000000 0.000000 0.000000
vn 1.000000 0.000000 0.000000
vn 1.000000 0.000000 0.000000
vn 0.000000 0.000000 1.000000
vn 0.000000 0.000000 1.000000
vn 0.000000 0.000000 1.000000
vn 0.000000 0.000000 1.000000
vn 0.000000 1.000000 0.000000
vn 0.000000 1.000000 0.000000
vn 0.000000 1.000000 0.000000
vn 0.000000 1.000000 0.000000
vn 0.000000 -1.000000 0.000000
vn 0.000000 -1.000000 0.000000
vn 0.000000 -1.000000 0.000000
vn 0.000000 -1.000000 0.000000
vn 0.000001 1.000000 -0.000005
vn 0.000001 1.000000 -0.000005
vn 0.000001 1.000000 -0.000005
vn 0.000001 1.000000 -0.000005
vn 0.000000 -1.000000 -0.000001
vn 0.000000 -1.000000 -0.000001
vn 0.000000 -1.000000 -0.000001
vn 0.000000 -1.000000 -0.000001
vn 0.000000 -1.000000 0.000000
vn 0.000000 -1.000000 0.000000
vn 0.000000 -1.000000 0.000000
vn 0.000000 -1.000000 0.000000
vn 0.000000 1.000000 0.000000
vn 0.000000 1.000000 0.000000
vn 0.000000 1.000000 0.000000
vn 0.000000 1.000000 0.000000
vn 0.000000 -1.000000 -0.000001
vn 0.000000 -1.000000 -0.000001
vn 0.000000 -1.000000 -0.000001
vn 0.000000 -1.000000 -0.000001
vn 0.000001 1.000000 0.000005
vn 0.000001 1.000000 0.000005
vn 0.000001 1.000000 0.000005
vn 0.000001 1.000000 0.000005
vn 0.000000 0.534882 -0.844927
vn 0.000000 0.534882 -0.844927
vn 0.000000 0.534882 -0.844927
vn 0.000000 0.534882 -0.844927
vn 0.882601 0.470122 0.000001
vn 0.882601 0.470122 0.000001
vn 0.882601 0.470122 0.000001
vn 0.882601 0.470122 0.000001
vn 0.000000 0.534885 0.844925
vn 0.000000 0.534885 0.844925
vn 0.000000 0.534885 0.844925
vn 0.000000 0.534885 0.844925
vn -0.882602 0.470122 0.000002
vn -0.882602 0.470122 0.000002
vn -0.882602 0.470122 0.000002
vn -0.882602 0.470122 0.000002
vn 1.000000 0.000000 0.000000
vn 1.000000 0.000000 0.000000
vn 1.000000 0.000000 0.000000
vn 1.000000 0.000000 0.000000
vn 0.000000 0.000000 1.000000
vn 0.000000 0.000000 1.000000
vn 0.000000 0.000000 1.000000
vn 0.000000 0.000000 1.000000
vn -1.000000 0.000000 0.000000
vn -1.000000 0.000000 0.000000
vn -1.000000 0.000000 0.000000
vn -1.000000 0.000000 0.000000
vn 0.000000 0.000000 -1.000000
vn 0.000000 0.000000 -1.000000
vn 0.000000 0.000000 -1.000000
vn 0.000000 0.000000 -1.000000
s off
f 3/3/1 4/12/2 6/6/3 5/15/4
f 2/17/5 8/8/6 64/238/7 65/265/8
f 7/10/9 1/1/10 3/20/11 5/11/12
f 2/2/13 65/266/14 66/263/15 9/214/16
f 4/231/17 3/14/18 1/157/19 10/212/20
f 5/5/21 6/234/22 11/233/23 7/153/24
f 63/236/25 64/261/26 8/7/27 12/24/28
f 40/51/29 39/142/30 41/141/31 42/139/32
f 66/264/33 63/259/34 12/209/35 9/21/36
f 10/22/37 1/158/38 13/151/39 14/145/40
f 1/19/41 7/154/42 15/148/43 13/102/44
f 7/16/45 11/150/46 16/143/47 15/147/48
f 11/23/49 10/156/50 14/146/51 16/97/52
f 14/25/53 13/152/54 17/99/55 18/71/56
f 13/26/57 15/100/58 19/98/59 17/73/60
f 15/27/61 16/144/62 20/95/63 19/69/64
f 16/28/65 14/101/66 18/96/67 20/65/68
f 18/29/69 17/74/70 21/68/71 22/61/72
f 17/30/73 19/70/74 23/64/75 21/67/76
f 19/31/77 20/66/78 24/60/79 23/63/80
f 20/32/81 18/72/82 22/62/83 24/59/84
f 22/33/85 21/94/86 25/113/87 29/119/88 26/133/89
f 21/34/90 23/92/91 27/90/92 25/91/93
f 23/35/94 24/89/95 28/129/96 30/117/97 27/109/98
f 24/36/99 22/93/100 26/88/101 28/87/102
f 44/55/103 43/138/104 45/137/105 46/135/106
f 26/37/107 29/120/108 31/131/109 32/125/110
f 29/121/111 30/115/112 33/128/113 31/86/114
f 30/116/115 28/130/116 34/123/117 33/127/118
f 28/40/119 26/134/120 32/126/121 34/81/122
f 30/42/123 29/122/124 35/112/125 36/105/126
f 29/41/127 25/114/128 37/107/129 35/111/130
f 25/38/131 27/110/132 38/104/133 37/78/134
f 27/39/135 30/118/136 36/106/137 38/103/138
f 32/43/139 31/132/140 39/82/141 40/140/142
f 31/44/143 33/84/144 41/83/145 39/52/146
f 33/45/147 34/124/148 42/79/149 41/53/150
f 34/46/151 32/85/152 40/80/153 42/54/154
f 36/47/155 35/162/156 43/160/157 44/136/158
f 35/48/159 37/108/160 45/76/161 43/56/162
f 37/49/163 38/77/164 46/75/165 45/57/166
f 38/50/167 36/161/168 44/159/169 46/58/170
f 10/155/171 11/149/172 48/211/173 47/163/174
f 6/13/175 49/165/176 48/164/177 11/213/178
f 50/168/179 49/166/180 6/9/181 4/4/182
f 47/210/183 50/167/184 4/18/185 10/232/186
f 55/204/187 56/176/188 57/205/189 58/178/190
f 56/206/191 59/179/192 60/180/193 57/177/194
f 61/181/195 60/182/196 59/183/197 62/184/198
f 58/203/199 61/185/200 62/186/201 55/175/202
f 47/187/203 48/229/204 56/225/205 55/190/206
f 52/195/207 51/227/208 58/218/209 57/198/210
f 48/188/211 49/226/212 59/219/213 56/189/214
f 53/199/215 52/228/216 57/223/217 60/200/218
f 54/201/219 53/224/220 60/221/221 61/202/222
f 49/191/223 50/220/224 62/215/225 59/192/226
f 51/196/227 54/222/228 61/217/229 58/197/230
f 50/193/231 47/230/232 55/216/233 62/194/234
f 70/252/235 67/243/236 64/237/237 63/260/238
f 65/240/239 64/262/240 67/244/241 68/257/242
f 66/242/243 65/239/244 68/258/245 69/255/246
f 69/256/247 70/251/248 63/235/249 66/241/250
f 68/246/251 67/253/252 53/172/253 54/174/254
f 69/248/255 68/245/256 54/173/257 51/169/258
f 51/207/259 52/170/260 70/249/261 69/247/262
f 52/208/263 53/171/264 67/254/265 70/250/266
