# This file uses centimeters as units for non-parametric coordinates.

v 0.551500 0.000000 0.551494
v 0.551500 0.000000 -0.551494
v 0.090600 5.568067 0.090601
v 0.090600 5.568067 -0.090600
v -0.090603 5.568067 0.090601
v -0.090603 5.568067 -0.090600
v -0.551500 0.000000 0.551494
v -0.551500 0.000000 -0.551494
v -0.551500 0.248362 0.551494
v 0.551500 0.248362 0.551494
v 0.551500 0.248362 -0.551494
v -0.551500 0.248362 -0.551494
v 0.090600 0.248362 -0.090600
v 0.090600 0.248362 0.090601
v -0.090603 0.248362 0.090601
v -0.090603 0.248362 -0.090600
v -0.000002 5.568067 0.090601
v 0.090600 2.773831 -0.090600
v 0.090600 2.773831 0.090601
v -0.090603 2.773831 0.090601
v -0.090603 2.773831 -0.090600
v -0.090603 1.910822 0.090601
v 0.090600 1.910822 0.090601
v 0.090600 1.910822 -0.090600
v -0.090603 1.910822 -0.090600
v -0.090603 3.824468 -0.090600
v -0.090603 3.824468 0.090601
v 0.090600 3.824468 0.090601
v 0.090600 3.824468 -0.090600
v -0.090603 4.784142 0.090601
v -0.090603 4.784142 -0.090600
v 0.090600 4.784142 -0.090600
v 0.090600 4.784142 0.090601
vt 0.236041 0.476605
vt 0.236041 0.476605
vt 0.236041 0.476605
vt 0.236041 0.476605
vt 0.363362 0.476698
vt 0.363362 0.476698
vt 0.363362 0.476698
vt 0.363362 0.476698
vt 0.363362 0.476698
vt 0.236041 0.476605
vt 0.236041 0.476605
vt 0.236041 0.476605
vt 0.236041 0.476605
vt 0.138594 0.476698
vt 0.138594 0.476698
vt 0.138594 0.476698
vt 0.138594 0.476698
vt 0.236041 0.476605
vt 0.236041 0.476605
vt 0.236041 0.476605
vt 0.236041 0.476605
vt 0.236041 0.476605
vt 0.236041 0.476605
vt 0.236041 0.476605
vt 0.236041 0.476605
vt 0.211349 0.476698
vt 0.211349 0.476698
vt 0.211349 0.476698
vt 0.211349 0.476698
vt 0.175390 0.476698
vt 0.175390 0.476698
vt 0.175390 0.476698
vt 0.175390 0.476698
vt 0.211349 0.476698
vt 0.211349 0.476698
vt 0.211349 0.476698
vt 0.211349 0.476698
vt 0.175390 0.476698
vt 0.175390 0.476698
vt 0.175390 0.476698
vt 0.175390 0.476698
vt 0.197673 0.476698
vt 0.197673 0.476698
vt 0.197673 0.476698
vt 0.197673 0.476698
vt 0.233632 0.476698
vt 0.233632 0.476698
vt 0.233632 0.476698
vt 0.233632 0.476698
vt 0.197673 0.476698
vt 0.197673 0.476698
vt 0.197673 0.476698
vt 0.197673 0.476698
vt 0.233632 0.476698
vt 0.233632 0.476698
vt 0.233632 0.476698
vt 0.233632 0.476698
vt 0.197673 0.476698
vt 0.197673 0.476698
vt 0.197673 0.476698
vt 0.197673 0.476698
vt 0.233632 0.476698
vt 0.233632 0.476698
vt 0.233632 0.476698
vt 0.233632 0.476698
vt 0.197673 0.476698
vt 0.197673 0.476698
vt 0.197673 0.476698
vt 0.197673 0.476698
vt 0.233632 0.476698
vt 0.233632 0.476698
vt 0.233632 0.476698
vt 0.233632 0.476698
vt 0.296461 0.476698
vt 0.296461 0.476698
vt 0.332420 0.476698
vt 0.332420 0.476698
vt 0.296461 0.476698
vt 0.296461 0.476698
vt 0.332420 0.476698
vt 0.332420 0.476698
vt 0.332420 0.476698
vt 0.332420 0.476698
vt 0.332420 0.476698
vt 0.332420 0.476698
vt 0.296461 0.476698
vt 0.296461 0.476698
vt 0.296461 0.476698
vt 0.296461 0.476698
vt 0.332420 0.476698
vt 0.332420 0.476698
vt 0.332420 0.476698
vt 0.332420 0.476698
vt 0.296461 0.476698
vt 0.296461 0.476698
vt 0.296461 0.476698
vt 0.296461 0.476698
vt 0.296461 0.476698
vt 0.296461 0.476698
vt 0.332420 0.476698
vt 0.332420 0.476698
vt 0.296461 0.476698
vt 0.296461 0.476698
vt 0.332420 0.476698
vt 0.332420 0.476698
vt 0.296461 0.476698
vt 0.296461 0.476698
vt 0.296461 0.476698
vt 0.296461 0.476698
vt 0.332420 0.476698
vt 0.332420 0.476698
vt 0.332420 0.476698
vt 0.332420 0.476698
vt 0.296461 0.476698
vt 0.296461 0.476698
vt 0.296461 0.476698
vt 0.296461 0.476698
vt 0.332420 0.476698
vt 0.332420 0.476698
vt 0.332420 0.476698
vt 0.332420 0.476698
vt 0.332420 0.476698
vn -0.000000 1.000000 0.000000
vn -0.000000 1.000000 0.000000
vn -0.000000 1.000000 0.000000
vn -0.000000 1.000000 0.000000
vn 0.000000 1.000000 0.000002
vn 0.000000 1.000000 0.000002
vn 0.000000 1.000000 0.000002
vn 0.000000 1.000000 0.000002
vn 0.000000 1.000000 0.000002
vn 0.000000 1.000000 0.000000
vn 0.000000 1.000000 0.000000
vn 0.000000 1.000000 0.000000
vn 0.000000 1.000000 0.000000
vn 0.000000 -1.000000 0.000000
vn 0.000000 -1.000000 0.000000
vn 0.000000 -1.000000 0.000000
vn 0.000000 -1.000000 0.000000
vn 0.000000 1.000000 0.000000
vn 0.000000 1.000000 0.000000
vn 0.000000 1.000000 0.000000
vn 0.000000 1.000000 0.000000
vn 0.000000 1.000000 -0.000000
vn 0.000000 1.000000 -0.000000
vn 0.000000 1.000000 -0.000000
vn 0.000000 1.000000 -0.000000
vn -0.000000 0.000000 1.000000
vn -0.000000 0.000000 1.000000
vn -0.000000 0.000000 1.000000
vn -0.000000 0.000000 1.000000
vn 1.000000 0.000000 0.000000
vn 1.000000 0.000000 0.000000
vn 1.000000 0.000000 0.000000
vn 1.000000 0.000000 0.000000
vn 0.000000 0.000000 -1.000000
vn 0.000000 0.000000 -1.000000
vn 0.000000 0.000000 -1.000000
vn 0.000000 0.000000 -1.000000
vn -1.000000 0.000000 0.000000
vn -1.000000 0.000000 0.000000
vn -1.000000 0.000000 0.000000
vn -1.000000 0.000000 0.000000
vn 1.000000 0.000000 0.000000
vn 1.000000 0.000000 0.000000
vn 1.000000 0.000000 0.000000
vn 1.000000 0.000000 0.000000
vn 0.000000 0.000000 1.000000
vn 0.000000 0.000000 1.000000
vn 0.000000 0.000000 1.000000
vn 0.000000 0.000000 1.000000
vn -1.000000 0.000000 0.000000
vn -1.000000 0.000000 0.000000
vn -1.000000 0.000000 0.000000
vn -1.000000 0.000000 0.000000
vn 0.000000 0.000000 -1.000000
vn 0.000000 0.000000 -1.000000
vn 0.000000 0.000000 -1.000000
vn 0.000000 0.000000 -1.000000
vn 1.000000 0.000000 0.000000
vn 1.000000 0.000000 0.000000
vn 1.000000 0.000000 0.000000
vn 1.000000 0.000000 0.000000
vn 0.000000 0.000000 1.000000
vn 0.000000 0.000000 1.000000
vn 0.000000 0.000000 1.000000
vn 0.000000 0.000000 1.000000
vn -1.000000 0.000000 0.000000
vn -1.000000 0.000000 0.000000
vn -1.000000 0.000000 0.000000
vn -1.000000 0.000000 0.000000
vn 0.000000 0.000000 -1.000000
vn 0.000000 0.000000 -1.000000
vn 0.000000 0.000000 -1.000000
vn 0.000000 0.000000 -1.000000
vn 1.000000 0.000000 0.000000
vn 1.000000 0.000000 0.000000
vn 1.000000 0.000000 0.000000
vn 1.000000 0.000000 0.000000
vn 0.000000 0.000000 1.000000
vn 0.000000 0.000000 1.000000
vn 0.000000 0.000000 1.000000
vn 0.000000 0.000000 1.000000
vn -1.000000 0.000000 0.000000
vn -1.000000 0.000000 0.000000
vn -1.000000 0.000000 0.000000
vn -1.000000 0.000000 0.000000
vn 0.000000 0.000000 -1.000000
vn 0.000000 0.000000 -1.000000
vn 0.000000 0.000000 -1.000000
vn 0.000000 0.000000 -1.000000
vn 0.000000 0.000000 1.000000
vn 0.000000 0.000000 1.000000
vn 0.000000 0.000000 1.000000
vn 0.000000 0.000000 1.000000
vn 1.000000 0.000000 0.000000
vn 1.000000 0.000000 0.000000
vn 1.000000 0.000000 0.000000
vn 1.000000 0.000000 0.000000
vn 0.000000 0.000000 -1.000000
vn 0.000000 0.000000 -1.000000
vn 0.000000 0.000000 -1.000000
vn 0.000000 0.000000 -1.000000
vn -1.000000 0.000000 0.000000
vn -1.000000 0.000000 0.000000
vn -1.000000 0.000000 0.000000
vn -1.000000 0.000000 0.000000
vn -1.000000 0.000000 0.000000
vn -1.000000 0.000000 0.000000
vn -1.000000 0.000000 0.000000
vn -1.000000 0.000000 0.000000
vn 0.000000 0.000000 -1.000000
vn 0.000000 0.000000 -1.000000
vn 0.000000 0.000000 -1.000000
vn 0.000000 0.000000 -1.000000
vn 1.000000 0.000000 0.000000
vn 1.000000 0.000000 0.000000
vn 1.000000 0.000000 0.000000
vn 1.000000 0.000000 0.000000
vn 0.000000 0.000000 1.000000
vn 0.000000 0.000000 1.000000
vn 0.000000 0.000000 1.000000
vn 0.000000 0.000000 1.000000
vn 0.000000 0.000000 1.000000
s off
f 10/1/1 11/2/2 13/3/3 14/4/4
f 3/5/5 4/6/6 6/7/7 5/8/8 17/9/9
f 15/10/10 16/11/11 12/12/12 9/13/13
f 7/14/14 8/15/15 2/16/16 1/17/17
f 11/18/18 12/19/19 16/20/20 13/21/21
f 9/22/22 10/23/23 14/24/24 15/25/25
f 7/26/26 1/27/27 10/28/28 9/29/29
f 1/30/30 2/31/31 11/32/32 10/33/33
f 2/34/34 8/35/35 12/36/36 11/37/37
f 9/38/38 12/39/39 8/40/40 7/41/41
f 18/42/42 19/43/43 23/44/44 24/45/45
f 19/46/46 20/47/47 22/48/48 23/49/49
f 22/50/50 20/51/51 21/52/52 25/53/53
f 25/54/54 21/55/55 18/56/56 24/57/57
f 33/58/58 28/59/59 29/60/60 32/61/61
f 27/62/62 28/63/63 33/64/64 30/65/65
f 26/66/66 27/67/67 30/68/68 31/69/69
f 32/70/70 29/71/71 26/72/72 31/73/73
f 28/103/74 19/74/75 18/75/76 29/102/77
f 20/76/78 19/77/79 28/100/80 27/101/81
f 21/78/82 20/79/83 27/98/84 26/99/85
f 29/105/86 18/80/87 21/81/88 26/104/89
f 15/82/90 14/83/91 23/84/92 22/85/93
f 14/86/94 13/87/95 24/88/96 23/89/97
f 13/90/98 16/91/99 25/92/100 24/93/101
f 22/94/102 25/95/103 16/96/104 15/97/105
f 5/106/106 6/107/107 31/108/108 30/109/109
f 32/110/110 31/111/111 6/112/112 4/113/113
f 33/114/114 32/115/115 4/116/116 3/117/117
f 30/118/118 33/119/119 3/120/120 17/121/121 5/122/122
