# This file uses centimeters as units for non-parametric coordinates.

v -1.273920 0.000000 0.562096
v -1.273916 0.000000 0.328217
v -1.273920 0.631491 0.562096
v -1.273916 0.631491 0.328217
v -1.516581 0.631491 0.562096
v -1.516577 0.631491 0.328217
v -1.516581 0.000000 0.562096
v -1.516577 0.000000 0.328217
v 1.462982 0.000000 0.562096
v 1.462986 0.000000 0.328217
v 1.462982 0.631491 0.562096
v 1.462986 0.631491 0.328217
v 1.220329 0.631491 0.562096
v 1.220333 0.631491 0.328217
v 1.220329 0.000000 0.562096
v 1.220333 0.000000 0.328217
v -1.273918 0.000000 -0.334175
v -1.273920 0.000000 -0.568054
v -1.273918 1.797760 -0.334175
v -1.273920 1.797760 -0.568054
v -1.516579 1.797760 -0.334175
v -1.516581 1.797760 -0.568054
v -1.516579 0.000000 -0.334175
v -1.516581 0.000000 -0.568054
v 1.462980 0.000000 -0.334167
v 1.462982 0.000000 -0.568054
v 1.462980 1.797760 -0.334167
v 1.462982 1.797760 -0.568054
v 1.220327 1.797760 -0.334175
v 1.220329 1.797760 -0.568054
v 1.220327 0.000000 -0.334175
v 1.220329 0.000000 -0.568054
v 1.893967 0.631490 0.568054
v 1.893969 0.631490 -0.431946
v 1.893967 0.837856 0.568054
v 1.893969 0.837856 -0.431946
v -1.893969 0.837856 0.568054
v -1.893967 0.837856 -0.431946
v -1.893969 0.631490 0.568054
v -1.893967 0.631490 -0.431946
v 1.893967 1.065360 -0.243271
v 1.893969 1.065360 -0.431946
v 1.893967 1.923093 -0.243271
v 1.893969 1.923093 -0.431946
v -1.893969 1.923093 -0.243271
v -1.893967 1.923093 -0.431946
v -1.893969 1.065360 -0.243271
v -1.893967 1.065360 -0.431946
vt 0.301937 0.062491
vt 0.265978 0.062491
vt 0.301937 0.062491
vt 0.265978 0.062491
vt 0.265978 0.062491
vt 0.301937 0.062491
vt 0.301937 0.062491
vt 0.301937 0.062491
vt 0.301937 0.062491
vt 0.265978 0.062491
vt 0.265978 0.062491
vt 0.265978 0.062491
vt 0.301937 0.062491
vt 0.265978 0.062491
vt 0.265978 0.062491
vt 0.301937 0.062491
vt 0.265978 0.062491
vt 0.265978 0.062491
vt 0.265978 0.062491
vt 0.265978 0.062491
vt 0.265978 0.062491
vt 0.265978 0.062491
vt 0.265978 0.062491
vt 0.265978 0.062491
vt 0.301937 0.062491
vt 0.301937 0.062491
vt 0.301937 0.062491
vt 0.301937 0.062491
vt 0.301937 0.062491
vt 0.301937 0.062491
vt 0.301937 0.062491
vt 0.301937 0.062491
vt 0.265978 0.062491
vt 0.265978 0.062491
vt 0.265978 0.062491
vt 0.265978 0.062491
vt 0.332879 0.062491
vt 0.332879 0.062491
vt 0.332879 0.062491
vt 0.332879 0.062491
vt 0.265978 0.062491
vt 0.265978 0.062491
vt 0.265978 0.062491
vt 0.265978 0.062491
vt 0.301937 0.062491
vt 0.301937 0.062491
vt 0.301937 0.062491
vt 0.301937 0.062491
vt 0.301937 0.062491
vt 0.301937 0.062491
vt 0.301937 0.062491
vt 0.301937 0.062491
vt 0.265978 0.062491
vt 0.265978 0.062491
vt 0.265978 0.062491
vt 0.265978 0.062491
vt 0.332879 0.062491
vt 0.332879 0.062491
vt 0.332879 0.062491
vt 0.332879 0.062491
vt 0.265978 0.062491
vt 0.265978 0.062491
vt 0.265978 0.062491
vt 0.265978 0.062491
vt 0.301937 0.062491
vt 0.301937 0.062491
vt 0.301937 0.062491
vt 0.301937 0.062491
vt 0.301937 0.062491
vt 0.301937 0.062491
vt 0.301937 0.062491
vt 0.301937 0.062491
vt 0.142838 0.354709
vt 0.142838 0.354709
vt 0.142838 0.354709
vt 0.142838 0.354709
vt 0.209739 0.354709
vt 0.209739 0.354709
vt 0.209739 0.354709
vt 0.209739 0.354709
vt 0.142838 0.354709
vt 0.142838 0.354709
vt 0.142838 0.354709
vt 0.142838 0.354709
vt 0.106042 0.354709
vt 0.106042 0.354709
vt 0.106042 0.354709
vt 0.106042 0.354709
vt 0.178797 0.354709
vt 0.178797 0.354709
vt 0.178797 0.354709
vt 0.178797 0.354709
vt 0.178797 0.354709
vt 0.178797 0.354709
vt 0.178797 0.354709
vt 0.178797 0.354709
vt 0.142838 0.354709
vt 0.142838 0.354709
vt 0.142838 0.354709
vt 0.142838 0.354709
vt 0.209739 0.354709
vt 0.209739 0.354709
vt 0.209739 0.354709
vt 0.209739 0.354709
vt 0.142838 0.354709
vt 0.142838 0.354709
vt 0.142838 0.354709
vt 0.142838 0.354709
vt 0.106042 0.354709
vt 0.106042 0.354709
vt 0.106042 0.354709
vt 0.106042 0.354709
vt 0.178797 0.354709
vt 0.178797 0.354709
vt 0.178797 0.354709
vt 0.178797 0.354709
vt 0.178797 0.354709
vt 0.178797 0.354709
vt 0.178797 0.354709
vt 0.178797 0.354709
vn 1.000000 0.000000 0.000016
vn 1.000000 0.000000 0.000016
vn 1.000000 0.000000 0.000016
vn 1.000000 0.000000 0.000016
vn -1.000000 0.000000 -0.000016
vn -1.000000 0.000000 -0.000016
vn -1.000000 0.000000 -0.000016
vn -1.000000 0.000000 -0.000016
vn 0.000000 0.000000 -1.000000
vn 0.000000 0.000000 -1.000000
vn 0.000000 0.000000 -1.000000
vn 0.000000 0.000000 -1.000000
vn 0.000000 0.000000 1.000000
vn 0.000000 0.000000 1.000000
vn 0.000000 0.000000 1.000000
vn 0.000000 0.000000 1.000000
vn 1.000000 0.000000 0.000016
vn 1.000000 0.000000 0.000016
vn 1.000000 0.000000 0.000016
vn 1.000000 0.000000 0.000016
vn -1.000000 0.000000 -0.000016
vn -1.000000 0.000000 -0.000016
vn -1.000000 0.000000 -0.000016
vn -1.000000 0.000000 -0.000016
vn 0.000000 0.000000 -1.000000
vn 0.000000 0.000000 -1.000000
vn 0.000000 0.000000 -1.000000
vn 0.000000 0.000000 -1.000000
vn 0.000000 0.000000 1.000000
vn 0.000000 0.000000 1.000000
vn 0.000000 0.000000 1.000000
vn 0.000000 0.000000 1.000000
vn 1.000000 0.000000 -0.000008
vn 1.000000 0.000000 -0.000008
vn 1.000000 0.000000 -0.000008
vn 1.000000 0.000000 -0.000008
vn 0.000000 1.000000 0.000000
vn 0.000000 1.000000 0.000000
vn 0.000000 1.000000 0.000000
vn 0.000000 1.000000 0.000000
vn -1.000000 0.000000 0.000008
vn -1.000000 0.000000 0.000008
vn -1.000000 0.000000 0.000008
vn -1.000000 0.000000 0.000008
vn 0.000000 0.000000 -1.000000
vn 0.000000 0.000000 -1.000000
vn 0.000000 0.000000 -1.000000
vn 0.000000 0.000000 -1.000000
vn 0.000000 0.000000 1.000000
vn 0.000000 0.000000 1.000000
vn 0.000000 0.000000 1.000000
vn 0.000000 0.000000 1.000000
vn 1.000000 0.000000 0.000008
vn 1.000000 0.000000 0.000008
vn 1.000000 0.000000 0.000008
vn 1.000000 0.000000 0.000008
vn 0.000000 1.000000 0.000000
vn 0.000000 1.000000 0.000000
vn 0.000000 1.000000 0.000000
vn 0.000000 1.000000 0.000000
vn -1.000000 0.000000 -0.000008
vn -1.000000 0.000000 -0.000008
vn -1.000000 0.000000 -0.000008
vn -1.000000 0.000000 -0.000008
vn 0.000000 0.000000 -1.000000
vn 0.000000 0.000000 -1.000000
vn 0.000000 0.000000 -1.000000
vn 0.000000 0.000000 -1.000000
vn -0.000031 0.000000 1.000000
vn -0.000031 0.000000 1.000000
vn -0.000031 0.000000 1.000000
vn -0.000031 0.000000 1.000000
vn 1.000000 0.000000 0.000002
vn 1.000000 0.000000 0.000002
vn 1.000000 0.000000 0.000002
vn 1.000000 0.000000 0.000002
vn 0.000000 1.000000 0.000000
vn 0.000000 1.000000 0.000000
vn 0.000000 1.000000 0.000000
vn 0.000000 1.000000 0.000000
vn -1.000000 0.000000 -0.000002
vn -1.000000 0.000000 -0.000002
vn -1.000000 0.000000 -0.000002
vn -1.000000 0.000000 -0.000002
vn 0.000000 -1.000000 0.000000
vn 0.000000 -1.000000 0.000000
vn 0.000000 -1.000000 0.000000
vn 0.000000 -1.000000 0.000000
vn 0.000000 0.000000 -1.000000
vn 0.000000 0.000000 -1.000000
vn 0.000000 0.000000 -1.000000
vn 0.000000 0.000000 -1.000000
vn 0.000000 0.000000 1.000000
vn 0.000000 0.000000 1.000000
vn 0.000000 0.000000 1.000000
vn 0.000000 0.000000 1.000000
vn 1.000000 0.000000 0.000010
vn 1.000000 0.000000 0.000010
vn 1.000000 0.000000 0.000010
vn 1.000000 0.000000 0.000010
vn 0.000000 1.000000 0.000000
vn 0.000000 1.000000 0.000000
vn 0.000000 1.000000 0.000000
vn 0.000000 1.000000 0.000000
vn -1.000000 0.000000 -0.000010
vn -1.000000 0.000000 -0.000010
vn -1.000000 0.000000 -0.000010
vn -1.000000 0.000000 -0.000010
vn 0.000000 -1.000000 0.000000
vn 0.000000 -1.000000 0.000000
vn 0.000000 -1.000000 0.000000
vn 0.000000 -1.000000 0.000000
vn 0.000000 0.000000 -1.000000
vn 0.000000 0.000000 -1.000000
vn 0.000000 0.000000 -1.000000
vn 0.000000 0.000000 -1.000000
vn 0.000000 0.000000 1.000000
vn 0.000000 0.000000 1.000000
vn 0.000000 0.000000 1.000000
vn 0.000000 0.000000 1.000000
s off
f 1/15/1 2/2/2 4/14/3 3/11/4
f 5/4/5 6/10/6 8/5/7 7/12/8
f 2/13/9 8/6/10 6/7/11 4/3/12
f 7/8/13 1/1/14 3/16/15 5/9/16
f 9/17/17 10/18/18 12/19/19 11/20/20
f 13/21/21 14/22/22 16/23/23 15/24/24
f 10/25/25 16/26/26 14/27/27 12/28/28
f 15/29/29 9/30/30 11/31/31 13/32/32
f 17/33/33 18/34/34 20/35/35 19/36/36
f 19/37/37 20/38/38 22/39/39 21/40/40
f 21/41/41 22/42/42 24/43/43 23/44/44
f 18/45/45 24/46/46 22/47/47 20/48/48
f 23/49/49 17/50/50 19/51/51 21/52/52
f 25/53/53 26/54/54 28/55/55 27/56/56
f 27/57/57 28/58/58 30/59/59 29/60/60
f 29/61/61 30/62/62 32/63/63 31/64/64
f 26/65/65 32/66/66 30/67/67 28/68/68
f 31/69/69 25/70/70 27/71/71 29/72/72
f 33/73/73 34/74/74 36/75/75 35/76/76
f 35/77/77 36/78/78 38/79/79 37/80/80
f 37/81/81 38/82/82 40/83/83 39/84/84
f 39/85/85 40/86/86 34/87/87 33/88/88
f 34/89/89 40/90/90 38/91/91 36/92/92
f 39/93/93 33/94/94 35/95/95 37/96/96
f 41/97/97 42/98/98 44/99/99 43/100/100
f 43/101/101 44/102/102 46/103/103 45/104/104
f 45/105/105 46/106/106 48/107/107 47/108/108
f 47/109/109 48/110/110 42/111/111 41/112/112
f 42/113/113 48/114/114 46/115/115 44/116/116
f 47/117/117 41/118/118 43/119/119 45/120/120
