# This file uses centimeters as units for non-parametric coordinates.

v 0.425611 1.245556 0.072642
v 0.425611 1.245556 -0.072642
v 0.425611 2.096778 0.072642
v 0.425611 2.096778 -0.072642
v -0.425611 2.096778 0.072642
v -0.425611 2.096778 -0.072642
v -0.425611 1.245556 0.072642
v -0.425611 1.245556 -0.072642
v -0.339483 1.331684 -0.072642
v 0.339483 1.331684 -0.072642
v -0.339483 2.010650 -0.072641
v 0.339483 2.010650 -0.072642
v -0.339483 1.331684 0.072642
v 0.339483 1.331684 0.072642
v 0.339483 2.010650 0.072642
v -0.339483 2.010650 0.072641
v -0.339483 1.744998 0.072642
v 0.339483 1.744998 0.072642
v -0.339483 1.597336 0.072641
v 0.339483 1.597336 0.072642
v -0.339483 1.597336 -0.072641
v 0.339483 1.597336 -0.072642
v -0.339483 1.744998 -0.072642
v 0.339483 1.744998 -0.072642
v 0.058802 0.000000 0.058803
v 0.058803 0.000000 -0.058802
v 0.058802 1.245556 0.058803
v 0.058803 1.245556 -0.058802
v -0.058803 1.245556 0.058802
v -0.058802 1.245556 -0.058803
v -0.058803 0.000000 0.058802
v -0.058802 0.000000 -0.058803
vt 0.368117 0.478454
vt 0.332157 0.478454
vt 0.399058 0.478454
vt 0.368116 0.478454
vt 0.332157 0.478454
vt 0.399058 0.478454
vt 0.295361 0.478454
vt 0.332157 0.478454
vt 0.295361 0.478454
vt 0.295361 0.478454
vt 0.368116 0.478454
vt 0.368116 0.478454
vt 0.368116 0.478454
vt 0.368116 0.478454
vt 0.399058 0.478454
vt 0.332157 0.478454
vt 0.332157 0.478454
vt 0.399058 0.478454
vt 0.295361 0.478454
vt 0.332157 0.478454
vt 0.368116 0.478454
vt 0.332157 0.478454
vt 0.332157 0.478454
vt 0.368117 0.478454
vt 0.206082 0.182069
vt 0.368116 0.478454
vt 0.368116 0.478454
vt 0.368116 0.478454
vt 0.206082 0.182069
vt 0.368117 0.478454
vt 0.206082 0.182069
vt 0.368116 0.478454
vt 0.368116 0.478454
vt 0.368117 0.478454
vt 0.206082 0.182069
vt 0.368117 0.478454
vt 0.368116 0.478454
vt 0.206082 0.182069
vt 0.206082 0.182069
vt 0.368116 0.478454
vt 0.368116 0.478454
vt 0.368116 0.478454
vt 0.368116 0.478454
vt 0.206082 0.182069
vt 0.368116 0.478454
vt 0.206082 0.182069
vt 0.206082 0.182069
vt 0.368116 0.478454
vt 0.368116 0.478454
vt 0.368116 0.478454
vt 0.368116 0.478454
vt 0.206082 0.182069
vt 0.368116 0.478454
vt 0.368116 0.478454
vt 0.368117 0.478454
vt 0.206082 0.182069
vt 0.206082 0.182069
vt 0.368117 0.478454
vt 0.368116 0.478454
vt 0.368116 0.478454
vt 0.368116 0.478454
vt 0.206082 0.182069
vt 0.368117 0.478454
vt 0.368117 0.478454
vt 0.368116 0.478454
vt 0.206082 0.182069
vt 0.368116 0.478454
vt 0.368117 0.478454
vt 0.206082 0.182069
vt 0.368117 0.478454
vt 0.368117 0.478454
vt 0.368116 0.478454
vt 0.368116 0.478454
vt 0.368116 0.478454
vt 0.368116 0.478454
vt 0.206082 0.182069
vt 0.368116 0.478454
vt 0.368116 0.478454
vt 0.368116 0.478454
vt 0.368116 0.478454
vt 0.223771 0.478454
vt 0.223771 0.478454
vt 0.223771 0.478454
vt 0.223771 0.478454
vt 0.223771 0.478454
vt 0.223771 0.478454
vt 0.223771 0.478454
vt 0.223771 0.478454
vt 0.259730 0.478454
vt 0.259730 0.478454
vt 0.259730 0.478454
vt 0.259730 0.478454
vt 0.259730 0.478454
vt 0.259730 0.478454
vt 0.259730 0.478454
vt 0.259730 0.478454
vn 1.000000 0.000000 0.000000
vn 1.000000 0.000000 0.000000
vn 1.000000 0.000000 0.000000
vn 1.000000 0.000000 0.000000
vn 0.000000 1.000000 0.000000
vn 0.000000 1.000000 0.000000
vn 0.000000 1.000000 0.000000
vn 0.000000 1.000000 0.000000
vn -1.000000 0.000000 0.000000
vn -1.000000 0.000000 0.000000
vn -1.000000 0.000000 0.000000
vn -1.000000 0.000000 0.000000
vn 0.000000 -1.000000 0.000000
vn 0.000000 -1.000000 0.000000
vn 0.000000 -1.000000 0.000000
vn 0.000000 -1.000000 0.000000
vn -0.000001 -0.000003 -1.000000
vn -0.000001 -0.000003 -1.000000
vn -0.000001 -0.000003 -1.000000
vn -0.000001 -0.000003 -1.000000
vn -0.000001 0.000002 1.000000
vn -0.000001 0.000002 1.000000
vn -0.000001 0.000002 1.000000
vn -0.000001 0.000002 1.000000
vn 0.000000 0.000000 -1.000000
vn 0.000000 0.000000 -1.000000
vn 0.000000 0.000000 -1.000000
vn 0.000000 0.000000 -1.000000
vn 0.000006 0.000001 -1.000000
vn 0.000006 0.000001 -1.000000
vn 0.000006 0.000001 -1.000000
vn 0.000006 0.000001 -1.000000
vn 0.000006 0.000001 -1.000000
vn 0.000006 0.000001 -1.000000
vn -0.000001 -0.000006 -1.000000
vn -0.000001 -0.000006 -1.000000
vn -0.000001 -0.000006 -1.000000
vn -0.000001 -0.000006 -1.000000
vn 0.000000 0.000000 -1.000000
vn 0.000000 0.000000 -1.000000
vn 0.000000 0.000000 -1.000000
vn 0.000000 0.000000 -1.000000
vn 0.000000 0.000000 -1.000000
vn 0.000000 0.000000 -1.000000
vn 0.000000 0.000000 1.000000
vn 0.000000 0.000000 1.000000
vn 0.000000 0.000000 1.000000
vn 0.000000 0.000000 1.000000
vn 0.000000 0.000000 1.000000
vn 0.000000 0.000000 1.000000
vn 0.000000 0.000000 1.000000
vn 0.000000 0.000000 1.000000
vn 0.000000 0.000000 1.000000
vn 0.000000 0.000000 1.000000
vn -0.000001 -0.000006 1.000000
vn -0.000001 -0.000006 1.000000
vn -0.000001 -0.000006 1.000000
vn -0.000001 -0.000006 1.000000
vn 0.000006 0.000001 1.000000
vn 0.000006 0.000001 1.000000
vn 0.000006 0.000001 1.000000
vn 0.000006 0.000001 1.000000
vn 0.000006 0.000001 1.000000
vn 0.000006 0.000001 1.000000
vn -0.000001 0.000002 -1.000000
vn -0.000001 0.000002 -1.000000
vn -0.000001 0.000002 -1.000000
vn -0.000001 0.000002 -1.000000
vn -0.000001 -0.000003 1.000000
vn -0.000001 -0.000003 1.000000
vn -0.000001 -0.000003 1.000000
vn -0.000001 -0.000003 1.000000
vn -0.000001 0.000002 1.000000
vn -0.000001 0.000002 1.000000
vn -0.000001 0.000002 1.000000
vn -0.000001 0.000002 1.000000
vn -0.000001 0.000002 -1.000000
vn -0.000001 0.000002 -1.000000
vn -0.000001 0.000002 -1.000000
vn -0.000001 0.000002 -1.000000
vn 1.000000 0.000000 0.000008
vn 1.000000 0.000000 0.000008
vn 1.000000 0.000000 0.000008
vn 1.000000 0.000000 0.000008
vn -1.000000 0.000000 -0.000008
vn -1.000000 0.000000 -0.000008
vn -1.000000 0.000000 -0.000008
vn -1.000000 0.000000 -0.000008
vn 0.000008 0.000000 -1.000000
vn 0.000008 0.000000 -1.000000
vn 0.000008 0.000000 -1.000000
vn 0.000008 0.000000 -1.000000
vn -0.000008 0.000000 1.000000
vn -0.000008 0.000000 1.000000
vn -0.000008 0.000000 1.000000
vn -0.000008 0.000000 1.000000
s off
f 1/23/1 2/2/2 4/22/3 3/17/4
f 3/3/5 4/15/6 6/6/7 5/18/8
f 5/5/9 6/16/10 8/8/11 7/20/12
f 7/7/13 8/19/14 2/10/15 1/9/16
f 21/48/17 23/42/18 24/40/19 22/50/20
f 17/62/21 18/57/22 15/31/23 16/66/24
f 2/21/25 8/80/26 9/51/27 10/73/28
f 8/11/29 6/78/30 11/75/31 23/41/32 21/37/33 9/26/34
f 6/12/35 4/77/36 12/45/37 11/27/38
f 4/4/39 2/79/40 10/74/41 22/49/42 24/43/43 12/28/44
f 7/13/45 1/71/46 14/68/47 13/59/48
f 1/1/49 3/70/50 15/64/51 18/58/52 20/55/53 14/30/54
f 3/24/55 5/67/56 16/65/57 15/63/58
f 5/14/59 7/72/60 13/60/61 19/53/62 17/61/63 16/32/64
f 10/25/65 9/52/66 21/47/67 22/38/68
f 18/34/69 17/33/70 19/54/71 20/36/72
f 13/29/73 14/69/74 20/56/75 19/35/76
f 24/44/77 23/39/78 11/76/79 12/46/80
f 25/81/81 26/82/82 28/83/83 27/84/84
f 29/85/85 30/86/86 32/87/87 31/88/88
f 26/89/89 32/90/90 30/91/91 28/92/92
f 31/93/93 25/94/94 27/95/95 29/96/96
