# This file uses centimeters as units for non-parametric coordinates.

v 0.500000 0.445044 0.500000
v 0.500000 0.445044 -0.500000
v 0.500000 1.824974 0.500000
v 0.500000 1.824974 -0.500000
v -0.500000 1.824974 0.500000
v -0.500000 1.824974 -0.500000
v -0.500000 0.445044 0.500000
v -0.500000 0.445044 -0.500000
v 0.500000 1.506614 0.500000
v -0.500000 1.506614 0.500000
v -0.500000 1.506614 -0.500000
v 0.500000 1.506614 -0.500000
v 0.307201 1.824974 0.307201
v 0.307201 1.824974 -0.307201
v -0.307201 1.824974 -0.307201
v -0.307201 1.824974 0.307201
v -0.162277 0.445044 0.162277
v -0.162277 0.445044 -0.162281
v 0.162285 0.445044 -0.162281
v 0.162285 0.445044 0.162277
v -0.162277 0.000000 0.162277
v -0.162277 0.000000 -0.162281
v 0.162285 0.000000 -0.162281
v 0.162285 0.000000 0.162277
vt 0.301996 0.478128
vt 0.266036 0.478128
vt 0.296119 0.083515
vt 0.265177 0.083515
vt 0.229218 0.083515
vt 0.296119 0.083515
vt 0.229240 0.478128
vt 0.266036 0.478128
vt 0.229240 0.478128
vt 0.229240 0.478128
vt 0.301996 0.478128
vt 0.265177 0.083515
vt 0.301996 0.478128
vt 0.265177 0.083515
vt 0.296119 0.083515
vt 0.229218 0.083515
vt 0.229218 0.083515
vt 0.296119 0.083515
vt 0.229240 0.478128
vt 0.266036 0.478128
vt 0.301996 0.478128
vt 0.229218 0.083515
vt 0.266036 0.478128
vt 0.265177 0.083515
vt 0.301996 0.478128
vt 0.266036 0.478128
vt 0.265177 0.083515
vt 0.229218 0.083515
vt 0.229218 0.083515
vt 0.265177 0.083515
vt 0.229218 0.083515
vt 0.265177 0.083515
vt 0.296119 0.083515
vt 0.296119 0.083515
vt 0.296119 0.083515
vt 0.296119 0.083515
vt 0.110008 0.477645
vt 0.110008 0.477645
vt 0.110008 0.477645
vt 0.110008 0.477645
vt 0.296119 0.083515
vt 0.296119 0.083515
vt 0.296119 0.083515
vt 0.296119 0.083515
vt 0.296119 0.083515
vt 0.296119 0.083515
vt 0.296119 0.083515
vt 0.296119 0.083515
vt 0.301996 0.478128
vt 0.266036 0.478128
vt 0.265177 0.083515
vt 0.229218 0.083515
vt 0.266036 0.478128
vt 0.301996 0.478128
vt 0.301996 0.478128
vt 0.266036 0.478128
vt 0.229240 0.478128
vt 0.269151 0.478128
vt 0.229240 0.478128
vt 0.269151 0.478128
vt 0.229240 0.478128
vt 0.269151 0.478128
vt 0.229240 0.478128
vt 0.269151 0.478128
vt 0.269151 0.478128
vt 0.229240 0.478128
vt 0.229240 0.478128
vt 0.229240 0.478128
vt 0.269151 0.478128
vt 0.269151 0.478128
vt 0.229240 0.478128
vt 0.269151 0.478128
vn 1.000000 0.000000 0.000000
vn 1.000000 0.000000 0.000000
vn 1.000000 0.000000 0.000000
vn 1.000000 0.000000 0.000000
vn 0.000000 1.000000 0.000000
vn 0.000000 1.000000 0.000000
vn 0.000000 1.000000 0.000000
vn 0.000000 1.000000 0.000000
vn -1.000000 0.000000 0.000000
vn -1.000000 0.000000 0.000000
vn -1.000000 0.000000 0.000000
vn -1.000000 0.000000 0.000000
vn 0.000000 -1.000000 0.000000
vn 0.000000 -1.000000 0.000000
vn 0.000000 -1.000000 0.000000
vn 0.000000 -1.000000 0.000000
vn 0.000000 0.000000 -1.000000
vn 0.000000 0.000000 -1.000000
vn 0.000000 0.000000 -1.000000
vn 0.000000 0.000000 -1.000000
vn 0.000000 0.000000 1.000000
vn 0.000000 0.000000 1.000000
vn 0.000000 0.000000 1.000000
vn 0.000000 0.000000 1.000000
vn 0.000000 0.000000 1.000000
vn 0.000000 0.000000 1.000000
vn 0.000000 0.000000 1.000000
vn 0.000000 0.000000 1.000000
vn -1.000000 0.000000 0.000000
vn -1.000000 0.000000 0.000000
vn -1.000000 0.000000 0.000000
vn -1.000000 0.000000 0.000000
vn 0.000000 0.000000 -1.000000
vn 0.000000 0.000000 -1.000000
vn 0.000000 0.000000 -1.000000
vn 0.000000 0.000000 -1.000000
vn 1.000000 0.000000 0.000000
vn 1.000000 0.000000 0.000000
vn 1.000000 0.000000 0.000000
vn 1.000000 0.000000 0.000000
vn 0.000000 1.000000 0.000000
vn 0.000000 1.000000 0.000000
vn 0.000000 1.000000 0.000000
vn 0.000000 1.000000 0.000000
vn 0.000000 1.000000 0.000000
vn 0.000000 1.000000 0.000000
vn 0.000000 1.000000 0.000000
vn 0.000000 1.000000 0.000000
vn 0.000000 1.000000 0.000000
vn 0.000000 1.000000 0.000000
vn 0.000000 1.000000 0.000000
vn 0.000000 1.000000 0.000000
vn 0.000000 1.000000 -0.000000
vn 0.000000 1.000000 -0.000000
vn 0.000000 1.000000 -0.000000
vn 0.000000 1.000000 -0.000000
vn 0.000000 -1.000000 0.000000
vn 0.000000 -1.000000 0.000000
vn 0.000000 -1.000000 0.000000
vn 0.000000 -1.000000 0.000000
vn 0.000000 -1.000000 -0.000000
vn 0.000000 -1.000000 -0.000000
vn 0.000000 -1.000000 -0.000000
vn 0.000000 -1.000000 -0.000000
vn 0.000000 -1.000000 0.000000
vn 0.000000 -1.000000 0.000000
vn 0.000000 -1.000000 0.000000
vn 0.000000 -1.000000 0.000000
vn 0.000000 -1.000000 0.000000
vn 0.000000 -1.000000 0.000000
vn 0.000000 -1.000000 0.000000
vn 0.000000 -1.000000 0.000000
vn -1.000000 0.000000 0.000000
vn -1.000000 0.000000 0.000000
vn -1.000000 0.000000 0.000000
vn -1.000000 0.000000 0.000000
vn 0.000000 0.000000 -1.000000
vn 0.000000 0.000000 -1.000000
vn 0.000000 0.000000 -1.000000
vn 0.000000 0.000000 -1.000000
vn 1.000000 0.000000 0.000000
vn 1.000000 0.000000 0.000000
vn 1.000000 0.000000 0.000000
vn 1.000000 0.000000 0.000000
vn 0.000000 0.000000 1.000000
vn 0.000000 0.000000 1.000000
vn 0.000000 0.000000 1.000000
vn 0.000000 0.000000 1.000000
s off
f 1/23/1 2/2/2 12/50/3 9/26/4
f 13/37/5 14/38/6 15/39/7 16/40/8
f 10/56/9 11/53/10 8/8/11 7/20/12
f 21/61/13 22/68/14 23/63/15 24/66/16
f 2/21/17 8/11/18 11/54/19 12/49/20
f 7/13/21 1/1/22 9/25/23 10/55/24
f 10/27/25 9/51/26 3/24/27 5/14/28
f 5/5/29 6/16/30 11/29/31 10/28/32
f 12/32/33 11/30/34 6/12/35 4/4/36
f 9/52/37 12/31/38 4/22/39 3/17/40
f 3/3/41 4/47/42 14/45/43 13/33/44
f 4/15/45 6/46/46 15/43/47 14/34/48
f 6/6/49 5/44/50 16/42/51 15/35/52
f 5/18/53 3/48/54 13/41/55 16/36/56
f 7/7/57 8/19/58 18/71/59 17/57/60
f 8/19/61 2/10/62 19/59/63 18/71/64
f 2/10/65 1/9/66 20/67/67 19/59/68
f 1/9/69 7/7/70 17/57/71 20/67/72
f 17/57/73 18/71/74 22/68/75 21/61/76
f 18/58/77 19/70/78 23/69/79 22/62/80
f 19/59/81 20/67/82 24/66/83 23/63/84
f 20/60/85 17/72/86 21/65/87 24/64/88
