# This file uses centimeters as units for non-parametric coordinates.

v -0.927280 0.630058 -0.039163
v 0.634242 -0.931464 0.005949
v -0.927990 0.634091 0.034873
v 0.633533 -0.927431 0.079985
v -0.633641 0.928058 0.028924
v 0.927880 -0.633464 0.074036
v -0.632932 0.924025 -0.045112
v 0.928590 -0.637498 0.000000
v -0.012213 0.306629 0.046877
v -0.011503 0.302595 -0.027159
v -0.305850 0.008628 -0.021210
v -0.306561 0.012662 0.052826
v 0.328517 -0.034101 0.056720
v 0.329227 -0.038135 -0.017315
v 0.034879 -0.332102 -0.011366
v 0.034169 -0.328068 0.062670
v 0.634462 0.927170 0.022917
v -0.928440 -0.633708 0.054504
v 0.633752 0.931203 0.096952
v -0.929150 -0.629675 0.128540
v 0.927840 0.637115 0.105448
v -0.635061 -0.923763 0.137036
v 0.928550 0.633082 0.031413
v -0.634352 -0.927796 0.063000
vt 0.791934 0.504770
vt 0.791934 0.504770
vt 0.791934 0.504770
vt 0.791934 0.504770
vt 0.515740 0.448678
vt 0.718420 0.448678
vt 0.718420 0.493463
vt 0.515740 0.493463
vt 0.791934 0.504770
vt 0.791934 0.504770
vt 0.791934 0.504770
vt 0.791934 0.504770
vt 0.297557 0.475240
vt 0.297557 0.475240
vt 0.297557 0.475240
vt 0.297557 0.475240
vt 0.791934 0.504770
vt 0.791934 0.504770
vt 0.791934 0.504770
vt 0.791934 0.504770
vt 0.791934 0.504770
vt 0.791934 0.504770
vt 0.791934 0.504770
vt 0.791934 0.504770
vt 0.791934 0.504770
vt 0.611658 0.493463
vt 0.297557 0.475240
vt 0.791934 0.504770
vt 0.791934 0.504770
vt 0.297557 0.475240
vt 0.607731 0.448678
vt 0.791934 0.504770
vt 0.611658 0.448678
vt 0.607731 0.493463
vt 0.791934 0.504770
vt 0.617220 0.493463
vt 0.297557 0.475240
vt 0.791934 0.504770
vt 0.791934 0.504770
vt 0.297557 0.475240
vt 0.617220 0.448678
vt 0.791934 0.504770
vt 0.789216 0.505909
vt 0.789216 0.505910
vt 0.789216 0.505910
vt 0.789216 0.505909
vt 0.731812 0.446589
vt 0.506879 0.446589
vt 0.506879 0.398416
vt 0.731812 0.398416
vt 0.789216 0.505910
vt 0.789216 0.505910
vt 0.789216 0.505910
vt 0.789216 0.505910
vt 0.294838 0.476379
vt 0.294838 0.476379
vt 0.294838 0.476379
vt 0.294838 0.476379
vt 0.789216 0.505910
vt 0.789216 0.505910
vt 0.789216 0.505910
vt 0.789216 0.505910
vt 0.789216 0.505910
vt 0.789216 0.505910
vt 0.789216 0.505910
vt 0.789216 0.505910
vt 0.297557 0.475240
vt 0.297557 0.475240
vt 0.297557 0.475240
vt 0.297557 0.475240
vn -0.707209 -0.706294 0.031695
vn -0.707209 -0.706294 0.031695
vn -0.707209 -0.706294 0.031695
vn -0.707209 -0.706294 0.031695
vn -0.004322 0.024559 0.999689
vn -0.004322 0.024559 0.999689
vn -0.004322 0.024559 0.999689
vn -0.004322 0.024559 0.999689
vn 0.707210 0.706293 -0.031700
vn 0.707210 0.706293 -0.031700
vn 0.707210 0.706293 -0.031700
vn 0.707210 0.706293 -0.031700
vn 0.004322 -0.024558 -0.999689
vn 0.004322 -0.024558 -0.999689
vn 0.004322 -0.024558 -0.999689
vn 0.004322 -0.024558 -0.999689
vn 0.706382 -0.706382 0.045255
vn 0.706382 -0.706382 0.045255
vn 0.706382 -0.706382 0.045255
vn 0.706382 -0.706382 0.045255
vn -0.706381 0.706384 -0.045250
vn -0.706381 0.706384 -0.045250
vn -0.706381 0.706384 -0.045250
vn -0.706381 0.706384 -0.045250
vn 0.707209 0.706294 -0.031695
vn 0.707209 0.706294 -0.031695
vn 0.707209 0.706294 -0.031695
vn 0.707209 0.706294 -0.031695
vn 0.004322 -0.024559 -0.999689
vn 0.004322 -0.024559 -0.999689
vn 0.004322 -0.024559 -0.999689
vn 0.004322 -0.024559 -0.999689
vn -0.707210 -0.706293 0.031696
vn -0.707210 -0.706293 0.031696
vn -0.707210 -0.706293 0.031696
vn -0.707210 -0.706293 0.031696
vn -0.004322 0.024559 0.999689
vn -0.004322 0.024559 0.999689
vn -0.004322 0.024559 0.999689
vn -0.004322 0.024559 0.999689
vn 0.707209 0.706294 -0.031692
vn 0.707209 0.706294 -0.031692
vn 0.707209 0.706294 -0.031692
vn 0.707209 0.706294 -0.031692
vn 0.004322 -0.024559 -0.999689
vn 0.004322 -0.024559 -0.999689
vn 0.004322 -0.024559 -0.999689
vn 0.004322 -0.024559 -0.999689
vn -0.707209 -0.706294 0.031700
vn -0.707209 -0.706294 0.031700
vn -0.707209 -0.706294 0.031700
vn -0.707209 -0.706294 0.031700
vn -0.004322 0.024559 0.999689
vn -0.004322 0.024559 0.999689
vn -0.004322 0.024559 0.999689
vn -0.004322 0.024559 0.999689
vn -0.706382 0.706382 -0.045252
vn -0.706382 0.706382 -0.045252
vn -0.706382 0.706382 -0.045252
vn -0.706382 0.706382 -0.045252
vn -0.004322 0.024558 0.999689
vn -0.004322 0.024558 0.999689
vn -0.004322 0.024558 0.999689
vn -0.004322 0.024558 0.999689
vn 0.706382 -0.706382 0.045252
vn 0.706382 -0.706382 0.045252
vn 0.706382 -0.706382 0.045252
vn 0.706382 -0.706382 0.045252
vn 0.004322 -0.024558 -0.999689
vn 0.004322 -0.024558 -0.999689
vn 0.004322 -0.024558 -0.999689
vn 0.004322 -0.024558 -0.999689
vn -0.707209 -0.706294 0.031697
vn -0.707209 -0.706294 0.031697
vn -0.707209 -0.706294 0.031697
vn -0.707209 -0.706294 0.031697
vn 0.707209 0.706294 -0.031688
vn 0.707209 0.706294 -0.031688
vn 0.707209 0.706294 -0.031688
vn 0.707209 0.706294 -0.031688
s off
f 1/1/1 11/29/2 12/32/3 3/4/4
f 3/5/5 12/33/6 9/26/7 5/8/8
f 5/9/9 9/25/10 10/28/11 7/12/12
f 7/13/13 10/69/14 11/70/15 1/16/16
f 2/17/17 8/18/18 6/19/19 4/20/20
f 7/21/21 1/22/22 3/23/23 5/24/24
f 9/25/25 13/35/26 14/38/27 10/28/28
f 11/30/29 10/27/30 14/67/31 15/68/32
f 12/32/33 11/29/34 15/39/35 16/42/36
f 9/34/37 12/31/38 16/41/39 13/36/40
f 13/35/41 6/10/42 8/11/43 14/38/44
f 15/40/45 14/37/46 8/14/47 2/15/48
f 16/42/49 15/39/50 2/2/51 4/3/52
f 13/36/53 16/41/54 4/6/55 6/7/56
f 17/43/57 18/44/58 20/45/59 19/46/60
f 19/47/61 20/48/62 22/49/63 21/50/64
f 21/51/65 22/52/66 24/53/67 23/54/68
f 23/55/69 24/56/70 18/57/71 17/58/72
f 18/59/73 24/60/74 22/61/75 20/62/76
f 23/63/77 17/64/78 19/65/79 21/66/80
