# This file uses centimeters as units for non-parametric coordinates.

v -1.892600 0.000000 0.086963
v -1.977615 0.000000 0.001947
v -1.807584 0.000000 0.001947
v -1.892600 0.000000 -0.083069
v -1.807584 3.708884 0.001947
v -1.892600 3.708884 -0.083069
v -1.892600 3.708884 0.086963
v -1.977615 3.708884 0.001947
v -1.807584 4.531600 -0.712035
v -1.892600 4.446791 -0.717967
v -1.977615 4.531599 -0.712035
v -1.892600 4.616408 -0.706104
v 1.866052 3.922123 -0.181683
v 1.866052 3.922123 -0.224665
v 1.866052 3.965105 -0.181683
v 1.866052 3.965105 -0.224665
v -1.849861 3.965105 -0.181683
v -1.849861 3.965105 -0.224665
v -1.849861 3.922123 -0.181683
v -1.849861 3.922123 -0.224665
v 1.866052 4.211799 -0.442653
v 1.866052 4.211799 -0.485635
v 1.866052 4.254781 -0.442653
v 1.866052 4.254781 -0.485635
v -1.849861 4.254781 -0.442653
v -1.849861 4.254781 -0.485635
v -1.849861 4.211799 -0.442653
v -1.849861 4.211799 -0.485635
v 1.886539 3.655777 0.050110
v 1.886539 3.591118 -0.014548
v 1.886539 3.720435 -0.014548
v 1.886539 3.655777 -0.079207
v -1.880083 3.720435 -0.014549
v -1.880083 3.655777 -0.079207
v -1.880083 3.655777 0.050110
v -1.880083 3.591118 -0.014549
v 1.892600 0.000000 0.086963
v 1.807584 0.000000 0.001947
v 1.977615 0.000000 0.001947
v 1.892600 0.000000 -0.083069
v 1.977615 3.708884 0.001947
v 1.892600 3.708884 -0.083069
v 1.892600 3.708884 0.086963
v 1.807584 3.708884 0.001947
v 1.977615 4.531600 -0.712035
v 1.892600 4.446791 -0.717967
v 1.807584 4.531599 -0.712035
v 1.892600 4.616408 -0.706104
v 1.866052 4.458957 -0.631784
v 1.866052 4.458957 -0.674767
v 1.866052 4.501940 -0.631784
v 1.866052 4.501940 -0.674767
v -1.849861 4.501940 -0.631784
v -1.849861 4.501940 -0.674767
v -1.849861 4.458957 -0.631784
v -1.849861 4.458957 -0.674767
vt 0.318040 0.600325
vt 0.317886 0.600171
vt 0.318040 0.600017
vt 0.318194 0.600171
vt 0.311454 0.600017
vt 0.311608 0.600017
vt 0.311608 0.606860
vt 0.311454 0.606860
vt 0.311454 0.608347
vt 0.311608 0.608194
vt 0.311761 0.608347
vt 0.311608 0.608500
vt 0.304019 0.650817
vt 0.304173 0.650817
vt 0.304173 0.657659
vt 0.304019 0.657659
vt 0.278189 0.615605
vt 0.278189 0.622447
vt 0.278035 0.622447
vt 0.278035 0.615605
vt 0.313319 0.606860
vt 0.313319 0.600017
vt 0.313473 0.600017
vt 0.313473 0.606860
vt 0.300817 0.699183
vt 0.300970 0.699183
vt 0.300970 0.700670
vt 0.300817 0.700517
vt 0.312566 0.738345
vt 0.312412 0.738345
vt 0.313846 0.736704
vt 0.313857 0.736857
vt 0.270755 0.579882
vt 0.270908 0.579882
vt 0.270908 0.581369
vt 0.270755 0.581523
vt 0.319191 0.600017
vt 0.319269 0.600017
vt 0.319269 0.600095
vt 0.319191 0.600095
vt 0.308835 0.673756
vt 0.308912 0.673756
vt 0.308912 0.680474
vt 0.308835 0.680474
vt 0.319315 0.600017
vt 0.319392 0.600017
vt 0.319392 0.600095
vt 0.319315 0.600095
vt 0.351819 0.649776
vt 0.351896 0.649776
vt 0.351896 0.656494
vt 0.351819 0.656494
vt 0.316209 0.606735
vt 0.316209 0.600017
vt 0.316286 0.600017
vt 0.316286 0.606735
vt 0.317746 0.606735
vt 0.317746 0.600017
vt 0.317824 0.600017
vt 0.317824 0.606735
vt 0.319188 0.600127
vt 0.319266 0.600127
vt 0.319266 0.600205
vt 0.319188 0.600205
vt 0.308974 0.673756
vt 0.309052 0.673756
vt 0.309052 0.680474
vt 0.308974 0.680474
vt 0.319061 0.600283
vt 0.319139 0.600283
vt 0.319139 0.600361
vt 0.319061 0.600361
vt 0.351958 0.649776
vt 0.352036 0.649776
vt 0.352036 0.656494
vt 0.351958 0.656494
vt 0.316348 0.606735
vt 0.316348 0.600017
vt 0.316426 0.600017
vt 0.316426 0.606735
vt 0.317327 0.606735
vt 0.317327 0.600017
vt 0.317405 0.600017
vt 0.317405 0.606735
vt 0.318601 0.600134
vt 0.318718 0.600017
vt 0.318835 0.600134
vt 0.318718 0.600251
vt 0.315735 0.600017
vt 0.315852 0.600017
vt 0.315852 0.606827
vt 0.315735 0.606827
vt 0.319013 0.600017
vt 0.319130 0.600134
vt 0.319013 0.600251
vt 0.318896 0.600134
vt 0.339294 0.647378
vt 0.339411 0.647378
vt 0.339411 0.654188
vt 0.339294 0.654188
vt 0.339528 0.647378
vt 0.339528 0.654188
vt 0.273653 0.609225
vt 0.273653 0.602416
vt 0.273770 0.602416
vt 0.273770 0.609225
vt 0.318397 0.600325
vt 0.318244 0.600171
vt 0.318397 0.600017
vt 0.318551 0.600171
vt 0.279965 0.615605
vt 0.280118 0.615605
vt 0.280118 0.622447
vt 0.279965 0.622447
vt 0.313537 0.608347
vt 0.313691 0.608194
vt 0.313844 0.608347
vt 0.313691 0.608500
vt 0.313894 0.601658
vt 0.314048 0.601658
vt 0.314048 0.608500
vt 0.313894 0.608500
vt 0.313844 0.600017
vt 0.313844 0.606860
vt 0.313691 0.606860
vt 0.313691 0.600017
vt 0.307607 0.656019
vt 0.307607 0.649177
vt 0.307761 0.649177
vt 0.307761 0.656019
vt 0.302746 0.699183
vt 0.302900 0.699183
vt 0.302900 0.700517
vt 0.302746 0.700670
vt 0.271483 0.574681
vt 0.271330 0.574681
vt 0.272763 0.573040
vt 0.272774 0.573193
vt 0.316000 0.743546
vt 0.316154 0.743546
vt 0.316154 0.745033
vt 0.316000 0.745187
vt 0.318935 0.600283
vt 0.319012 0.600283
vt 0.319012 0.600361
vt 0.318935 0.600361
vt 0.309114 0.673756
vt 0.309192 0.673756
vt 0.309192 0.680474
vt 0.309114 0.680474
vt 0.318808 0.600283
vt 0.318886 0.600283
vt 0.318886 0.600361
vt 0.318808 0.600361
vt 0.352238 0.649776
vt 0.352316 0.649776
vt 0.352316 0.656494
vt 0.352238 0.656494
vt 0.316488 0.606735
vt 0.316488 0.600017
vt 0.316566 0.600017
vt 0.316566 0.606735
vt 0.317607 0.606735
vt 0.317607 0.600017
vt 0.317684 0.600017
vt 0.317684 0.606735
vn -0.000000 -1.000000 0.000000
vn -0.000000 -1.000000 0.000000
vn -0.000000 -1.000000 0.000000
vn -0.000000 -1.000000 0.000000
vn 0.707110 0.000000 -0.707104
vn 0.707110 0.000000 -0.707104
vn 0.707110 0.000000 -0.707104
vn 0.707110 0.000000 -0.707104
vn 0.000003 0.069772 -0.997563
vn 0.000003 0.069772 -0.997563
vn 0.000003 0.069772 -0.997563
vn 0.000003 0.069772 -0.997563
vn -0.707107 0.000000 0.707107
vn -0.707107 0.000000 0.707107
vn -0.707107 0.000000 0.707107
vn -0.707107 0.000000 0.707107
vn -0.707110 0.000000 -0.707104
vn -0.707110 0.000000 -0.707104
vn -0.707110 0.000000 -0.707104
vn -0.707110 0.000000 -0.707104
vn 0.707107 0.000000 0.707107
vn 0.707107 0.000000 0.707107
vn 0.707107 0.000000 0.707107
vn 0.707107 0.000000 0.707107
vn 0.590058 -0.527946 -0.610822
vn 0.590058 -0.527946 -0.610822
vn 0.590058 -0.527946 -0.610822
vn 0.590058 -0.527946 -0.610822
vn -0.590055 -0.527949 -0.610823
vn -0.590055 -0.527949 -0.610823
vn -0.590055 -0.527949 -0.610823
vn -0.590055 -0.527949 -0.610823
vn -0.590106 0.530250 0.608778
vn -0.590106 0.530250 0.608778
vn -0.590106 0.530250 0.608778
vn -0.590106 0.530250 0.608778
vn 0.590104 0.530251 0.608779
vn 0.590104 0.530251 0.608779
vn 0.590104 0.530251 0.608779
vn 0.590104 0.530251 0.608779
vn 1.000000 0.000000 0.000000
vn 1.000000 0.000000 0.000000
vn 1.000000 0.000000 0.000000
vn 1.000000 0.000000 0.000000
vn 0.000000 1.000000 0.000000
vn 0.000000 1.000000 0.000000
vn 0.000000 1.000000 0.000000
vn 0.000000 1.000000 0.000000
vn -1.000000 0.000000 0.000000
vn -1.000000 0.000000 0.000000
vn -1.000000 0.000000 0.000000
vn -1.000000 0.000000 0.000000
vn 0.000000 -1.000000 0.000000
vn 0.000000 -1.000000 0.000000
vn 0.000000 -1.000000 0.000000
vn 0.000000 -1.000000 0.000000
vn 0.000000 0.000000 -1.000000
vn 0.000000 0.000000 -1.000000
vn 0.000000 0.000000 -1.000000
vn 0.000000 0.000000 -1.000000
vn -0.000000 0.000000 1.000000
vn -0.000000 0.000000 1.000000
vn -0.000000 0.000000 1.000000
vn -0.000000 0.000000 1.000000
vn 1.000000 0.000000 0.000000
vn 1.000000 0.000000 0.000000
vn 1.000000 0.000000 0.000000
vn 1.000000 0.000000 0.000000
vn 0.000000 1.000000 0.000000
vn 0.000000 1.000000 0.000000
vn 0.000000 1.000000 0.000000
vn 0.000000 1.000000 0.000000
vn -1.000000 0.000000 0.000000
vn -1.000000 0.000000 0.000000
vn -1.000000 0.000000 0.000000
vn -1.000000 0.000000 0.000000
vn 0.000000 -1.000000 0.000000
vn 0.000000 -1.000000 0.000000
vn 0.000000 -1.000000 0.000000
vn 0.000000 -1.000000 0.000000
vn 0.000000 0.000000 -1.000000
vn 0.000000 0.000000 -1.000000
vn 0.000000 0.000000 -1.000000
vn 0.000000 0.000000 -1.000000
vn -0.000000 0.000000 1.000000
vn -0.000000 0.000000 1.000000
vn -0.000000 0.000000 1.000000
vn -0.000000 0.000000 1.000000
vn 1.000000 0.000000 0.000000
vn 1.000000 0.000000 0.000000
vn 1.000000 0.000000 0.000000
vn 1.000000 0.000000 0.000000
vn 0.000000 0.707106 -0.707107
vn 0.000000 0.707106 -0.707107
vn 0.000000 0.707106 -0.707107
vn 0.000000 0.707106 -0.707107
vn -1.000000 0.000000 0.000000
vn -1.000000 0.000000 0.000000
vn -1.000000 0.000000 0.000000
vn -1.000000 0.000000 0.000000
vn -0.000000 -0.707106 0.707107
vn -0.000000 -0.707106 0.707107
vn -0.000000 -0.707106 0.707107
vn -0.000000 -0.707106 0.707107
vn 0.000000 -0.707106 -0.707107
vn 0.000000 -0.707106 -0.707107
vn 0.000000 -0.707106 -0.707107
vn 0.000000 -0.707106 -0.707107
vn -0.000000 0.707106 0.707107
vn -0.000000 0.707106 0.707107
vn -0.000000 0.707106 0.707107
vn -0.000000 0.707106 0.707107
vn -0.000000 -1.000000 0.000000
vn -0.000000 -1.000000 0.000000
vn -0.000000 -1.000000 0.000000
vn -0.000000 -1.000000 0.000000
vn 0.707110 0.000000 -0.707104
vn 0.707110 0.000000 -0.707104
vn 0.707110 0.000000 -0.707104
vn 0.707110 0.000000 -0.707104
vn 0.000003 0.069772 -0.997563
vn 0.000003 0.069772 -0.997563
vn 0.000003 0.069772 -0.997563
vn 0.000003 0.069772 -0.997563
vn -0.707107 0.000000 0.707107
vn -0.707107 0.000000 0.707107
vn -0.707107 0.000000 0.707107
vn -0.707107 0.000000 0.707107
vn -0.707110 0.000000 -0.707104
vn -0.707110 0.000000 -0.707104
vn -0.707110 0.000000 -0.707104
vn -0.707110 0.000000 -0.707104
vn 0.707107 0.000000 0.707107
vn 0.707107 0.000000 0.707107
vn 0.707107 0.000000 0.707107
vn 0.707107 0.000000 0.707107
vn 0.590058 -0.527946 -0.610822
vn 0.590058 -0.527946 -0.610822
vn 0.590059 -0.527946 -0.610822
vn 0.590058 -0.527946 -0.610822
vn -0.590055 -0.527949 -0.610823
vn -0.590055 -0.527949 -0.610823
vn -0.590055 -0.527949 -0.610823
vn -0.590055 -0.527949 -0.610823
vn -0.590106 0.530250 0.608778
vn -0.590106 0.530250 0.608778
vn -0.590106 0.530250 0.608778
vn -0.590106 0.530250 0.608778
vn 0.590104 0.530250 0.608780
vn 0.590104 0.530250 0.608780
vn 0.590104 0.530250 0.608780
vn 0.590104 0.530250 0.608780
vn 1.000000 0.000000 0.000000
vn 1.000000 0.000000 0.000000
vn 1.000000 0.000000 0.000000
vn 1.000000 0.000000 0.000000
vn 0.000000 1.000000 0.000000
vn 0.000000 1.000000 0.000000
vn 0.000000 1.000000 0.000000
vn 0.000000 1.000000 0.000000
vn -1.000000 0.000000 0.000000
vn -1.000000 0.000000 0.000000
vn -1.000000 0.000000 0.000000
vn -1.000000 0.000000 0.000000
vn 0.000000 -1.000000 0.000000
vn 0.000000 -1.000000 0.000000
vn 0.000000 -1.000000 0.000000
vn 0.000000 -1.000000 0.000000
vn 0.000000 0.000000 -1.000000
vn 0.000000 0.000000 -1.000000
vn 0.000000 0.000000 -1.000000
vn 0.000000 0.000000 -1.000000
vn -0.000000 0.000000 1.000000
vn -0.000000 0.000000 1.000000
vn -0.000000 0.000000 1.000000
vn -0.000000 0.000000 1.000000
s off
f 1/1/1 2/2/2 4/3/3 3/4/4
f 3/5/5 4/6/6 6/7/7 5/8/8
f 9/9/9 10/10/10 11/11/11 12/12/12
f 7/13/13 8/14/14 2/15/15 1/16/16
f 2/17/17 8/18/18 6/19/19 4/20/20
f 7/21/21 1/22/22 3/23/23 5/24/24
f 5/8/25 6/7/26 10/10/27 9/9/28
f 6/25/29 8/26/30 11/27/31 10/28/32
f 8/29/33 7/30/34 12/31/35 11/32/36
f 7/33/37 5/34/38 9/35/39 12/36/40
f 13/37/41 14/38/42 16/39/43 15/40/44
f 15/41/45 16/42/46 18/43/47 17/44/48
f 17/45/49 18/46/50 20/47/51 19/48/52
f 19/49/53 20/50/54 14/51/55 13/52/56
f 14/53/57 20/54/58 18/55/59 16/56/60
f 19/57/61 13/58/62 15/59/63 17/60/64
f 21/61/65 22/62/66 24/63/67 23/64/68
f 23/65/69 24/66/70 26/67/71 25/68/72
f 25/69/73 26/70/74 28/71/75 27/72/76
f 27/73/77 28/74/78 22/75/79 21/76/80
f 22/77/81 28/78/82 26/79/83 24/80/84
f 27/81/85 21/82/86 23/83/87 25/84/88
f 29/85/89 30/86/90 32/87/91 31/88/92
f 31/89/93 32/90/94 34/91/95 33/92/96
f 33/93/97 34/94/98 36/95/99 35/96/100
f 35/97/101 36/98/102 30/99/103 29/100/104
f 30/99/105 36/98/106 34/101/107 32/102/108
f 35/103/109 29/104/110 31/105/111 33/106/112
f 37/107/113 38/108/114 40/109/115 39/110/116
f 39/111/117 40/112/118 42/113/119 41/114/120
f 45/115/121 46/116/122 47/117/123 48/118/124
f 43/119/125 44/120/126 38/121/127 37/122/128
f 38/123/129 44/124/130 42/125/131 40/126/132
f 43/127/133 37/128/134 39/129/135 41/130/136
f 41/131/137 42/132/138 46/133/139 45/134/140
f 42/125/141 44/124/142 47/117/143 46/116/144
f 44/135/145 43/136/146 48/137/147 47/138/148
f 43/139/149 41/140/150 45/141/151 48/142/152
f 49/143/153 50/144/154 52/145/155 51/146/156
f 51/147/157 52/148/158 54/149/159 53/150/160
f 53/151/161 54/152/162 56/153/163 55/154/164
f 55/155/165 56/156/166 50/157/167 49/158/168
f 50/159/169 56/160/170 54/161/171 52/162/172
f 55/163/173 49/164/174 51/165/175 53/166/176
