# This file uses centimeters as units for non-parametric coordinates.

v -1.240316 1.276594 -6.395469
v -1.240316 1.026187 -6.145068
v -1.780652 1.026187 -6.145068
v -1.780652 1.276594 -6.395469
v -1.240316 0.684125 -6.053408
v -1.780652 0.684125 -6.053408
v -1.240316 0.342062 -6.145068
v -1.780652 0.342062 -6.145068
v -1.240316 0.091656 -6.395469
v -1.780652 0.091656 -6.395469
v -1.240316 0.000000 -6.737541
v -1.780652 0.000000 -6.737541
v -1.240316 0.091656 -7.079591
v -1.780652 0.091656 -7.079591
v -1.240316 0.342062 -7.330003
v -1.780652 0.342062 -7.330003
v -1.240316 0.684125 -7.421655
v -1.780652 0.684125 -7.421655
v -1.240316 1.026187 -7.330003
v -1.780652 1.026187 -7.330003
v -1.240316 1.276594 -7.079591
v -1.780652 1.276594 -7.079591
v -1.240316 1.368249 -6.737541
v -1.780652 1.368249 -6.737541
v -1.780652 0.684125 -6.737541
vt 0.005623 0.678199
vt 0.005623 0.678199
vt 0.005623 0.678199
vt 0.005623 0.678199
vt 0.005623 0.678199
vt 0.005623 0.678199
vt 0.005623 0.678199
vt 0.005623 0.678199
vt 0.005623 0.678199
vt 0.005623 0.678199
vt 0.005623 0.678199
vt 0.005623 0.678199
vt 0.005623 0.678199
vt 0.005623 0.678199
vt 0.005623 0.678199
vt 0.005623 0.678199
vt 0.005623 0.678199
vt 0.005623 0.678199
vt 0.005623 0.678199
vt 0.005623 0.678199
vt 0.005623 0.678199
vt 0.005623 0.678199
vt 0.005623 0.678199
vt 0.005623 0.678199
vt 0.005518 0.620469
vt 0.005810 0.555105
vt 0.005810 0.620469
vt 0.005518 0.620469
vt 0.005810 0.555105
vt 0.005810 0.620469
vt 0.005518 0.620469
vt 0.005810 0.555105
vt 0.005810 0.620469
vt 0.005518 0.620469
vt 0.005810 0.555105
vt 0.005810 0.620469
vt 0.005518 0.620469
vt 0.005810 0.555105
vt 0.005810 0.620469
vt 0.005518 0.620469
vt 0.005810 0.555105
vt 0.005810 0.620469
vt 0.005518 0.620469
vt 0.005810 0.555105
vt 0.005810 0.620469
vt 0.005518 0.620469
vt 0.005810 0.555105
vt 0.005810 0.620469
vt 0.005518 0.620469
vt 0.005810 0.555105
vt 0.005810 0.620469
vt 0.005518 0.620469
vt 0.005810 0.555105
vt 0.005810 0.620469
vt 0.005518 0.620469
vt 0.005810 0.555105
vt 0.005810 0.620469
vt 0.005518 0.620469
vt 0.005810 0.555105
vt 0.005810 0.620469
vt 0.007244 0.641179
vt 0.007244 0.641179
vt 0.007244 0.641179
vt 0.007244 0.641179
vt 0.007244 0.641179
vt 0.007244 0.641179
vt 0.007244 0.641179
vt 0.007244 0.641179
vt 0.007244 0.641179
vt 0.007244 0.641179
vt 0.007244 0.641179
vt 0.007244 0.641179
vn 0.000000 0.707101 0.707113
vn 0.000000 0.707101 0.707113
vn 0.000000 0.707101 0.707113
vn 0.000000 0.707101 0.707113
vn 0.000000 0.258830 0.965923
vn 0.000000 0.258830 0.965923
vn 0.000000 0.258830 0.965923
vn 0.000000 0.258830 0.965923
vn 0.000000 -0.258830 0.965923
vn 0.000000 -0.258830 0.965923
vn 0.000000 -0.258830 0.965923
vn 0.000000 -0.258830 0.965923
vn 0.000000 -0.707101 0.707113
vn 0.000000 -0.707101 0.707113
vn 0.000000 -0.707101 0.707113
vn 0.000000 -0.707101 0.707113
vn 0.000000 -0.965927 0.258814
vn 0.000000 -0.965927 0.258814
vn 0.000000 -0.965927 0.258814
vn 0.000000 -0.965927 0.258814
vn -0.000000 -0.965924 -0.258827
vn -0.000000 -0.965924 -0.258827
vn -0.000000 -0.965924 -0.258827
vn -0.000000 -0.965924 -0.258827
vn -0.000000 -0.707115 -0.707099
vn -0.000000 -0.707115 -0.707099
vn -0.000000 -0.707115 -0.707099
vn -0.000000 -0.707115 -0.707099
vn -0.000000 -0.258804 -0.965930
vn -0.000000 -0.258804 -0.965930
vn -0.000000 -0.258804 -0.965930
vn -0.000000 -0.258804 -0.965930
vn -0.000000 0.258804 -0.965930
vn -0.000000 0.258804 -0.965930
vn -0.000000 0.258804 -0.965930
vn -0.000000 0.258804 -0.965930
vn -0.000000 0.707114 -0.707099
vn -0.000000 0.707114 -0.707099
vn -0.000000 0.707114 -0.707099
vn -0.000000 0.707114 -0.707099
vn -0.000000 0.965924 -0.258825
vn -0.000000 0.965924 -0.258825
vn -0.000000 0.965924 -0.258825
vn -0.000000 0.965924 -0.258825
vn 0.000000 0.965928 0.258812
vn 0.000000 0.965928 0.258812
vn 0.000000 0.965928 0.258812
vn 0.000000 0.965928 0.258812
vn -1.000000 -0.000000 0.000000
vn -1.000000 0.000000 0.000000
vn -1.000000 0.000000 0.000000
vn -1.000000 0.000000 0.000000
vn -1.000000 0.000000 0.000000
vn -1.000000 0.000000 0.000000
vn -1.000000 0.000000 0.000000
vn -1.000000 0.000000 0.000000
vn -1.000000 -0.000000 0.000000
vn -1.000000 -0.000000 0.000000
vn -1.000000 0.000000 0.000000
vn -1.000000 0.000001 0.000000
vn -1.000000 0.000001 0.000000
vn -1.000000 0.000000 0.000000
vn -1.000000 0.000000 0.000000
vn -1.000000 0.000000 0.000000
vn -1.000000 0.000000 0.000000
vn -1.000000 0.000000 0.000000
vn -1.000000 0.000000 0.000000
vn -1.000000 0.000000 0.000000
vn -1.000000 0.000000 0.000000
vn -1.000000 0.000000 0.000000
vn -1.000000 0.000000 0.000000
vn -1.000000 0.000000 0.000000
vn -1.000000 0.000000 0.000000
vn -1.000000 0.000000 0.000000
vn -1.000000 0.000000 0.000000
vn -1.000000 0.000000 0.000000
vn -1.000000 0.000000 0.000000
vn -1.000000 0.000000 0.000000
vn -1.000000 0.000000 0.000000
vn -1.000000 0.000000 0.000000
vn -1.000000 0.000000 0.000000
vn -1.000000 0.000000 0.000000
vn -1.000000 0.000000 0.000000
vn -1.000000 -0.000000 0.000000
vn 1.000000 0.000001 -0.000000
vn 1.000000 -0.000000 -0.000000
vn 1.000000 -0.000000 -0.000000
vn 1.000000 -0.000000 -0.000000
vn 1.000000 -0.000000 -0.000000
vn 1.000000 -0.000000 -0.000000
vn 1.000000 -0.000000 -0.000000
vn 1.000000 0.000000 -0.000000
vn 1.000000 -0.000000 -0.000000
vn 1.000000 0.000000 -0.000000
vn 1.000000 0.000000 -0.000000
vn 1.000000 -0.000000 -0.000000
vn 1.000000 0.000000 -0.000000
vn 1.000000 -0.000000 -0.000000
vn 1.000000 -0.000000 -0.000000
vn 1.000000 -0.000000 -0.000000
vn 1.000000 -0.000000 -0.000000
vn 1.000000 -0.000000 -0.000000
vn 1.000000 -0.000000 -0.000000
vn 1.000000 0.000000 -0.000000
vn 1.000000 -0.000000 -0.000000
vn 1.000000 0.000000 -0.000000
vn 1.000000 -0.000000 -0.000000
vn 1.000000 -0.000000 -0.000000
vn 1.000000 -0.000000 -0.000000
vn 1.000000 0.000001 -0.000000
vn 1.000000 -0.000000 -0.000000
vn 1.000000 0.000001 -0.000000
vn 1.000000 0.000000 -0.000000
vn 1.000000 -0.000000 -0.000000
s off
f 1/1/1 4/2/2 3/3/3 2/4/4
f 2/4/5 3/3/6 6/5/7 5/6/8
f 5/6/9 6/5/10 8/7/11 7/8/12
f 7/8/13 8/7/14 10/9/15 9/10/16
f 9/10/17 10/9/18 12/11/19 11/12/20
f 11/12/21 12/11/22 14/13/23 13/14/24
f 13/14/25 14/13/26 16/15/27 15/16/28
f 15/16/29 16/15/30 18/17/31 17/18/32
f 17/18/33 18/17/34 20/19/35 19/20/36
f 19/20/37 20/19/38 22/21/39 21/22/40
f 21/22/41 22/21/42 24/23/43 23/24/44
f 23/24/45 24/23/46 4/2/47 1/1/48
f 4/25/49 25/26/50 3/27/51
f 3/28/52 25/29/53 6/30/54
f 6/31/55 25/32/56 8/33/57
f 8/34/58 25/35/59 10/36/60
f 10/37/61 25/38/62 12/39/63
f 12/40/64 25/41/65 14/42/66
f 14/43/67 25/44/68 16/45/69
f 16/46/70 25/47/71 18/48/72
f 18/49/73 25/50/74 20/51/75
f 20/52/76 25/53/77 22/54/78
f 22/55/79 25/56/80 24/57/81
f 24/58/82 25/59/83 4/60/84
f 2/61/85 5/62/86 1/63/87
f 5/62/88 7/64/89 1/63/90
f 7/64/91 9/65/92 1/63/93
f 9/65/94 11/66/95 1/63/96
f 11/66/97 13/67/98 1/63/99
f 13/67/100 15/68/101 1/63/102
f 15/68/103 17/69/104 1/63/105
f 17/69/106 19/70/107 1/63/108
f 19/70/109 21/71/110 1/63/111
f 21/71/112 23/72/113 1/63/114
